<svg xmlns="http://www.w3.org/2000/svg" viewBox="0 0 134.28 164.64"><defs><style>.cls-1{font-size:14.7px;font-family:TsukuARdGothicStd-B-83pv-RKSJ-H, FOT-TsukuARdGothic Std;letter-spacing:0.02em;}.cls-1,.cls-8,.cls-9{fill:#404040;}.cls-2{letter-spacing:0.03em;}.cls-3{letter-spacing:0.04em;}.cls-4{letter-spacing:0.09em;}.cls-5{letter-spacing:0.07em;}.cls-6{letter-spacing:0.08em;}.cls-7{fill:#fff;}.cls-9{stroke:#474747;stroke-miterlimit:10;stroke-width:1.02px;}</style></defs><title>logo-nutas</title><g id="logo_decoration"><text class="cls-1" transform="translate(21.46 12.94)">読<tspan class="cls-2" x="14.96" y="0">む</tspan><tspan class="cls-3" x="30.07" y="0">栄</tspan><tspan class="cls-4" x="45.39" y="0">養</tspan><tspan class="cls-5" x="61.36" y="0">補</tspan><tspan class="cls-6" x="77.17" y="0">給 </tspan></text><path class="cls-7" d="M127.87,58.51H106.21V49h0V36.78a6.42,6.42,0,0,0-6.4-6.42H34.87a6.42,6.42,0,0,0-6.4,6.42V58.51H6.4A6.42,6.42,0,0,0,0,64.93v65.13a6.42,6.42,0,0,0,6.4,6.42H28.47v18.76h0v3a6.42,6.42,0,0,0,6.4,6.42H99.81a6.42,6.42,0,0,0,6.4-6.42V136.49h21.66a6.42,6.42,0,0,0,6.4-6.42V64.93A6.42,6.42,0,0,0,127.87,58.51Z"/><path class="cls-8" d="M14.93,76.27h8.8l16.82,27.11h.11V76.27H49v40.41H40.1L23.34,89.62h-.11v27.06h-8.3Z"/><path class="cls-8" d="M91.51,101.4c0,10.92-6.43,16.24-17.21,16.24s-17.16-5.26-17.16-16.24V76.27H66V101.4c0,4.41,1.13,8.77,8.3,8.77,6.32,0,8.35-2.77,8.35-8.77V76.27h8.86Z"/><polygon class="cls-8" points="112.3 77.22 111.32 77.22 106.71 77.22 105.73 77.22 105.73 78.21 105.73 85.81 98.14 85.81 97.16 85.81 97.16 86.8 97.16 91.42 97.16 92.41 98.14 92.41 105.73 92.41 105.73 100.01 105.73 101 106.71 101 111.32 101 112.3 101 112.3 100.01 112.3 92.41 119.89 92.41 120.87 92.41 120.87 91.42 120.87 86.8 120.87 85.81 119.89 85.81 112.3 85.81 112.3 78.21 112.3 77.22 112.3 77.22"/><path class="cls-9" d="M44.59,52c2.26,0,5.21,0,7.49,0,1.58,0,1.48-2.36.11-2.32-2.58.07-5.11.07-7.47,0A1.16,1.16,0,1,0,44.59,52Z"/><path class="cls-9" d="M54.76,58.4c-3.67-.09-9.45-.09-13,0-1.54,0-1.39,2.45,0,2.41,3.88-.12,8.88-.12,13,0C56,60.85,56.39,58.44,54.76,58.4Z"/><path class="cls-9" d="M72.58,58.8c-.82,0-1.71,0-2.65,0,.28-1,.92-4.14,1.14-5.16.24-1.2-.22-2.27-1.63-2.34-1.09,0-3.06-.09-5,0a1,1,0,0,0,.15,2c1.43-.07,2.91,0,3.82,0,.41,0,.5.21.43.56-.11.72-.77,4-1,5-2.19,0-4.32,0-5.77.09a1,1,0,0,0,.07,2.06c2.86-.21,7.2-.19,10.39-.07A1,1,0,0,0,72.58,58.8Z"/><path class="cls-9" d="M92,54.07H80.21a1.14,1.14,0,0,0-1.15,1.18,1.08,1.08,0,0,0,1.15,1.11H92a1.15,1.15,0,0,0,0-2.29Z"/><path class="cls-8" d="M58.78,130.65c-.73,0-1.51.09-2.29.16a1.42,1.42,0,0,0-.12-1.31,1.67,1.67,0,0,0-3,.37,18.72,18.72,0,0,1-5.47,6.45A1.66,1.66,0,0,0,47,137.8a1.52,1.52,0,0,0,.85,1.29,1.73,1.73,0,0,0,1.78-.2A15.28,15.28,0,0,0,51.76,137a1.31,1.31,0,0,0,0,.17,1.29,1.29,0,0,0,1,.92,8.08,8.08,0,0,1,1.6.67A15.69,15.69,0,0,1,47.88,143a1.62,1.62,0,0,0-1.17,1.2,1.43,1.43,0,0,0,.5,1.36,1.65,1.65,0,0,0,1.07.37,2.31,2.31,0,0,0,.83-.16,18.94,18.94,0,0,0,7.79-5.29,10.36,10.36,0,0,1,.86.8,1.52,1.52,0,0,0,1.08.52,1.55,1.55,0,0,0,1.11-.43,1.63,1.63,0,0,0,.08-2.27,7.25,7.25,0,0,0-1.24-1.14c.69-1,1.4-2.21,2.16-3.6a2.67,2.67,0,0,0,.18-2.68A2.44,2.44,0,0,0,58.78,130.65Zm-.92,2.83-.11.26a20.25,20.25,0,0,1-1.5,2.62,13.74,13.74,0,0,0-2.38-.95,2.07,2.07,0,0,0-.57-.08h-.1c.54-.64,1-1.2,1.26-1.56C55.28,133.68,57,133.52,57.86,133.49Z"/><path class="cls-8" d="M83.62,141.77c-1-1.36-3.46-3-5.12-4.05a35.61,35.61,0,0,0,2.07-3.23,2.08,2.08,0,0,0,.09-2.13A3,3,0,0,0,78,131.12c-2,0-5.23,0-6.83.11a1.48,1.48,0,0,0-1.44,1.59,1.42,1.42,0,0,0,1.48,1.43l1.83,0c1.53,0,3.25-.09,4.21-.08a16.72,16.72,0,0,1-8.61,7.65A1.71,1.71,0,0,0,67.44,143a1.54,1.54,0,0,0,.52,1.46,1.52,1.52,0,0,0,1,.35,2,2,0,0,0,.68-.13h0a18.19,18.19,0,0,0,7-4.73,21.81,21.81,0,0,1,4.5,3.94,1.45,1.45,0,0,0,2.11.31A1.79,1.79,0,0,0,83.62,141.77Z"/><path class="cls-8" d="M127.87,58.51H111.63v3h13.29a3.46,3.46,0,0,1,3.45,3.46V127.1a3.46,3.46,0,0,1-3.45,3.46H111.63v5.93h16.24a6.42,6.42,0,0,0,6.4-6.42V64.93A6.42,6.42,0,0,0,127.87,58.51Z"/><path class="cls-8" d="M100.3,141.93v13.33a3.46,3.46,0,0,1-3.45,3.46h-62a3.46,3.46,0,0,1-3.45-3.46V141.93h-3v13.33h0v3a6.42,6.42,0,0,0,6.4,6.42H99.81a6.42,6.42,0,0,0,6.4-6.42V141.93ZM34.52,161.66l.35,0h0Z"/><path class="cls-8" d="M19.69,130.56H6.4A3.46,3.46,0,0,1,3,127.1V64.93A3.46,3.46,0,0,1,6.4,61.48H19.69v-3H6.4A6.42,6.42,0,0,0,0,64.93v65.13a6.42,6.42,0,0,0,6.4,6.42H19.69Z"/><path class="cls-8" d="M31.42,36.78a3.46,3.46,0,0,1,3.45-3.46h62a3.46,3.46,0,0,1,3.45,3.46V50.11h5.91V36.78a6.42,6.42,0,0,0-6.4-6.42H34.87a6.42,6.42,0,0,0-6.4,6.42V50.11h3Z"/></g></svg>