<svg id="レイヤー_1" data-name="レイヤー 1" xmlns="http://www.w3.org/2000/svg" xmlns:xlink="http://www.w3.org/1999/xlink" width="317.37" height="141.03" viewBox="0 0 317.37 141.03"><defs><style>.cls-1{fill:none;}.cls-2{clip-path:url(#clip-path);}.cls-3{fill:#f5f5f5;}.cls-4{fill:#e5e5e5;}</style><clipPath id="clip-path" transform="translate(0 0)"><rect class="cls-1" width="317.37" height="141.03"/></clipPath></defs><title>logo-gray</title><g class="cls-2"><path class="cls-3" d="M313.32,58.27c0,13.72-2.37,23.26-7,29.36s-11.66,8.78-20.91,8.78-16.23-2.68-20.91-8.78-7-15.64-7-29.36,0.31-25.52,4-31.73,10.64-6.83,24-6.83,20.35,0.62,24,6.83,4,18,4,31.73" transform="translate(0 0)"/><path class="cls-4" d="M285.37,100.1a45,45,0,0,1-4.73-.22,49.79,49.79,0,0,1-6.33-1.14A20.42,20.42,0,0,1,269,96.46a27.61,27.61,0,0,1-8.43-7.82,20.51,20.51,0,0,1-1.73-2.85c-0.57-1.29-1.06-2.61-1.55-3.93s-0.75-2.53-1.25-3.78a21.28,21.28,0,0,1-.88-3.85A56,56,0,0,1,254,65.06c-0.11-3.93,0-7.84.05-11.76,0,0,0-1.71,0-1.71V49.88l0.09-1.71c0-.56,0-1.14,0-1.7-0.06-1.77.19-3.64,0.3-5.41q0.19-3,.67-5.94c0.1-.59.05-1.17,0.14-1.75a17.59,17.59,0,0,1,.66-2.31,50.27,50.27,0,0,1,2.46-6.15l0.89-1.4a13.11,13.11,0,0,0,1-1.16,7.25,7.25,0,0,1,1.17-1.28c0.43-.38.93-0.67,1.32-1.08l1.41-.89c0.8-.25,1.57-0.52,2.34-0.83a23.78,23.78,0,0,1,4-1.19c1.1-.23,2.19-0.3,3.3-0.48h1.66l1.66,0c1.49-.07,3-0.09,4.46-0.1h2.23c0.54,0,1.06-.07,1.6-0.08l2.66-.06c1.19,0,2.35-.06,3.54,0,1.81,0.07,3.61.27,5.41,0.42L298.62,17l1.63,0.31,1.63,0.29a17.7,17.7,0,0,1,2.81.73c0.18,0.07.33,0.2,0.52,0.26a6.86,6.86,0,0,1,1.28.77l1.43,0.8,1.26,1.05,1.17,1.14,1.16,1.18,1,1.33,0.61,1.61L313.82,28l0.59,1.6,0.49,1.63,0.23,1.69,0.43,1.65,0.25,1.68L316,38l0.31,1.68,0.1,1.7,0.21,1.7s0,1.68,0,1.71a19.1,19.1,0,0,0,.13,2c0.05,0.5,0,1,0,1.46l0.12,1.71-0.11,1.71,0.05,1.71V55s0,1.68,0,1.71a29.78,29.78,0,0,1-.11,5l0.08,1.66L316.67,65a12.74,12.74,0,0,1-.11,1.86c-0.36,1.56-.11,3.16-0.47,4.73l-0.36,1.62-0.37,1.61-0.27,1.63-0.5,1.58-0.5,1.57c-0.38,1.34-.94,2.62-1.27,4a16.71,16.71,0,0,1-2.54,4.8,23.8,23.8,0,0,1-8.22,7.48,30,30,0,0,1-6.95,3.1,40.12,40.12,0,0,1-9.75,1.12m0-76.8c-0.23,0-.45.06-0.69,0.07-0.92,0-1.84.05-2.77,0.12a42.55,42.55,0,0,0-6.94.12,7.58,7.58,0,0,0-1.71.14l-1.65.58-1.71.25-1.59.65-1.48.85-1.37,1-1,1.41L263.72,30c-0.19.37-.38,0.75-0.55,1.13s-0.23,1-.42,1.5a28.39,28.39,0,0,0-1.42,4.79,20.93,20.93,0,0,0-.08,2.76c0,1.56-.2,3.15-0.16,4.71A30.31,30.31,0,0,1,261,50l0,1.69-0.07,1.69c-0.09,2.25,0,4.51.06,6.76,0.07,1.47.05,2.95,0.07,4.43a49.45,49.45,0,0,0,1.06,8.88l0.4,1.63A43.43,43.43,0,0,0,264.9,82a10.08,10.08,0,0,0,1.48,2.64,28.5,28.5,0,0,0,3.23,3.47,30.47,30.47,0,0,0,4,2.78,9.94,9.94,0,0,0,1.82.57c1.14,0.32,2.26.85,3.48,1.07,1,0.19,2.06.3,3.09,0.46l1.69,0.19a19.66,19.66,0,0,0,3.77,0C289,93,290.56,93,292.12,92.7a22.38,22.38,0,0,0,4.76-1.95,18.84,18.84,0,0,0,9.38-9.6,28.53,28.53,0,0,0,1.58-4.49,43.34,43.34,0,0,0,1-4.91q0.24-1.65.5-3.31l0.12-1.67c0-.58.25-1.11,0.29-1.71a39.43,39.43,0,0,0,.26-4.37c-0.11-2.07.1-4.08,0-6.15s-0.28-4.21-.38-6.26l-0.08-1.69,0.09-1.7-0.21-1.68-0.11-1.69-0.09-1.69L309,38.18l-0.19-1.68-0.39-1.65-0.27-1.67c-0.26-.64-0.34-1.29-0.63-1.92a35.44,35.44,0,0,0-1.9-3.8,6.66,6.66,0,0,0-1.6-1.52l-1.51-.84a20.61,20.61,0,0,0-2.81-.87,11.16,11.16,0,0,0-3.85-.57c-1.18,0-2.36-.16-3.54-0.14a19.19,19.19,0,0,1-3.45-.25c-0.7-.11-1.6,0-2.35,0a5.62,5.62,0,0,0-1.13.07" transform="translate(0 0)"/><path class="cls-4" d="M216.62,87.11a3.7,3.7,0,0,1-3.8-4.21A4,4,0,0,1,213.4,81a4.07,4.07,0,0,1,1.59-1.3,10.08,10.08,0,0,0,1.77-1,12.13,12.13,0,0,0,1.6-1.27,14.19,14.19,0,0,0,1.37-1.53A11.6,11.6,0,0,0,222,71.73c0.4-1.51.54-3.15,0.79-4.64a19.63,19.63,0,0,0,0-3.23,11.51,11.51,0,0,0-.4-3.38A11.26,11.26,0,0,1,222,59a13.07,13.07,0,0,0-1.25-3.69,12.47,12.47,0,0,0-1.54-2.17,15.18,15.18,0,0,0-1.31-1.32,14.79,14.79,0,0,0-1.32-1.34,14.61,14.61,0,0,0-1.59-1,15.84,15.84,0,0,0-1.77-.63,16.32,16.32,0,0,0-1.73-.7c-0.59-.16-1.21-0.24-1.84-0.35s-1.22-.12-1.86-0.17-1.22-.12-1.86-0.12a18.09,18.09,0,0,0-2,.22,15.78,15.78,0,0,0-2,.26,14.57,14.57,0,0,0-2,.53,14.93,14.93,0,0,0-1.83.95,17.88,17.88,0,0,0-1.61,1.27c-0.53.4-1.1,0.76-1.63,1.23a14.08,14.08,0,0,0-1.31,1.3,17.75,17.75,0,0,0-2.91,4,22.93,22.93,0,0,0-1.89,9.14,20.67,20.67,0,0,0,0,2.7,22.62,22.62,0,0,0,.48,3.11c0.28,1.27,1.16,3.58,2.49,4.08,1.77,0.66,3.31-.64,4.41-1.86a9.51,9.51,0,0,0,1.26-1.73,20,20,0,0,0,.85-2c0.29-.69.51-1.39,0.73-2s0.3-1.32.49-2,0.53-1.25.69-1.91,0.19-1.34.33-2,0.34-1.31.45-2,0.25-1.33.35-2a3.75,3.75,0,0,1,.73-1.82,3.88,3.88,0,0,1,1.56-1.24,3.94,3.94,0,0,1,2-.24,3.83,3.83,0,0,1,1.79.87A4,4,0,0,1,208.61,58a4,4,0,0,1,.21,2c-0.09.63-.26,1.26-0.38,1.91s-0.23,1.27-.37,1.91-0.4,1.24-.56,1.87-0.41,1.23-.6,1.85-0.17,1.31-.39,1.93-0.53,1.19-.78,1.79-0.58,1.17-.86,1.75-0.65,1.13-1,1.69-0.53,1.21-.88,1.74-0.76,1.07-1.16,1.56a16.48,16.48,0,0,1-1.29,1.46,13,13,0,0,1-1.5,1.24,14.45,14.45,0,0,1-3.21,1.91c-3.73,1.36-7.85-.37-10.27-3.32a13.65,13.65,0,0,1-1.06-1.69,16.72,16.72,0,0,1-1-1.73c-0.26-.6-0.35-1.28-0.56-1.92s-0.56-1.22-.72-1.87-0.14-1.33-.23-2-0.3-1.32-.33-2,0.08-1.32.11-2,0.08-1.33.17-2,0.19-1.32.32-2,0.36-1.29.52-2,0.31-1.3.52-2A42.92,42.92,0,0,1,185,53.8c0.15-.34.3-0.67,0.47-1a19.62,19.62,0,0,1,1.25-2.07c0.38-.56.76-1.13,1.19-1.66s1-.94,1.46-1.43,0.91-1,1.42-1.47,1-.9,1.59-1.3,1.13-.78,1.72-1.12,1.29-.47,1.91-0.75,1.24-.55,1.88-0.77,1.26-.51,1.93-0.68,1.33-.25,2-0.36,1.34-.21,2-0.26,1.35,0,2,0,1.32,0,2,.07,1.33,0,2,.12,1.31,0.23,1.93.35,1.26,0.42,1.87.6,1.35,0.16,1.94.39,1.2,0.59,1.77.87S218.44,44,219,44.38s1.1,0.72,1.6,1.11,1.18,0.65,1.65,1.08,0.9,1,1.32,1.46,0.88,1,1.25,1.5,0.89,1,1.25,1.55c0.54,0.83.69,1.88,1.27,2.66a8,8,0,0,1,.84,1.83,21.49,21.49,0,0,1,1.39,4.76c0.11,0.64.14,1.3,0.21,2s0.25,1.29.29,2,0,1.31,0,2-0.23,1.27-.28,1.91a28.57,28.57,0,0,1-.73,5.34,22.13,22.13,0,0,1-1.64,3.87,18.8,18.8,0,0,1-4.73,6,24.71,24.71,0,0,1-2.87,2.45,16.74,16.74,0,0,1-1.67.94,3.82,3.82,0,0,1-1.57.38" transform="translate(0 0)"/><path class="cls-4" d="M112.28,49.28a0,0,0,0,1,0,0,0,0,0,0,1,0,0c-2.39.09-4.84-.11-7.2,0.18a16.71,16.71,0,0,1-1.73-.08c-1,0-1-.06-1.9,0a5.41,5.41,0,0,0-1.19.22,8.24,8.24,0,0,1-1.39-.1c-0.41,0-.81,0-1.22,0-1,0-1,0-1.9,0s-1-.1-1.91-0.08l-0.08,0a3.21,3.21,0,0,1-1.65-.09,3.15,3.15,0,0,1-.94-1.39,3.9,3.9,0,0,1-.15-1.6,3.81,3.81,0,0,1,.19-1.63,2.58,2.58,0,0,1,1.38-1.4l0.84-.3a1.54,1.54,0,0,1,.36-0.1,1.48,1.48,0,0,1,.4,0,11.37,11.37,0,0,0,1.94.16l1.51,0c0.95,0,.95,0,1.89,0s0.95,0,1.9,0c0.35,0,.68,0,1,0,0.5,0,1,0,1.5,0,1.05,0,2.11,0,3.16.05a6.16,6.16,0,0,0,.72,0,13.58,13.58,0,0,1,1.64,0c0.21,0,.43,0,0.65,0s0.51,0.08.78,0.08c0.72,0,1.44,0,2.16-.05,0.26,0,.51,0,0.77,0s0.57,0.05.86,0.05c0.95,0,.95.08,1.9,0.09s0.95,0,1.89,0c0.66,0,1.32,0,2-.08a1.7,1.7,0,0,1,.6.06,5,5,0,0,0,.93,0,9.29,9.29,0,0,0,2.22-.15c-0.06,0-.07-0.07-0.06-0.13a25.34,25.34,0,0,0,.06-2.81,21.13,21.13,0,0,0,0-2.13,0.49,0.49,0,0,1-.37,0,2.26,2.26,0,0,0-.36-0.11c-0.29,0-.59.06-0.88,0a2.75,2.75,0,0,0-.74,0,13.18,13.18,0,0,1-1.43.21c-0.94,0-.94-0.1-1.87-0.09s-0.94-.12-1.87-0.11-0.94,0-1.87,0S113.91,38,113,38s-0.94-.16-1.88-0.15-0.94.15-1.88,0.15-0.94-.07-1.88-0.07a2.15,2.15,0,0,1-1.84-.85,3.6,3.6,0,0,1-.47-2,3.52,3.52,0,0,1,.64-1.93,1.88,1.88,0,0,1,1.66-1c0.93,0,.93-0.18,1.87-0.17s0.94,0.07,1.87.08,0.94,0,1.87,0,0.94,0,1.87,0,0.94,0.11,1.87.12c1.13,0,2.28.13,3.41,0.12,0.44,0,.88-0.08,1.32-0.1a5.65,5.65,0,0,1,.77,0,9.21,9.21,0,0,0,1.82,0A4,4,0,0,0,124.1,31c0-.58,0-1.16,0-1.73a14.32,14.32,0,0,0,.08-2,15,15,0,0,0-1.8-.07c-0.71,0-1.42-.08-2.13-0.08-1,0-1,.07-2,0.07s-1,0-2,.05a13,13,0,0,1-1.59.08,17.92,17.92,0,0,0-2.39-.09,13.05,13.05,0,0,1-1.62,0,20.32,20.32,0,0,0-2.35-.14l-2,0c-1,0-1,.09-2,0.09-1.37,0-2.72.23-4.07,0.11l-0.33,0c-1-.1-2.16.06-3.08-0.47a3.4,3.4,0,0,1-1.51-1.41,2.88,2.88,0,0,1,.88-3.94A2.3,2.3,0,0,1,97.69,21a3.87,3.87,0,0,0,.87,0,1.89,1.89,0,0,1,.65-0.14c0.94,0.06,1.9.06,2.83,0.06s0.94-.06,1.88-0.06,0.94,0.08,1.88.08c0.49,0,1-.11,1.44-0.15,0.75-.06,1.58,0,2.33,0,0.94,0,.94.08,1.89,0.08s0.94,0.06,1.89.06a4.22,4.22,0,0,0,1.89-.08c-0.3-.5-0.8-0.87-1.12-1.34s-0.56-1-.9-1.47-0.72-.9-1.08-1.34-0.55-1-.92-1.48a2.5,2.5,0,0,1-.7-1.75,2.87,2.87,0,0,1,.41-1.7,3.84,3.84,0,0,1,1.43-1,3.75,3.75,0,0,1,1.66-.66,4.9,4.9,0,0,1,3.21,1.79,26.85,26.85,0,0,1,2.63,3c0.38,0.51.67,1.1,1,1.64s0.47,0.8.72,1.2a12,12,0,0,1,.9,1.52,10.82,10.82,0,0,1,.42,1.47,13.2,13.2,0,0,0,2.4,0c1.21,0,1.2,0,2.41,0,0.94,0,.94.23,1.87,0.22s0.94,0.07,1.88.05a5.08,5.08,0,0,0,1.87-.17c0.29-.56.53-1.17,0.81-1.77s0.5-1.2.77-1.8,0.76-1.11,1-1.71,0.46-1.25.67-1.84,0.5-1.25.7-1.83a4.06,4.06,0,0,1,1-1.82,3.05,3.05,0,0,1,1.92-1,4,4,0,0,1,1.86.9,4,4,0,0,1,1.4,1.38,3.46,3.46,0,0,1,.49,1.88,5,5,0,0,1-.43,2c-0.26.59-.63,1.21-1,1.87s-0.45,1.24-.78,1.82-0.63,1.18-.92,1.79c0.53,0,1,.09,1.54.09,0.92,0,.92,0,1.85,0s0.92,0,1.84,0,0.92,0.06,1.85.06,0.92-.05,1.85-0.05,0.92,0,1.84,0h1.85c0.93,0,.93,0,1.85,0s0.93-.13,1.85-0.13a2.75,2.75,0,0,1,1.51.64,3,3,0,0,1,1.2,1.12,4.18,4.18,0,0,1,.26,1.65,2.79,2.79,0,0,1-.49,1.48,2.3,2.3,0,0,1-1.19,1,7.79,7.79,0,0,1-2.71.46c-1.08.07-2.15,0.06-3.22,0.06a33.72,33.72,0,0,1-5,0,30.18,30.18,0,0,0-4.4.08c-1,0-1,.06-2,0.06h-2c-1,0-1-.13-2-0.13s-1,.11-2,0.11-1,0-2-.05a5.62,5.62,0,0,0-2,.09c0,0.77-.08,1.53-0.11,2.3s-0.11,1.65-.12,2.47c0.76,0,1.49,0,2.24,0,0.58,0,1.16.18,1.75,0.18,0.94,0,.94.09,1.89,0.09a8.74,8.74,0,0,1,1.2-.09q0.86,0.1,1.72.16c0.48,0,.91,0,1.39,0,1.11,0,2.22.07,3.33,0.06,0.53,0,1.06,0,1.59,0a9.48,9.48,0,0,1,3.09.25c1.07,0.33,1.34,1.45,1.34,2.48a2.39,2.39,0,0,1-.16,1.19,2.12,2.12,0,0,1-.11.2,2.78,2.78,0,0,1-1.54,1.31,12.38,12.38,0,0,1-2.41.13c-0.94,0-.94.06-1.89,0.05s-0.94.05-1.89,0c-0.43,0-.85,0-1.27.07a14.82,14.82,0,0,1-1.54-.1l-0.77,0c-2.22-.1-4.44-0.18-6.66-0.11a2.23,2.23,0,0,1-.33,0c-0.15,0-.3-0.07-0.45-0.09a3,3,0,0,0-.48,0,0.18,0.18,0,0,0-.22.22c0,0.61,0,1.2.06,1.81a28.58,28.58,0,0,1,.05,2.93,0.16,0.16,0,0,0,0,.08,0.14,0.14,0,0,0,.09.06,3,3,0,0,0,1.38,0,20.05,20.05,0,0,1,2.66.1c0.6,0,1.17,0,1.77,0s1.44,0,2.15,0,1.2,0,1.78,0c1,0,1,0,1.92,0s1,0,1.92,0,1,0,1.92,0,1,0,1.92,0,1,0.05,1.92.05,1,0,1.92,0l1.92,0c1,0,1-.07,1.92-0.07h1.92c1,0,1,0,1.92,0s1-.06,1.92-0.06a2.78,2.78,0,0,1,1.59.42,2.88,2.88,0,0,1,.88,1.37,3.94,3.94,0,0,1,.23,1.58,3.74,3.74,0,0,1-.45,2.31,2.63,2.63,0,0,1-2.16.94s0,0-.09,0a13.4,13.4,0,0,0-1.56,0,14.36,14.36,0,0,1-2.12,0c-0.68,0-1.36-.11-2-0.12-1,0-1,0-1.9-.06l-1.91,0c-1,0-1,0-1.91,0s-1,0-1.91,0-1-.17-1.91-0.19-1,0-1.91,0-1,.11-1.92.1" transform="translate(0 0)"/><path class="cls-4" d="M66.28,63.81a9,9,0,0,1-1.91,0c-1,0-1-.07-1.94-0.08-1.66,0-3.36-.08-5,0-0.92,0-1.82,0-2.75,0s-1,.05-1.95,0-1,0-1.94,0-1,0-1.94,0-1.79.08-2.81,0a6.74,6.74,0,0,0-1.09-.08c0.42,0.51.72,1.11,1.14,1.61,1.17,1.36,2.45,2.61,3.65,4a57.36,57.36,0,0,0,4.57,4.46c0.49,0.44,1,.82,1.52,1.24s1.18,1,1.78,1.42c0.44,0.34.91,0.6,1.35,0.94A89.12,89.12,0,0,0,67,82.75c0.56,0.34,1,.79,1.61,1.13s1.2,0.53,1.77.85,1,0.81,1.62,1.12,1.19,0.54,1.77.84a4.12,4.12,0,0,1,2,4.3c-0.4,1.92-2.27,2.82-4,3.15a3.32,3.32,0,0,1-2-.37A15.22,15.22,0,0,1,68,93.08c-0.51-.28-1.18-0.39-1.76-0.75-0.87-.54-1.73-1.08-2.55-1.69L60.43,88.2c-0.93-.69-1.73-1.53-2.67-2.23a56.14,56.14,0,0,1-4.83-4.38c-0.46-.43-1-0.83-1.41-1.28A46.63,46.63,0,0,1,47.24,76c-0.35-.45-0.69-0.83-1.07-1.24s-0.6-1.08-1-1.54-0.8-1-1.21-1.47-0.86-.93-1.26-1.43-0.79-1-1.19-1.46c0,0.82.06,1,.07,2s0.09,1,.09,2-0.07,1-.07,2,0,1,0,2,0,1,0,2,0,1,0,2,0,1,0,2,0.06,1,.06,2-0.05,1,0,2,0,1,.05,2,0,1,0,2c0,1.72.08,3.44,0,5.15A4.26,4.26,0,0,1,41,98.66a3.53,3.53,0,0,1-1.27,1.4,5.19,5.19,0,0,1-1.91.34A5,5,0,0,1,36,99.89a3.37,3.37,0,0,1-1.44-1.16,3.63,3.63,0,0,1-.85-2.49c0-1.16.21-2.32,0.21-3.48s0-2.42,0-3.64S34,87,34,85.89q0-.76,0-1.52C34,84,34,83.61,34,83.21c0-.93.07-1.87,0.11-2.8s0.11-2.07.12-3.11c0-1.73,0-3.45,0-5.19q0-.76,0-1.51c0-.34,0-0.87,0-1.25a12.21,12.21,0,0,1-.81,1c-0.27.32-.52,0.65-0.8,1-0.75.86-1.47,1.74-2.2,2.6-0.42.5-.81,1-1.25,1.53s-0.94.92-1.38,1.41S27,78,26.55,78.45s-0.85,1-1.31,1.48c-0.7.72-1.32,1.5-2,2.2s-1.45,1.32-2.18,2a66.59,66.59,0,0,1-7.57,6.18l-1.62,1.07c-0.6.4-1.22,0.75-1.82,1.14S8.75,93,8.19,93.33s-1.13.67-1.7,1A4.7,4.7,0,0,1,4,95.15a4.24,4.24,0,0,1-2-.3A4.08,4.08,0,0,1,.59,93.4,3.4,3.4,0,0,1,0,91.52a3.44,3.44,0,0,1,.54-2.17A6,6,0,0,1,2.35,88c0.59-.31,1.11-0.72,1.68-1,0.4-.22.83-0.23,1.23-0.42a25,25,0,0,0,2.26-1.42c0.55-.34,1.17-0.63,1.74-1a7.32,7.32,0,0,0,.91-0.69,10.67,10.67,0,0,0,1-.8A22.53,22.53,0,0,1,14,80.6c0.4-.31.77-0.65,1.15-1a6.94,6.94,0,0,0,1-.69A7,7,0,0,1,17,78c0.5-.43,1-0.86,1.48-1.3s1-.88,1.45-1.34,1-.82,1.5-1.29,0.81-1,1.27-1.52,1-.88,1.42-1.37,0.83-1,1.26-1.51,0.8-1,1.22-1.55a10.08,10.08,0,0,1,1.06-.95,11.84,11.84,0,0,0,.79-1c0.67-.76,1.29-1.57,1.9-2.38a4.22,4.22,0,0,0-2-.09c-1,0-1,0-2,0s-1-.08-2-0.07l-2,0c-1,0-1,0-2,0s-1,.09-2,0.09c-1.21,0-2.45-.07-3.66,0-0.81,0-1.62,0-2.43,0s-1.35.08-2,0A2.68,2.68,0,0,1,7.89,62.7a1.76,1.76,0,0,1-.18-0.32,4.25,4.25,0,0,1-.36-1.93,4.17,4.17,0,0,1,.21-1.6,3.27,3.27,0,0,1,.86-1.42,2.59,2.59,0,0,1,1.6-.3c1.42,0,2.8-.09,4.22,0C15.1,57.14,16,57,16.83,57c1.11,0,2.2.16,3.31,0.16s1,0,2,0c0.69,0,1.37-.06,2.06-0.08s1.3,0.11,2,.11,1.63-.06,2.43-0.06c0.54,0,1.07.06,1.62,0.06s1.38,0,2.06,0a7,7,0,0,0,1.79-.09,0.44,0.44,0,0,0,.19-0.46c0-.62,0-1.24,0-1.86s-0.11-1.17-.13-1.78-0.06-1.52,0-2.28c0-.93,0-1.86-0.07-2.79,0-.39,0-0.79,0-1.18,0-1.33-.29-2.74.5-3.94a3.23,3.23,0,0,1,1.41-1.2,4.78,4.78,0,0,1,1.83-.43,5.18,5.18,0,0,1,1.91.35,3.76,3.76,0,0,1,1.55,1.18,4.28,4.28,0,0,1,.5,2.51,26,26,0,0,1-.22,3.18c-0.08.85,0,1.71-.1,2.55s0,1.53,0,2.31c0,0.61-.09,1.2-0.1,1.81s0,1.29,0,2c0,0.48,4.64,0,5,0,0.92,0,1.81.11,2.71,0.11s1-.08,1.92-0.08c0.48,0,.84,0,1.3,0s0.94,0,1.4,0,0.75,0.05,1.13,0h1.92c1,0,1,0,1.92,0s1,0,1.92,0,1,0.06,1.92.06,1-.15,1.92-0.15,1-.14,1.92-0.15a2.63,2.63,0,0,1,1.55.75,3.25,3.25,0,0,1,1.07,1.31,4.83,4.83,0,0,1,.21,1.69,3.28,3.28,0,0,1-1.51,2.8,6.25,6.25,0,0,1-1.37.46" transform="translate(0 0)"/><path class="cls-4" d="M35.73,33.21c0.68,0,1.34-.07,2-0.08s1.34,0.12,2,.14,1.37,0,2,.08,1.37,0,2,.09,1.39-.07,2,0,1.36,0.19,2,.31,1.31,0.45,1.95.6a19.74,19.74,0,0,1,3.66,1.22,15.6,15.6,0,0,1,1.66.8c0.48,0.29.83,0.75,1.29,1.06A20.48,20.48,0,0,1,60,40.29a17.84,17.84,0,0,1,3,5A27.17,27.17,0,0,1,64.86,50a3.63,3.63,0,0,0,3,2.89,4,4,0,0,0,2.1-.17,4.12,4.12,0,0,0,1.93-.9,3.75,3.75,0,0,0,1.08-4.07,18.55,18.55,0,0,0-.62-2.06,7.86,7.86,0,0,0-.8-1.59,15,15,0,0,1-.92-2.09,14.36,14.36,0,0,0-1-1.68c-0.37-.58-0.66-1.21-1.06-1.75s-0.81-.76-1.15-1.24A14,14,0,0,0,66,35.75a18.9,18.9,0,0,0-2.15-1.92c-0.61-.46-1.1-1-1.69-1.48a17.85,17.85,0,0,0-4.37-2.57c-0.6-.27-1.29-0.32-1.92-0.55-0.9-.34-1.84-0.69-2.76-1a25.39,25.39,0,0,0-4-1c-0.64-.08-1.28-0.22-1.91-0.33-1.09-.19-2.2-0.24-3.31-0.33-0.67-.05-1.36-0.05-2.06-0.09-1.35-.07-2.77-0.11-4.13-0.11a71.36,71.36,0,0,0-8.25.36c-0.67.08-1.39,0.14-2.06,0.23s-1.38.26-2,.39-1.34.36-2,.53-1.3.49-1.94,0.69-1.27.4-1.88,0.63-1.31.35-1.9,0.61-1.19.63-1.76,0.94a19.93,19.93,0,0,0-3.7,2.42c-0.32.28-.5,0.69-0.84,1s-0.53.27-.77,0.44A6.77,6.77,0,0,0,9,36.34c-0.66,1-1.59,1.8-2.23,2.83s-1.39,1.88-1.94,2.91A28.3,28.3,0,0,0,3.36,45.9c-0.22.63-.37,1.34-0.54,2A4.13,4.13,0,0,0,2.58,50a4.42,4.42,0,0,0,1,2,4.37,4.37,0,0,0,2,.9A4.17,4.17,0,0,0,7.71,53a4.23,4.23,0,0,0,1.86-1.1,4.61,4.61,0,0,0,.93-1.51,18.89,18.89,0,0,0,.57-2c0.18-.54.48-1,0.69-1.56s0.52-1,.77-1.52c0.42-.85.83-1.65,1.3-2.46a16.31,16.31,0,0,1,2.89-3.63c0.59-.56,1.25-1,1.87-1.55,0.23-.19.39-0.44,0.62-0.62a12.51,12.51,0,0,1,1.17-.61,16,16,0,0,1,1.69-.73,28.65,28.65,0,0,1,2.67-1.34,26.45,26.45,0,0,1,3.76-.7,30.3,30.3,0,0,1,4.26-.44,23.52,23.52,0,0,1,2.65,0h0.32" transform="translate(0 0)"/><path class="cls-4" d="M97.19,65.18c-0.59,0-1.18.09-1.77,0.05s-1.17-.17-1.75-0.25-1.19-.06-1.77-0.18a3.66,3.66,0,0,1-1.65-.88,3.58,3.58,0,0,1-.92-1.59,3.48,3.48,0,0,1-.15-1.81A3.07,3.07,0,0,1,91.57,58a3.46,3.46,0,0,1,1.81-.23,19,19,0,0,0,2.4.36,17,17,0,0,0,2.42,0c0.63,0,1.26,0,1.88-.08s1.22-.3,1.83-0.46,1.2-.35,1.79-0.56,1.17-.43,1.75-0.69,1.13-.54,1.68-0.84,1-.7,1.57-1,1.14-.56,1.64-0.93,0.94-.84,1.42-1.24,0.95-.82,1.4-1.25l1.62-1.51c0.53-.5,1.1-1,1.63-1.51s1-1.11,1.47-1.67a2.82,2.82,0,0,1,1.91-1,2.74,2.74,0,0,1,2,.71,2.69,2.69,0,0,1,1,1.84,2.85,2.85,0,0,1-.55,2.1c-0.39.46-.93,0.82-1.32,1.3s-0.77,1-1.17,1.43-0.81.94-1.22,1.38-0.81,1-1.24,1.36-1,.75-1.44,1.17-0.85.89-1.32,1.3-1,.73-1.48,1.12-0.85.92-1.35,1.29-1,.7-1.54,1-1,.67-1.58,1-1.13.51-1.69,0.77a18.28,18.28,0,0,1-1.71.71c-0.71.25-1.41,0.51-2.13,0.69s-1.45.39-2.18,0.51-1.49.24-2.23,0.28c-0.48,0-1-.13-1.46-0.13" transform="translate(0 0)"/><path class="cls-4" d="M157.7,65.25c0.59,0,1.18,0,1.77-.05s1.17-.09,1.76-0.17,1.14-.29,1.72-0.41a3.36,3.36,0,0,0,1.59-.81,3.62,3.62,0,0,0,1.15-1.44,3.62,3.62,0,0,0-.08-1.84,3.62,3.62,0,0,0-.67-1.71,3.67,3.67,0,0,0-1.6-1,3.6,3.6,0,0,0-1.85-.17,19.35,19.35,0,0,1-2.39.41,17.07,17.07,0,0,1-2.42,0c-0.63,0-1.24-.18-1.85-0.28s-1.26-.11-1.86-0.27-1.19-.4-1.78-0.61-1.15-.49-1.72-0.75-1.13-.52-1.69-0.82-1.14-.53-1.67-0.87-1-.71-1.54-1.08-1-.78-1.46-1.18-1-.79-1.44-1.21-1-1-1.56-1.58S139,48.53,138.46,48s-1-1.08-1.5-1.64a2.8,2.8,0,0,0-1.85-1.07,2.77,2.77,0,0,0-2,.77,2.66,2.66,0,0,0-1,1.82,2.81,2.81,0,0,0,.54,2.08l1.18,1.42c0.4,0.47.9,0.85,1.3,1.32s0.7,1,1.11,1.48,0.89,0.89,1.32,1.29l1.36,1.26c0.45,0.41.9,0.84,1.37,1.25s1,0.76,1.45,1.16,0.94,0.82,1.43,1.19,1.06,0.65,1.57,1,1,0.75,1.53,1.06,1.15,0.47,1.71.73a18.39,18.39,0,0,0,1.69.76c0.71,0.25,1.42.46,2.14,0.64s1.46,0.3,2.2.42,1.47,0.33,2.21.37c0.48,0,1,0,1.46,0" transform="translate(0 0)"/><path class="cls-4" d="M52.45,25.64a4.82,4.82,0,0,1-1-.05,2.57,2.57,0,0,1-.88-0.25,2.21,2.21,0,0,1-1.06-1.82,3.34,3.34,0,0,1,.49-2c0.34-.58.81-1.1,1.16-1.72S51.72,18.6,52,18s0.69-1.17,1-1.78,0.54-1.24.82-1.86,0.53-1.25.78-1.87a4.07,4.07,0,0,1,1.3-1.74A3.44,3.44,0,0,1,58,10.14a4.58,4.58,0,0,1,2,.48,4.34,4.34,0,0,1,1.61,1.22,3.15,3.15,0,0,1,.68,1.9,4.61,4.61,0,0,1-.4,1.74A10.87,10.87,0,0,1,61,17.06c-0.32.51-.66,1-1,1.49s-0.75,1-1,1.45-0.68.94-1,1.44-0.72.93-1.1,1.39a11.81,11.81,0,0,1-1.17,1.33,6.64,6.64,0,0,1-1.48,1,4.73,4.73,0,0,1-1.7.5" transform="translate(0 0)"/><path class="cls-4" d="M19.71,23.17a19.1,19.1,0,0,0-1.11-1.6,18.41,18.41,0,0,0-1.27-1.47c-0.46-.48-0.93-0.91-1.41-1.34s-1-.86-1.47-1.28-0.95-.86-1.46-1.3a2.32,2.32,0,0,1-1-1.81,2.84,2.84,0,0,1,.67-1.71,4.14,4.14,0,0,1,1.43-1.16,4.22,4.22,0,0,1,1.81-.42,4.63,4.63,0,0,1,2,.65,14.49,14.49,0,0,1,1.75,1.12c0.54,0.39,1.1.82,1.63,1.29s1,1,1.46,1.49,1,1,1.4,1.54a14.66,14.66,0,0,1,1.21,1.69,4.05,4.05,0,0,1,.66,1.93,3.58,3.58,0,0,1-.51,1.87A4.41,4.41,0,0,1,24.06,24a3.49,3.49,0,0,1-1.86.61,2.72,2.72,0,0,1-1.46-.38,3.19,3.19,0,0,1-1-1.11" transform="translate(0 0)"/><path class="cls-4" d="M39.09,23.66a2.8,2.8,0,0,1-1.59-.45,2.86,2.86,0,0,1-1-1.3,15.65,15.65,0,0,0-.9-1.82,17.88,17.88,0,0,0-1-1.74c-0.39-.56-0.77-1.12-1.2-1.64s-0.87-1-1.32-1.54-0.91-1-1.36-1.51a2.33,2.33,0,0,1-.59-1.49,2.42,2.42,0,0,1,.64-1.58,4,4,0,0,1,1.4-1,4.3,4.3,0,0,1,1.72-.34,3.54,3.54,0,0,1,1.76.55A10.45,10.45,0,0,1,37,10.89a17.76,17.76,0,0,1,1.38,1.25c0.42,0.45.78,1,1.18,1.44s0.79,1,1.14,1.47,0.67,1.08,1,1.59a16.11,16.11,0,0,1,.88,1.64,5.11,5.11,0,0,1,.52,1.78,3.17,3.17,0,0,1-.66,1.82A4.32,4.32,0,0,1,41,23.21a4,4,0,0,1-1.89.45" transform="translate(0 0)"/><path class="cls-4" d="M147.93,61.66a5.17,5.17,0,0,1,.1,1.21c0.05,0.56.06,1.24,0.09,2,0.13,2.58.27,5.23,0.15,7.8a18.51,18.51,0,0,1-.21,1.9,9.18,9.18,0,0,1-.41,1.87,5.37,5.37,0,0,1-.92,1.7,5.64,5.64,0,0,1-1.62,1,9.41,9.41,0,0,1-1.79.57,15.43,15.43,0,0,1-1.82.48c-0.58.09-1.21,0.07-1.89,0.14s-1.19.48-1.86,0.52-1.24-.11-1.91-0.09-1.24.09-1.9,0.1-1.38-.16-2-0.16c0.42,0.57,1.19,1,1.67,1.55a21.07,21.07,0,0,0,1.41,1.6c0.52,0.47,1.1.87,1.68,1.3s1.05,1,1.67,1.38c0.52-.27,1.22-0.43,1.86-0.77s1.08-.72,1.69-1,1-.84,1.63-1.17l1.74-1c0.58-.32,1.29-0.42,1.87-0.74l1.72-1c0.59-.35,1-0.91,1.57-1.25s1.28-.53,1.8-0.88a3.29,3.29,0,0,1,2-.7,3.91,3.91,0,0,1,1.83.24,4.08,4.08,0,0,1,1.1,1.47,2.9,2.9,0,0,1,.69,1.6,2.34,2.34,0,0,1-.86,1.66,5.68,5.68,0,0,1-1.37,1.42c-0.48.29-1.15,0.44-1.83,0.79-0.53.27-1.13,0.53-1.8,0.84s-1.14.55-1.79,0.84-1.14.59-1.79,0.88-1.22.44-1.86,0.72a19.32,19.32,0,0,0-1.84.95c0.55,0.26,1.25.42,1.85,0.65s1.46,0.51,2.21.74a40.09,40.09,0,0,0,3.9,1.08c1.51,0.31,3,.33,4.54.63a23,23,0,0,0,4,.34c1.21,0,2.38.07,3.59,0.12,1,0,1.93-.22,2.77.49a3.86,3.86,0,0,1,1.15,4,3.46,3.46,0,0,1-1.36,1.84,6.85,6.85,0,0,1-3.6.9c-0.62,0-1.27-.28-2-0.32s-1.29,0-2,0-1.26-.27-1.93-0.37-1.3,0-2-.16a33.53,33.53,0,0,1-3.76-.5q-2.12-.63-4.21-1.37c-0.71-.25-1.43-0.22-2.11-0.51-0.83-.36-1.69-0.58-2.54-0.9a20,20,0,0,1-2.3-1.19c-1.79-1-3.57-2-5.26-3.11-1.06-.67-2.16-1.31-3.2-2a20,20,0,0,1-1.6-1.43,35.39,35.39,0,0,1-2.78-2.81c-0.31-.34-0.6-0.69-0.89-1s-0.34-.6-0.59-0.87A16.52,16.52,0,0,1,125,81.24a0.79,0.79,0,0,0-.87-0.57c-0.48,0-1-.15-1.44-0.15s-1.25.14-1.88,0.14-1.25.11-1.88,0.11h-2.52c-0.47,0-1,0-1.45-.06-0.15,0-.3,0-0.45,0a2.23,2.23,0,0,0-.34,0,7.34,7.34,0,0,1-1,0s0,2.35,0,2.52c0,1,.05,2.11,0,3.16,0,0.28.26,2.52,0.17,2.54,0.6-.15,1.05-0.39,1.64-0.54s1.21-.25,1.79-0.4,1.25-.13,1.83-0.29,1.15-.47,1.73-0.63a11.62,11.62,0,0,1,2-.57,11.89,11.89,0,0,0,2.88-.74,4,4,0,0,1,1-.36,2.93,2.93,0,0,1,2.12,1.12,3.64,3.64,0,0,1,.68,2.24,3,3,0,0,1-.84,1.88,2.14,2.14,0,0,1-1.33.86,9.92,9.92,0,0,1-2,.66c-0.39.13-.37,0.14-0.76,0.25s-0.58.08-.87,0.17a16.32,16.32,0,0,0-1.81.52,11.72,11.72,0,0,1-1.57.59,14.79,14.79,0,0,0-2.12.7,12.41,12.41,0,0,1-1.79.46c-0.44.12-.84,0.45-1.29,0.55s-0.83.12-1.25,0.25-0.76.12-1.14,0.22l-1.84.5-1.84.49c-0.63.16-1.25,0.29-1.85,0.44s-1,.21-1.44.31-0.65.25-1,.3c-1.08.18-2.06,0.59-3.11,0.83-0.65.15-1.28,0.22-1.87,0.34s-1.27.35-1.85,0.47-1.28.35-1.85,0.46-1.36.15-1.89,0.23a15,15,0,0,1-1.89.2,4.16,4.16,0,0,1-1.82-.38,3.64,3.64,0,0,1-1.5-1.17,3.52,3.52,0,0,1-.26-1.86,2.73,2.73,0,0,1,2.3-3.36,22.13,22.13,0,0,1,2.83-.35c0.6-.09,1.19-0.32,1.8-0.42s1.23-.05,1.84-0.16l1.81-.34c0.33-.06.61-0.23,0.94-0.3l1.22-.24c0.48-.1,1-0.1,1.46-0.2s1.19-.3,1.8-0.43c0.18,0,2.21-.39,2.21-0.37-0.21-3-.23-6.07-0.27-9.1,0-1.79,0-3.59,0-5.38,0-.33,0-0.66,0-1,0.08-1.27,0-2.49,0-3.75,0-.92.16-1.83,0.12-2.74-0.09-2.3-.46-4.76.37-7,0.56-.65.88-0.33,1.54-0.88s0.74-.45,1.4-1,0.67-.54,1.32-1.09,0.36-.93,1.07-1.41a14.45,14.45,0,0,1,1.86-.42,15.61,15.61,0,0,1,1.86.08c0.94,0,.94.17,1.88,0.17a30.06,30.06,0,0,1,3.28.08c0.73,0.08,1.47,0,2.16,0a0.49,0.49,0,0,0,.51-0.17,0.52,0.52,0,0,0,0-.24c0-.85-0.09-1.69-0.09-2.55a2.11,2.11,0,0,1,.41-1.54,3.6,3.6,0,0,1,1.33-1.13,5.42,5.42,0,0,1,1.75-.2,5.19,5.19,0,0,1,1.65.49,3.15,3.15,0,0,1,1.41.86,2.42,2.42,0,0,1,.83,1.52c0,0.67-.39,2.1.13,2.67a1.16,1.16,0,0,0,1,.06c0.74-.06,1.48,0,2.21,0s1.49,0,2.24,0,1.3,0.06,1.93.09,1.42-.2,2-0.13a18,18,0,0,1,2.09.26,10.9,10.9,0,0,1,1.27,1.18c0.68,0.51.72,0.46,1.4,1a8.86,8.86,0,0,0,1.34,1,4.8,4.8,0,0,1,1.47.94m-6.75,5.1a1,1,0,0,0,0-.26,11.21,11.21,0,0,1-.14-1.33,4.25,4.25,0,0,0-.71-2.25L140,62.57a1.21,1.21,0,0,0-.28-0.28,1,1,0,0,0-.26-0.11,3.27,3.27,0,0,0-.93-0.14c-0.39,0-.76-0.15-1.15-0.15-0.71,0-1.41.21-2.12,0.2L133.23,62c-0.68,0-1.37-.07-2.08-0.07s-1.38,0-2.08,0-1.33.07-2,.07-1.34-.17-2-0.17-1.35-.11-2-0.1-1.36.11-2,.12-1.37-.07-2,0c-0.8,0-1.6.08-2.4,0.14a8.79,8.79,0,0,0-1.8.47,2,2,0,0,0-.48.18l-0.19.13a3.18,3.18,0,0,0-1,2.35,5.63,5.63,0,0,0-.13,1.61c0.07,0.39.4,0.23,0.73,0.23h3.49c0.57,0,1.21,0,1.77,0s1,0,1.5,0L122,67h2.18l1.11,0c0.67,0,1.26,0,1.93,0l2.33,0h0.77c0.61,0,1.36,0,2,0s1.6,0,2.36,0H138l0.83,0h1.05a5.14,5.14,0,0,0,1.1-.09,0.21,0.21,0,0,0,.18-0.12M113.6,71.22h-0.26a0.1,0.1,0,0,0-.06,0,0.11,0.11,0,0,0,0,.07c-0.06.72,0,1.42-.07,2.14a10.36,10.36,0,0,0,.13,2.66c0,0.07,2,0,2.21,0,0.83,0,1.67.07,2.5,0.1s1.83,0,2.74,0c0.61,0,1.22,0,1.83,0s1.38,0,2,0,1.38-.07,2-0.08,1.39,0.17,2,.17,1.4,0.1,2,.1,1.41-.1,2-0.12,1.42,0.07,2,0c0.22,0,.42-0.08.64-0.11,1-.11,2-0.4,3.06-0.48a2.7,2.7,0,0,0,2-.95,4.3,4.3,0,0,0,.79-2.7,1,1,0,0,0-.14-0.65,1.63,1.63,0,0,0-.92-0.1c-0.51,0-1-.07-1.52-0.08-1.07,0-2.15,0-3.21,0-0.41,0-.7.06-1.1,0s-0.73,0-1.1,0c-1,0-1,.05-2,0.05s-1.86.06-2.81,0-2.09,0-3.14,0h-6l-2,0c-0.68,0-1.31,0-2,0s-1.2-.1-1.8-0.1" transform="translate(0 0)"/><path class="cls-4" d="M4.85,138.76c-0.72,1.61-3.28.91-2.26-1.13A74.58,74.58,0,0,0,6.8,127.17a7,7,0,0,1-3.52-.34c-1.23-.53-1-2.72.82-2.07a6.45,6.45,0,0,0,3.32.14,10.49,10.49,0,0,0,0-2.6c-0.1-1.37,2.17-1.45,2.41-.12a7.36,7.36,0,0,1,0,1.93c0.34-.17.63-0.34,0.92-0.51a1.15,1.15,0,1,1,.94,2.07,15.67,15.67,0,0,1-2.43,1,94.76,94.76,0,0,1-4.41,12.12m5.85-1.09c-1-1.16.46-3.06,1.71-1.78s2.7,1.13,5.52.89a1.25,1.25,0,1,1,.31,2.48c-3.49.7-6.48-.41-7.54-1.59m2.72-8.41c-1.25.46-2-1.52-.41-2.07a8.94,8.94,0,0,1,5.78.12c1.61,0.58,1,2.7-.56,2.19a8.47,8.47,0,0,0-4.82-.24" transform="translate(0 0)"/><path class="cls-4" d="M35,126.84a19,19,0,0,1-4.87,9.76c-1.86,1.71-3.88.77-4.94-1.3-1.52-3,.1-7.47,3.33-9.71A10.07,10.07,0,0,1,38.88,125c3.74,2.24,4.34,6.67,2.24,10.12a10.08,10.08,0,0,1-5.88,4c-2.12.55-2.87-1.88-.8-2.36a7.47,7.47,0,0,0,4.48-2.7,5.2,5.2,0,0,0-1.33-7.37,6.25,6.25,0,0,0-3-1,1.21,1.21,0,0,1,.34,1.11m-5.35.46c-2.24,1.73-3.45,4.94-2.43,6.79,0.36,0.7,1,1.06,1.59.53,1.81-1.59,3.49-5.42,3.73-8a1.7,1.7,0,0,1,.22-0.75,8,8,0,0,0-3.11,1.45" transform="translate(0 0)"/><path class="cls-4" d="M49.47,135.05c-0.1-2.53.17-4.58,0.29-7.13,0.07-1.56.24-3.93,0.19-5.42,0-1.78,2.67-1.64,2.63,0s-0.22,3.81-.34,5.42A66.82,66.82,0,0,0,51.8,135c0.14,3.52,4.43,3.28,8.63,0a1.34,1.34,0,1,1,1.66,2.1c-4.7,3.83-12.41,4.53-12.62-2" transform="translate(0 0)"/><path class="cls-4" d="M74.79,139.75a44.38,44.38,0,0,0-5.11-7.83c-1.59-1.86-1.59-3.57.29-5.52A59.43,59.43,0,0,0,74.91,121a1.35,1.35,0,1,1,2.14,1.64c-1.21,1.47-3.76,3.56-5.25,5.06-1,1-1.08,1.76-.29,2.75,2.41,3,4.46,5.28,5.64,7.85,0.75,1.61-1.59,3-2.36,1.49" transform="translate(0 0)"/><path class="cls-4" d="M103.49,127.68c-1.47,0-7.16-4.26-8.31-5.3a1,1,0,0,0-.63-0.31,1,1,0,0,0-.63.34A46,46,0,0,1,86.36,128a1.48,1.48,0,0,1-.79.22A1.26,1.26,0,0,1,84.24,127a1.09,1.09,0,0,1,.72-1,33.46,33.46,0,0,0,7.52-5.32,2.72,2.72,0,0,1,1.93-.89,3.26,3.26,0,0,1,2.1.89,39.34,39.34,0,0,0,7.64,4.7,1.12,1.12,0,0,1,.72,1,1.3,1.3,0,0,1-1.37,1.23M91,134.23v3.32c0.94-.22,1.81-0.43,2.53-0.67a1.64,1.64,0,0,1,.46-0.07,1,1,0,0,1,1.11.94,1.16,1.16,0,0,1-1,1,56.74,56.74,0,0,1-8.55,2,1.08,1.08,0,1,1-.19-2.14c1.16-.17,2.31-0.39,3.42-0.6,0-3.32,0-7.52,0-9.78a2.42,2.42,0,0,1,2.51-2.58c0.7,0,1.35-.07,2-0.07V124a1,1,0,0,1,1.13-.87,1,1,0,0,1,1.13.87v1.59c2.55,0,4.43.1,4.63,2,0,0.7.07,1.74,0.07,2.68,0,3.47-.17,4-4.5,4A7.16,7.16,0,0,0,97,135.75c1-.41,2.84-1.13,4-1.74a1.3,1.3,0,0,1,.63-0.17,1.18,1.18,0,0,1,1.23,1.06c0,0.63-.31.92-4,2.19a13.13,13.13,0,0,0,5.37,1.4,1,1,0,0,1,1,1,1.24,1.24,0,0,1-1.33,1.23c-0.1,0-7.69-.24-10.29-6.51H91Zm7.18-5.06c0-1-.07-1.61-1-1.64-0.58,0-1.16,0-1.78,0-1,0-2.1,0-3.37,0a1,1,0,0,0-1,1.16c0,0.15,0,.31,0,0.48Zm-7.16,1.71v1.57c0.87,0,1.64,0,2.34,0,1.4,0,2.58,0,3.9-.1,0.43,0,.94-0.12.94-1.49H91.05Z" transform="translate(0 0)"/><path class="cls-4" d="M116.13,129.95c-1.2-.89-1.83-0.84-2.84,0a32,32,0,0,1-3.57,2.7c-1.59.94-3.32-1.25-1.4-2.27,0.6-.31,2.43-1.42,3.66-2.29a4.1,4.1,0,0,1,5.44.07c3.08,2.22,6.43,5.13,9.78,6.87,1.57,0.79.29,3.32-1.57,2.41-2.92-1.45-6.72-5.37-9.52-7.44m3.52-2.72c-1.28-.55-0.31-2.07.87-1.64a8,8,0,0,1,2.53,1.54c1,1.06-.48,2.58-1.33,1.59a9.29,9.29,0,0,0-2.07-1.49M122,125c-1.3-.51-0.36-2,0.82-1.66a8.1,8.1,0,0,1,2.58,1.44c1,1-.41,2.6-1.28,1.64A8.56,8.56,0,0,0,122,125" transform="translate(0 0)"/><path class="cls-4" d="M142.9,136.69c1.76-1.57,1.69-3.86.31-4.77s-3.85-1-6.29.41a5.31,5.31,0,0,0-2,1.81c-0.87,1.28-3.28-.14-1.78-1.61a85.43,85.43,0,0,0,7.28-7.78c0.26-.34,0-0.24-0.17-0.15a19.26,19.26,0,0,1-4,1.23c-1.9.41-2.26-2-.63-2.17a37.13,37.13,0,0,0,5.3-1.18c1.93-.55,3.52,1.16,2.31,2.51-0.77.87-1.74,1.81-2.7,2.7s-1.93,1.76-2.79,2.6a7.38,7.38,0,0,1,6.77-.07c3.47,2.07,2.34,6.31-.19,8.14s-6.14,1.81-8,.6c-2.55-1.66-1.42-4.65,1.42-4.75a3.42,3.42,0,0,1,3.81,3.25,3.25,3.25,0,0,0,1.4-.77m-5.13-.72a0.77,0.77,0,0,0-.34,1.49,4.32,4.32,0,0,0,2,.36,1.6,1.6,0,0,0-1.69-1.85" transform="translate(0 0)"/><path class="cls-4" d="M155.08,140.5a9.18,9.18,0,0,0-3-2.53,1.05,1.05,0,0,1,.48-2c0.84,0,4.7,2.12,4.7,3.76A1.33,1.33,0,0,1,156,141a1.1,1.1,0,0,1-.92-0.53" transform="translate(0 0)"/><path class="cls-4" d="M172.24,128.62c-1.93.1-1.78-2.1-.17-2.17,1.37,0,3.06-.1,4.79-0.12a24.13,24.13,0,0,0,.19-3.18,1.27,1.27,0,1,1,2.53.1,20.35,20.35,0,0,1-.24,3.06c1,0,1.93,0,2.77,0,1.88,0,3.23,1,3.18,3-0.07,2.43-.53,5.93-1.54,7.73a4.62,4.62,0,0,1-7.11,1.45,1.25,1.25,0,1,1,1.54-2,2.17,2.17,0,0,0,3.37-.67c0.94-1.4,1.3-4.72,1.32-6a1.3,1.3,0,0,0-1.32-1.42c-0.75,0-1.66,0-2.63,0-1,4.39-3.33,9.15-7.61,11.49-1.54.84-3.06-1.16-1.13-2.19,3.3-1.78,5.32-5.44,6.26-9.28-1.52,0-3,.1-4.22.14" transform="translate(0 0)"/><path class="cls-4" d="M195.86,139.7c-2,.6-2.87-1.78-0.94-2.29,4.75-1.28,7.81-4.19,8.89-7.25,0.24-.65.12-1-0.79-1.06-2.46,0-6.94,0-9.52.12a1.15,1.15,0,1,1-.07-2.27c3.11-.07,7.16-0.1,10.43-0.07,2.41,0,3.59,1.37,2.6,3.73-1.69,4-4.63,7.25-10.6,9.08m7.66-15c-2.27,0-5.59.07-8.19,0-1.59,0-1.69-2.27.17-2.24,2.31,0,5.69,0,8.12,0a1.18,1.18,0,0,1,1.3,1.11,1.19,1.19,0,0,1-1.4,1.13" transform="translate(0 0)"/><path class="cls-4" d="M214.6,140c-1.93.75-2.87-1.52-1-2.12a18.76,18.76,0,0,0,8-5.49,10.57,10.57,0,0,0-2.53-1.16c-1.35-.36-0.72-2.41,1-1.93a15.88,15.88,0,0,1,3,1.25,23.77,23.77,0,0,0,2-3.44c0.46-1,.36-1.11-0.26-1.09-1,0-3.45.27-4.26,0.36a31.36,31.36,0,0,1-5.52,5.88c-1.61,1.11-3-1-1.4-2a21.88,21.88,0,0,0,6.43-7.59c0.84-2,3.32-.55,2.48.84-0.12.19-.26,0.41-0.43,0.65,1.18-.1,2.51-0.22,3.66-0.26,2.48-.07,2.91,1.66,2,3.37s-1.78,3.11-2.72,4.48a9.07,9.07,0,0,1,1.73,1.52,1.3,1.3,0,0,1,0,1.83A1.16,1.16,0,0,1,225,135a13.67,13.67,0,0,0-1.45-1.3,20.72,20.72,0,0,1-9,6.26m12.7-17c-1.23-.51-0.26-2,0.84-1.54a7.46,7.46,0,0,1,2.39,1.45c0.94,1-.46,2.48-1.25,1.54a8.53,8.53,0,0,0-2-1.45m2.17-2.07c-1.23-.48-0.36-1.93.77-1.56a7.68,7.68,0,0,1,2.43,1.37c1,1-.39,2.48-1.21,1.57a9,9,0,0,0-2-1.37" transform="translate(0 0)"/><path class="cls-4" d="M236.25,139.42c-2.31-1.25-2.36-4,.41-5a9.54,9.54,0,0,1,4.79-.19c0-.53,0-1.06,0-1.49-0.29-4.82-.56-7.11-0.53-10.55,0-1.71,2.65-1.59,2.55,0-0.07,1.18-.1,2.29-0.07,3.47,0.31,0,.65,0,0.89,0a5.39,5.39,0,0,0,1.78-.56c1.52-.87,3.08,1.23,1.44,2.15a5.37,5.37,0,0,1-1.52.51c-0.53.1-1.06,0.14-1.47,0.19a5.12,5.12,0,0,1-1.06,0c0,1.35.12,2.84,0.17,4.6,0,0.58,0,1.45,0,2.29a10.21,10.21,0,0,1,3.28,1.81c1.71,1.47,0,3.93-1.69,2.17a9.43,9.43,0,0,0-2-1.52,5,5,0,0,1-7,2.15m1.09-3.18a0.69,0.69,0,0,0,0,1.33c1.3,0.7,3.32.29,3.83-1.23a6.26,6.26,0,0,0-3.81-.1" transform="translate(0 0)"/><path class="cls-4" d="M269,129.58c3,2.63,1.71,7.44-3,9.4a16.5,16.5,0,0,1-4.75,1.4c-1.93.27-2.53-2.14-.46-2.43a13.14,13.14,0,0,0,4.31-1.23c2.84-1.47,3.59-3.74,2.46-5.2-2-2.65-7.4-.94-10,2.1-0.84,1-.39.53-1,1.25-1.18,1.45-3.69.43-2.24-1.47,0.48-.63.63-0.51,1.54-1.57,1.13-1.3,1.35-1.49,2.58-2.89s3-3.61,3.85-4.84c0.19-.26,0-0.41-0.22-0.29a12.89,12.89,0,0,1-3.61,1.37,1.25,1.25,0,1,1-.43-2.41,25.83,25.83,0,0,0,4.07-1c1.32-.48,1.44-0.53,2.12-0.41,1.3,0.22,2.26,1.49,1,2.77-1.61,1.66-3.74,4-5.23,5.54,2.48-1.93,6.77-2.1,9-.12" transform="translate(0 0)"/><path class="cls-4" d="M277,136.67a1.27,1.27,0,0,1,2-1.57c2,2.1,6,1.93,9.59.89,2-.55,2.58,2,0.63,2.65-4.77,1.49-10.55.36-12.22-2m2.7-9.83c-1.9.36-2.22-2.19-.07-2.51a25.61,25.61,0,0,1,7.69.07c2,0.43,1.49,2.92-.46,2.51a18.33,18.33,0,0,0-7.16-.07" transform="translate(0 0)"/><path class="cls-4" d="M296.77,136.23a27.15,27.15,0,0,0,2.43-3.32,1.16,1.16,0,0,1,2.17.82,18.86,18.86,0,0,1-2.7,4c-1.47,1.73-3.42.1-1.9-1.54m5.35,2.14a1.07,1.07,0,1,1,.92-1.93c4.07,1.66,4.67-1.18,3.3-3.11-0.65-.91-2-2.17-2.58-2.77-1.35-1.57.67-2.51,1.57-1.59a35.75,35.75,0,0,1,3,3.32c3.28,4.46-.92,8.67-6.22,6.07m5.08-10.62c-1.3.31-2-1.13-.94-1.71,0.51-.27.58-0.46,0.36-0.8a18.92,18.92,0,0,0-2-2.1c-0.87-1.16.77-2.22,1.76-1.23s3.32,2.48,3.4,3.88a1.46,1.46,0,0,1-1.42,1.61c-0.31,0-.77.24-1.16,0.34m6.24,8.87a7.3,7.3,0,0,0-2.67-3.54c-1.23-.84,0-2.41,1.35-1.61a8.39,8.39,0,0,1,3.59,3.85c0.82,1.9-1.69,3-2.27,1.3m-0.63-7.3a8.33,8.33,0,0,0-1.69-1.76c-1.11-.72.07-2,1.11-1.37a7.87,7.87,0,0,1,2.1,1.83c0.75,1.16-.89,2.36-1.52,1.3m2.89-1.47a8.41,8.41,0,0,0-1.76-1.69c-1.13-.67,0-2,1-1.42a7.79,7.79,0,0,1,2.17,1.76c0.8,1.13-.8,2.39-1.45,1.35" transform="translate(0 0)"/><path class="cls-4" d="M267.42,5.19A5.09,5.09,0,1,1,262.33.1a5.09,5.09,0,0,1,5.09,5.09" transform="translate(0 0)"/><path class="cls-4" d="M267.42,5.19A5.09,5.09,0,1,1,262.33.1a5.09,5.09,0,0,1,5.09,5.09" transform="translate(0 0)"/><path class="cls-4" d="M311.74,1.49a5.09,5.09,0,1,1-7.2,0,5.09,5.09,0,0,1,7.2,0" transform="translate(0 0)"/><path class="cls-4" d="M276.4,59.53c0.28-.47.7-0.82,1-1.28s0.78-1.15,1.12-1.76a14.66,14.66,0,0,1,2.89-3.07c0.46-.46.94-0.91,1.46-1.34s1-.87,1.54-1.25,1.07-.77,1.66-1.09,1.2-.54,1.82-0.81,1.19-.55,1.84-0.76a19.26,19.26,0,0,1,3.62-1,15.59,15.59,0,0,1,4.09.17,9,9,0,0,1,1.74.55,8.2,8.2,0,0,1,1.62.8,8.07,8.07,0,0,1,1.55,1,6.21,6.21,0,0,1,1,1.64,6.59,6.59,0,0,1,.4,1.84,6.34,6.34,0,0,1,.08,1.85,6.2,6.2,0,0,1-.23,1.9,12.38,12.38,0,0,1-1,1.8,12.1,12.1,0,0,1-1.37,1.52,13.36,13.36,0,0,1-1.64,1.19A15.65,15.65,0,0,1,298,62.6a19.53,19.53,0,0,1-1.83.87c-0.61.27-1.25,0.49-1.89,0.71-0.95.33-2,.42-2.9,0.75a21.5,21.5,0,0,1-3,.79c-1.32.27-2.61,0.48-3.93,0.76a34.74,34.74,0,0,1-4.08.64c-0.7.06-1.39,0.1-2.07,0.13s-1.41-.07-2.08-0.06-1.3,0-1.95,0-1.3,0-1.95,0-1.3,0-1.95-.07-1.31,0-2-.06c-1.95-.19-3.89-0.69-5.85-0.84a18.11,18.11,0,0,1-1.88-.31c-0.64-.12-1.3-0.18-1.93-0.3s-1.42-.49-2.16-0.65c-0.54-.12-1.11-0.11-1.64-0.24-1.26-.3-2.55-0.54-3.8-0.89-0.64-.18-1.25-0.43-1.86-0.61a24.35,24.35,0,0,1-2.69-.92c-0.67-.28-1.42-0.47-2.12-0.74s-1.33-.69-2-0.94a7.77,7.77,0,0,1-2.25-.84c-0.94-.68-1.76-1.2-2-2.45a3.84,3.84,0,0,1,.31-1.95,4,4,0,0,1,.9-1.78,2.74,2.74,0,0,1,2.1-.83,16.48,16.48,0,0,1,2.55.43,23.24,23.24,0,0,1,2.33,1.05c0.8,0.29.78,0.34,1.59,0.62,0.61,0.2,1.25.29,1.86,0.47s1.21,0.49,1.86.62,1.47,0.41,2.2.61c1.45,0.4,2.92.75,4.39,1.09,1,0.23,2.08.43,3.1,0.64a21.51,21.51,0,0,0,3.11.77c1.2,0.07,2.4.18,3.61,0.26s2.28,0.28,3.43.36a17,17,0,0,0,2.65.13c0.64-.06,1.25-0.24,1.9-0.25,0.13,0,.15,0,0.28,0" transform="translate(0 0)"/></g></svg>