<svg id="レイヤー_1" data-name="レイヤー 1" xmlns="http://www.w3.org/2000/svg" viewBox="0 0 670 152"><defs><style>.cls-1{font-size:101.69px;letter-spacing:0em;}.cls-1,.cls-22,.cls-7{fill:#221815;}.cls-1,.cls-7{font-family:TsukuARdGothic-Bold-83pv-RKSJ-H, Tsukushi A Round Gothic;font-weight:700;}.cls-2{letter-spacing:0em;}.cls-3{letter-spacing:0.02em;}.cls-4{letter-spacing:0.06em;}.cls-5{fill:#e83428;}.cls-6{fill:#fff;}.cls-7{font-size:28.52px;letter-spacing:0.02em;}.cls-8{letter-spacing:0.03em;}.cls-9{letter-spacing:0.03em;}.cls-10{letter-spacing:0em;}.cls-11{letter-spacing:-0.02em;}.cls-12{letter-spacing:-0.01em;}.cls-13{letter-spacing:0.02em;}.cls-14{letter-spacing:0.01em;}.cls-15{letter-spacing:-0.02em;}.cls-16{letter-spacing:-0.13em;}.cls-17{letter-spacing:-0.16em;}.cls-18{letter-spacing:-0.03em;}.cls-19{letter-spacing:-0.16em;}.cls-20{letter-spacing:0.13em;}.cls-21,.cls-22{font-size:176.11px;font-family:TsukuARdGothic-Regular-83pv-RKSJ-H, Tsukushi A Round Gothic;letter-spacing:0.06em;}.cls-21{fill:none;stroke:#221815;stroke-width:4px;}</style></defs><title>logo-new</title><text class="cls-1" transform="translate(158.4 127.91)">栄<tspan class="cls-2" x="101.52" y="0">養</tspan><tspan class="cls-3" x="203.38" y="0">習</tspan><tspan class="cls-4" x="306.91" y="0">慣</tspan></text><circle class="cls-5" cx="75.46" cy="77.59" r="73.78"/><path class="cls-6" d="M53.38,97.16c-4.26,5.24-11.09,12-14.2,12a3.93,3.93,0,0,1-4-3.73,3.72,3.72,0,0,1,2.13-3.19c4.7-2.66,10.92-8.08,15.53-14.11l-11.54.27h-.09a3.45,3.45,0,0,1-3.64-3.46,3.35,3.35,0,0,1,3.64-3.46h.09l12.16.09-.09-3.9v-.09a3.64,3.64,0,0,1,7.28,0v.09l-.09,3.9,11-.09h.09A3.33,3.33,0,0,1,74.94,85a3.18,3.18,0,0,1-3.28,3.37h-.09l-11.09-.27.09,3.28a3.29,3.29,0,0,1,1.69-.62c1.42,0,7.45,2.93,9.67,4.79a3.73,3.73,0,0,1,1.42,2.93,4.26,4.26,0,0,1-3.9,4.26,3.46,3.46,0,0,1-2.31-1,32.92,32.92,0,0,0-6.57-4.88l.18,16.6c0,2.22-1.86,3.28-3.73,3.28s-3.73-1.06-3.73-3.37ZM39.89,73.64a3.42,3.42,0,1,1,0-6.83H57.55A62.58,62.58,0,0,0,61.28,57a3.32,3.32,0,0,1,3.28-2.75c2.13,0,4.35,1.69,4.35,3.9,0,1.24-1.33,4-3.9,8.7h8.16a3.42,3.42,0,1,1,0,6.83ZM95.44,72.4h-9c-.35,14.29-2,29.82-9.94,40.64a5.25,5.25,0,0,1-4.26,2.31c-2.4,0-4.62-1.77-4.62-3.9a3.5,3.5,0,0,1,1-2.4c8.43-9.94,10-24,10-37.63,0-4.44-.18-8.79-.36-13V57.4c0-5.95,2.22-8.52,8.16-10.29a163.47,163.47,0,0,0,15.35-6.21,5.39,5.39,0,0,1,2.22-.53,4.59,4.59,0,0,1,4.53,4.44,4.2,4.2,0,0,1-2.84,3.9c-2.93,1.33-12.87,4.53-15.26,5.24-2.93.89-3.9,2.31-3.9,5v6L112,64.77a3.88,3.88,0,1,1,0,7.72h-8.43Z"/><path class="cls-6" d="M42.38,53.5c-2.57,0-3.82-1.69-3.82-3.37s1.24-3.46,3.82-3.46H71.13a3.42,3.42,0,1,1,0,6.83Z"/><path class="cls-6" d="M98.62,69.62a4.91,4.91,0,0,1,2.31.18,3.89,3.89,0,0,1,2.59,3.71l.09,39.62c0,2.48-2,3.73-4.17,3.73s-4.08-1.24-4.08-3.73l.09-39.64A3.9,3.9,0,0,1,98.62,69.62Z"/><path class="cls-6" d="M48.85,66.81A4.3,4.3,0,0,1,47.79,65,19.87,19.87,0,0,0,45,59.62a2.91,2.91,0,0,1-.71-1.86c0-1.77,1.86-3.19,3.82-3.19C52,54.56,55,62.1,55,63.61a3.79,3.79,0,0,1-1.6,3.19A4.34,4.34,0,0,1,48.85,66.81Z"/><path class="cls-6" d="M69.07,102.77A5,5,0,0,1,67,101.64a23,23,0,0,0-5.86-3.74,3.37,3.37,0,0,1-1.79-1.43,3.9,3.9,0,0,1,1.46-5.34c3.07-1.66,8.48,2.5,9.94,3.44s3.23,2.71,2.64,5.15A4.23,4.23,0,0,1,69.07,102.77Z"/><circle class="cls-6" cx="57.06" cy="43.29" r="4.96"/><text class="cls-7" transform="translate(170.73 24.04)">あ<tspan class="cls-8" x="29.12" y="0">な</tspan><tspan class="cls-9" x="58.41" y="0">た</tspan><tspan class="cls-10" x="87.76" y="0">の</tspan><tspan class="cls-11" x="116.3" y="0">カ</tspan><tspan class="cls-12" x="144.16" y="0">ラ</tspan><tspan class="cls-13" x="172.46" y="0">ダ</tspan><tspan class="cls-14" x="201.7" y="0">を</tspan><tspan class="cls-15" x="230.49" y="0">正</tspan><tspan class="cls-16" x="258.41" y="0">し</tspan><tspan class="cls-17" x="283.13" y="0">く</tspan><tspan class="cls-18" x="307.11" y="0">つ</tspan><tspan class="cls-19" x="334.82" y="0">く</tspan><tspan class="cls-20" x="358.67" y="0">る</tspan></text><text class="cls-21" transform="translate(573.51 133.77)">8</text><text class="cls-22" transform="translate(573.51 133.77)">8</text></svg>