<svg id="レイヤー_1" data-name="レイヤー 1" xmlns="http://www.w3.org/2000/svg" width="317.37" height="141.03" viewBox="0 0 317.37 141.03"><defs><style>.cls-1{fill:none}.cls-2{clip-path:url(#clip-path)}.cls-3{fill:#f5f5f5}.cls-4{fill:#e5e5e5}</style><clipPath id="clip-path"><path class="cls-1" d="M0 0h317.37v141.03H0z"/></clipPath></defs><title>logo-gray</title><g class="cls-2"><path class="cls-3" d="M313.32 58.27c0 13.72-2.37 23.26-7 29.36s-11.66 8.78-20.91 8.78-16.23-2.68-20.91-8.78-7-15.64-7-29.36.31-25.52 4-31.73 10.64-6.83 24-6.83 20.35.62 24 6.83 4 18 4 31.73"/><path class="cls-4" d="M285.37 100.1a45 45 0 0 1-4.73-.22 49.79 49.79 0 0 1-6.33-1.14 20.42 20.42 0 0 1-5.31-2.28 27.61 27.61 0 0 1-8.43-7.82 20.51 20.51 0 0 1-1.73-2.85c-.57-1.29-1.06-2.61-1.55-3.93s-.75-2.53-1.25-3.78a21.28 21.28 0 0 1-.88-3.85 56 56 0 0 1-1.16-9.17c-.11-3.93 0-7.84.05-11.76v-3.42l.09-1.71v-1.7c-.06-1.77.19-3.64.3-5.41q.19-3 .67-5.94c.1-.59.05-1.17.14-1.75a17.59 17.59 0 0 1 .66-2.31 50.27 50.27 0 0 1 2.46-6.15l.89-1.4a13.11 13.11 0 0 0 1-1.16 7.25 7.25 0 0 1 1.17-1.28c.43-.38.93-.67 1.32-1.08l1.41-.89c.8-.25 1.57-.52 2.34-.83a23.78 23.78 0 0 1 4-1.19c1.1-.23 2.19-.3 3.3-.48h3.32c1.49-.07 3-.09 4.46-.1h2.23c.54 0 1.06-.07 1.6-.08l2.66-.06c1.19 0 2.35-.06 3.54 0 1.81.07 3.61.27 5.41.42l1.6.22 1.63.31 1.63.29a17.7 17.7 0 0 1 2.81.73c.18.07.33.2.52.26a6.86 6.86 0 0 1 1.28.77l1.43.8 1.26 1.05 1.17 1.14 1.16 1.18 1 1.33.61 1.61.7 1.53.59 1.6.49 1.63.23 1.69.43 1.65.25 1.68L316 38l.31 1.68.1 1.7.21 1.7v1.71a19.1 19.1 0 0 0 .13 2c.05.5 0 1 0 1.46l.12 1.71-.11 1.71.05 1.71v3.33a29.78 29.78 0 0 1-.11 5l.08 1.66-.11 1.63a12.74 12.74 0 0 1-.11 1.86c-.36 1.56-.11 3.16-.47 4.73l-.36 1.62-.37 1.61-.27 1.63-.5 1.58-.5 1.57c-.38 1.34-.94 2.62-1.27 4a16.71 16.71 0 0 1-2.54 4.8 23.8 23.8 0 0 1-8.22 7.48 30 30 0 0 1-6.95 3.1 40.12 40.12 0 0 1-9.75 1.12m0-76.8c-.23 0-.45.06-.69.07-.92 0-1.84.05-2.77.12a42.55 42.55 0 0 0-6.94.12 7.58 7.58 0 0 0-1.71.14l-1.65.58-1.71.25-1.59.65-1.48.85-1.37 1-1 1.41-.73 1.51c-.19.37-.38.75-.55 1.13s-.23 1-.42 1.5a28.39 28.39 0 0 0-1.42 4.79 20.93 20.93 0 0 0-.08 2.76c0 1.56-.2 3.15-.16 4.71A30.31 30.31 0 0 1 261 50v1.69l-.07 1.69c-.09 2.25 0 4.51.06 6.76.07 1.47.05 2.95.07 4.43a49.45 49.45 0 0 0 1.06 8.88l.4 1.63A43.43 43.43 0 0 0 264.9 82a10.08 10.08 0 0 0 1.48 2.64 28.5 28.5 0 0 0 3.23 3.47 30.47 30.47 0 0 0 4 2.78 9.94 9.94 0 0 0 1.82.57c1.14.32 2.26.85 3.48 1.07 1 .19 2.06.3 3.09.46l1.69.19a19.66 19.66 0 0 0 3.77 0c1.54-.18 3.1-.18 4.66-.48a22.38 22.38 0 0 0 4.76-1.95 18.84 18.84 0 0 0 9.38-9.6 28.53 28.53 0 0 0 1.58-4.49 43.34 43.34 0 0 0 1-4.91q.24-1.65.5-3.31l.12-1.67c0-.58.25-1.11.29-1.71a39.43 39.43 0 0 0 .26-4.37c-.11-2.07.1-4.08 0-6.15s-.28-4.21-.38-6.26l-.08-1.69.09-1.7-.21-1.68-.11-1.69-.09-1.69-.23-1.65-.19-1.68-.39-1.65-.27-1.67c-.26-.64-.34-1.29-.63-1.92a35.44 35.44 0 0 0-1.9-3.8 6.66 6.66 0 0 0-1.6-1.52l-1.51-.84a20.61 20.61 0 0 0-2.81-.87 11.16 11.16 0 0 0-3.85-.57c-1.18 0-2.36-.16-3.54-.14a19.19 19.19 0 0 1-3.45-.25c-.7-.11-1.6 0-2.35 0a5.62 5.62 0 0 0-1.13.07m-68.76 63.77a3.7 3.7 0 0 1-3.8-4.21 4 4 0 0 1 .58-1.9 4.07 4.07 0 0 1 1.59-1.3 10.08 10.08 0 0 0 1.77-1 12.13 12.13 0 0 0 1.6-1.27 14.19 14.19 0 0 0 1.37-1.53 11.6 11.6 0 0 0 2.27-4.17c.4-1.51.54-3.15.79-4.64a19.63 19.63 0 0 0 0-3.23 11.51 11.51 0 0 0-.4-3.38A11.26 11.26 0 0 1 222 59a13.07 13.07 0 0 0-1.25-3.69 12.47 12.47 0 0 0-1.54-2.17 15.18 15.18 0 0 0-1.31-1.32 14.79 14.79 0 0 0-1.32-1.34 14.61 14.61 0 0 0-1.59-1 15.84 15.84 0 0 0-1.77-.63 16.32 16.32 0 0 0-1.73-.7c-.59-.16-1.21-.24-1.84-.35s-1.22-.12-1.86-.17-1.22-.12-1.86-.12a18.09 18.09 0 0 0-2 .22 15.78 15.78 0 0 0-2 .26 14.57 14.57 0 0 0-2 .53 14.93 14.93 0 0 0-1.83.95 17.88 17.88 0 0 0-1.61 1.27c-.53.4-1.1.76-1.63 1.23a14.08 14.08 0 0 0-1.31 1.3 17.75 17.75 0 0 0-2.91 4 22.93 22.93 0 0 0-1.89 9.14 20.67 20.67 0 0 0 0 2.7 22.62 22.62 0 0 0 .48 3.11c.28 1.27 1.16 3.58 2.49 4.08 1.77.66 3.31-.64 4.41-1.86a9.51 9.51 0 0 0 1.26-1.73 20 20 0 0 0 .85-2c.29-.69.51-1.39.73-2s.3-1.32.49-2 .53-1.25.69-1.91.19-1.34.33-2 .34-1.31.45-2 .25-1.33.35-2a3.75 3.75 0 0 1 .73-1.82 3.88 3.88 0 0 1 1.56-1.24 3.94 3.94 0 0 1 2-.24 3.83 3.83 0 0 1 1.79.87 4 4 0 0 1 1.25 1.63 4 4 0 0 1 .21 2c-.09.63-.26 1.26-.38 1.91s-.23 1.27-.37 1.91-.4 1.24-.56 1.87-.41 1.23-.6 1.85-.17 1.31-.39 1.93-.53 1.19-.78 1.79-.58 1.17-.86 1.75-.65 1.13-1 1.69-.53 1.21-.88 1.74-.76 1.07-1.16 1.56a16.48 16.48 0 0 1-1.29 1.46 13 13 0 0 1-1.5 1.24 14.45 14.45 0 0 1-3.21 1.91c-3.73 1.36-7.85-.37-10.27-3.32a13.65 13.65 0 0 1-1.06-1.69 16.72 16.72 0 0 1-1-1.73c-.26-.6-.35-1.28-.56-1.92s-.56-1.22-.72-1.87-.14-1.33-.23-2-.3-1.32-.33-2 .08-1.32.11-2 .08-1.33.17-2 .19-1.32.32-2 .36-1.29.52-2 .31-1.3.52-2A42.92 42.92 0 0 1 185 53.8c.15-.34.3-.67.47-1a19.62 19.62 0 0 1 1.25-2.07c.38-.56.76-1.13 1.19-1.66s1-.94 1.46-1.43.91-1 1.42-1.47 1-.9 1.59-1.3 1.13-.78 1.72-1.12 1.29-.47 1.91-.75 1.24-.55 1.88-.77 1.26-.51 1.93-.68 1.33-.25 2-.36 1.34-.21 2-.26 1.35 0 2 0 1.32 0 2 .07 1.33 0 2 .12 1.31.23 1.93.35 1.26.42 1.87.6 1.35.16 1.94.39 1.2.59 1.77.87 1.11.67 1.67 1.05 1.1.72 1.6 1.11 1.18.65 1.65 1.08.9 1 1.32 1.46.88 1 1.25 1.5.89 1 1.25 1.55c.54.83.69 1.88 1.27 2.66a8 8 0 0 1 .84 1.83 21.49 21.49 0 0 1 1.39 4.76c.11.64.14 1.3.21 2s.25 1.29.29 2 0 1.31 0 2-.23 1.27-.28 1.91a28.57 28.57 0 0 1-.73 5.34 22.13 22.13 0 0 1-1.64 3.87 18.8 18.8 0 0 1-4.73 6 24.71 24.71 0 0 1-2.87 2.45 16.74 16.74 0 0 1-1.67.94 3.82 3.82 0 0 1-1.57.38m-104.3-37.94c-2.39.09-4.84-.11-7.2.18a16.71 16.71 0 0 1-1.73-.08c-1 0-1-.06-1.9 0a5.41 5.41 0 0 0-1.19.22 8.24 8.24 0 0 1-1.39-.1h-3.12c-.9 0-1-.1-1.91-.08h-.08a3.21 3.21 0 0 1-1.65-.09 3.15 3.15 0 0 1-.94-1.39 3.9 3.9 0 0 1-.15-1.6 3.81 3.81 0 0 1 .19-1.63 2.58 2.58 0 0 1 1.38-1.4l.84-.3a1.54 1.54 0 0 1 .36-.1 1.48 1.48 0 0 1 .4 0 11.37 11.37 0 0 0 1.94.16h7.8c1.05 0 2.11 0 3.16.05a6.16 6.16 0 0 0 .72 0 13.58 13.58 0 0 1 1.64 0h.65c.22 0 .51.08.78.08.72 0 1.44 0 2.16-.05h.77c.26 0 .57.05.86.05.95 0 .95.08 1.9.09s.95 0 1.89 0c.66 0 1.32 0 2-.08a1.7 1.7 0 0 1 .6.06 5 5 0 0 0 .93 0 9.29 9.29 0 0 0 2.22-.15c-.06 0-.07-.07-.06-.13a25.34 25.34 0 0 0 .06-2.81 21.13 21.13 0 0 0 0-2.13.49.49 0 0 1-.37 0 2.26 2.26 0 0 0-.36-.11c-.29 0-.59.06-.88 0a2.75 2.75 0 0 0-.74 0 13.18 13.18 0 0 1-1.43.21c-.94 0-.94-.1-1.87-.09s-.94-.12-1.87-.11-.94 0-1.87 0-.91.05-1.82.05-.94-.16-1.88-.15-.94.15-1.88.15-.94-.07-1.88-.07a2.15 2.15 0 0 1-1.84-.85 3.6 3.6 0 0 1-.47-2 3.52 3.52 0 0 1 .64-1.93 1.88 1.88 0 0 1 1.66-1c.93 0 .93-.18 1.87-.17s.94.07 1.87.08.94 0 1.87 0h1.87c.93 0 .94.11 1.87.12 1.13 0 2.28.13 3.41.12.44 0 .88-.08 1.32-.1a5.65 5.65 0 0 1 .77 0 9.21 9.21 0 0 0 1.82 0 4 4 0 0 0 .08-1.2v-1.73a14.32 14.32 0 0 0 .08-2 15 15 0 0 0-1.8-.07c-.71 0-1.42-.08-2.13-.08-1 0-1 .07-2 .07s-1 0-2 .05a13 13 0 0 1-1.59.08 17.92 17.92 0 0 0-2.39-.09 13.05 13.05 0 0 1-1.62 0 20.32 20.32 0 0 0-2.35-.14h-2c-1 0-1 .09-2 .09-1.37 0-2.72.23-4.07.11h-.33c-1-.1-2.16.06-3.08-.47a3.4 3.4 0 0 1-1.51-1.41 2.88 2.88 0 0 1 .88-3.94 2.3 2.3 0 0 1 1.5-.47 3.87 3.87 0 0 0 .87 0 1.89 1.89 0 0 1 .65-.14c.94.06 1.9.06 2.83.06s.94-.06 1.88-.06.94.08 1.88.08c.49 0 1-.11 1.44-.15.75-.06 1.58 0 2.33 0 .94 0 .94.08 1.89.08s.94.06 1.89.06a4.22 4.22 0 0 0 1.89-.08c-.3-.5-.8-.87-1.12-1.34s-.56-1-.9-1.47-.72-.9-1.08-1.34-.55-1-.92-1.48a2.5 2.5 0 0 1-.7-1.75 2.87 2.87 0 0 1 .41-1.7 3.84 3.84 0 0 1 1.43-1 3.75 3.75 0 0 1 1.66-.66 4.9 4.9 0 0 1 3.21 1.79 26.85 26.85 0 0 1 2.63 3c.38.51.67 1.1 1 1.64s.47.8.72 1.2a12 12 0 0 1 .9 1.52 10.82 10.82 0 0 1 .42 1.47 13.2 13.2 0 0 0 2.4 0h2.41c.94 0 .94.23 1.87.22s.94.07 1.88.05a5.08 5.08 0 0 0 1.87-.17c.29-.56.53-1.17.81-1.77s.5-1.2.77-1.8.76-1.11 1-1.71.46-1.25.67-1.84.5-1.25.7-1.83a4.06 4.06 0 0 1 1-1.82 3.05 3.05 0 0 1 1.92-1 4 4 0 0 1 1.86.9 4 4 0 0 1 1.4 1.38 3.46 3.46 0 0 1 .49 1.88 5 5 0 0 1-.43 2c-.26.59-.63 1.21-1 1.87s-.45 1.24-.78 1.82-.63 1.18-.92 1.79c.53 0 1 .09 1.54.09h3.69c.92 0 .92.06 1.85.06s.92-.05 1.85-.05h5.54c.92 0 .93-.13 1.85-.13a2.75 2.75 0 0 1 1.51.64 3 3 0 0 1 1.2 1.12 4.18 4.18 0 0 1 .26 1.65 2.79 2.79 0 0 1-.49 1.48 2.3 2.3 0 0 1-1.19 1 7.79 7.79 0 0 1-2.71.46c-1.08.07-2.15.06-3.22.06a33.72 33.72 0 0 1-5 0 30.18 30.18 0 0 0-4.4.08c-1 0-1 .06-2 .06h-2c-1 0-1-.13-2-.13s-1 .11-2 .11-1 0-2-.05a5.62 5.62 0 0 0-2 .09c0 .77-.08 1.53-.11 2.3s-.11 1.65-.12 2.47h2.24c.58 0 1.16.18 1.75.18.94 0 .94.09 1.89.09a8.74 8.74 0 0 1 1.2-.09q.86.1 1.72.16h1.39c1.11 0 2.22.07 3.33.06h1.59a9.48 9.48 0 0 1 3.09.25c1.07.33 1.34 1.45 1.34 2.48a2.39 2.39 0 0 1-.16 1.19 2.12 2.12 0 0 1-.11.2 2.78 2.78 0 0 1-1.54 1.31 12.38 12.38 0 0 1-2.41.13c-.94 0-.94.06-1.89.05s-.94.05-1.89 0c-.43 0-.85 0-1.27.07a14.82 14.82 0 0 1-1.54-.1h-.77c-2.22-.1-4.44-.18-6.66-.11a2.23 2.23 0 0 1-.33 0c-.15 0-.3-.07-.45-.09a3 3 0 0 0-.48 0 .18.18 0 0 0-.22.22c0 .61 0 1.2.06 1.81a28.58 28.58 0 0 1 .05 2.93.16.16 0 0 0 0 .08.14.14 0 0 0 .09.06 3 3 0 0 0 1.38 0 20.05 20.05 0 0 1 2.66.1h13.38c.92 0 1 .05 1.92.05h3.84c1 0 1-.07 1.92-.07h3.84c.92 0 1-.06 1.92-.06a2.78 2.78 0 0 1 1.59.42 2.88 2.88 0 0 1 .88 1.37 3.94 3.94 0 0 1 .23 1.58 3.74 3.74 0 0 1-.45 2.31 2.63 2.63 0 0 1-2.16.94h-.09a13.4 13.4 0 0 0-1.56 0 14.36 14.36 0 0 1-2.12 0c-.68 0-1.36-.11-2-.12-1 0-1 0-1.9-.06h-5.73c-.91 0-1-.17-1.91-.19s-1 0-1.91 0-1 .11-1.92.1M66.28 63.81a9 9 0 0 1-1.91 0c-1 0-1-.07-1.94-.08-1.66 0-3.36-.08-5 0h-2.75c-.93 0-1 .05-1.95 0s-1 0-1.94 0h-1.94c-.94 0-1.79.08-2.81 0a6.74 6.74 0 0 0-1.09-.08c.42.51.72 1.11 1.14 1.61 1.17 1.36 2.45 2.61 3.65 4a57.36 57.36 0 0 0 4.57 4.46c.49.44 1 .82 1.52 1.24s1.18 1 1.78 1.42c.44.34.91.6 1.35.94A89.12 89.12 0 0 0 67 82.75c.56.34 1 .79 1.61 1.13s1.2.53 1.77.85 1 .81 1.62 1.12 1.19.54 1.77.84a4.12 4.12 0 0 1 2 4.3c-.4 1.92-2.27 2.82-4 3.15a3.32 3.32 0 0 1-2-.37 15.22 15.22 0 0 1-1.77-.69c-.51-.28-1.18-.39-1.76-.75-.87-.54-1.73-1.08-2.55-1.69l-3.26-2.44c-.93-.69-1.73-1.53-2.67-2.23a56.14 56.14 0 0 1-4.83-4.38c-.46-.43-1-.83-1.41-1.28A46.63 46.63 0 0 1 47.24 76c-.35-.45-.69-.83-1.07-1.24s-.6-1.08-1-1.54-.8-1-1.21-1.47-.86-.93-1.26-1.43-.79-1-1.19-1.46c0 .82.06 1 .07 2s.09 1 .09 2-.07 1-.07 2v8c0 1 .06 1 .06 2s-.05 1 0 2 0 1 .05 2 0 1 0 2c0 1.72.08 3.44 0 5.15a4.26 4.26 0 0 1-.71 2.65 3.53 3.53 0 0 1-1.27 1.4 5.19 5.19 0 0 1-1.91.34 5 5 0 0 1-1.82-.51 3.37 3.37 0 0 1-1.44-1.16 3.63 3.63 0 0 1-.85-2.49c0-1.16.21-2.32.21-3.48v-3.64c0-1.22.08-2.12.08-3.23v-2.68c0-.93.07-1.87.11-2.8s.11-2.07.12-3.11v-7.95a12.21 12.21 0 0 1-.81 1c-.27.32-.52.65-.8 1-.75.86-1.47 1.74-2.2 2.6-.42.5-.81 1-1.25 1.53s-.94.92-1.38 1.41S27 78 26.55 78.45s-.85 1-1.31 1.48c-.7.72-1.32 1.5-2 2.2s-1.45 1.32-2.18 2a66.59 66.59 0 0 1-7.57 6.18l-1.62 1.07c-.6.4-1.22.75-1.82 1.14s-1.3.48-1.86.81-1.13.67-1.7 1a4.7 4.7 0 0 1-2.49.82 4.24 4.24 0 0 1-2-.3A4.08 4.08 0 0 1 .59 93.4 3.4 3.4 0 0 1 0 91.52a3.44 3.44 0 0 1 .54-2.17A6 6 0 0 1 2.35 88c.59-.31 1.11-.72 1.68-1 .4-.22.83-.23 1.23-.42a25 25 0 0 0 2.26-1.42c.55-.34 1.17-.63 1.74-1a7.32 7.32 0 0 0 .91-.69 10.67 10.67 0 0 0 1-.8A22.53 22.53 0 0 1 14 80.6c.4-.31.77-.65 1.15-1a6.94 6.94 0 0 0 1-.69A7 7 0 0 1 17 78c.5-.43 1-.86 1.48-1.3s1-.88 1.45-1.34 1-.82 1.5-1.29.81-1 1.27-1.52 1-.88 1.42-1.37.83-1 1.26-1.51.8-1 1.22-1.55a10.08 10.08 0 0 1 1.06-.95 11.84 11.84 0 0 0 .79-1c.67-.76 1.29-1.57 1.9-2.38a4.22 4.22 0 0 0-2-.09h-2c-1 0-1-.08-2-.07h-4c-1 0-1 .09-2 .09-1.21 0-2.45-.07-3.66 0h-2.43c-.81 0-1.35.08-2 0a2.68 2.68 0 0 1-2.37-1.02 1.76 1.76 0 0 1-.18-.32 4.25 4.25 0 0 1-.36-1.93 4.17 4.17 0 0 1 .21-1.6 3.27 3.27 0 0 1 .86-1.42 2.59 2.59 0 0 1 1.6-.3c1.42 0 2.8-.09 4.22 0 .86.01 1.76-.13 2.59-.13 1.11 0 2.2.16 3.31.16h2c.69 0 1.37-.06 2.06-.08s1.3.11 2 .11 1.63-.06 2.43-.06c.54 0 1.07.06 1.62.06h2.06a7 7 0 0 0 1.79-.09.44.44 0 0 0 .19-.46v-1.86c0-.62-.11-1.17-.13-1.78s-.06-1.52 0-2.28c0-.93 0-1.86-.07-2.79v-1.18c0-1.33-.29-2.74.5-3.94a3.23 3.23 0 0 1 1.41-1.2 4.78 4.78 0 0 1 1.83-.43 5.18 5.18 0 0 1 1.91.35 3.76 3.76 0 0 1 1.55 1.18 4.28 4.28 0 0 1 .5 2.51 26 26 0 0 1-.22 3.18c-.08.85 0 1.71-.1 2.55s0 1.53 0 2.31c0 .61-.09 1.2-.1 1.81s0 1.29 0 2c0 .48 4.64 0 5 0 .92 0 1.81.11 2.71.11s1-.08 1.92-.08h2.7c.46 0 .75.05 1.13 0h5.76c.92 0 1 .06 1.92.06s1-.15 1.92-.15 1-.14 1.92-.15a2.63 2.63 0 0 1 1.55.75 3.25 3.25 0 0 1 1.07 1.31 4.83 4.83 0 0 1 .21 1.69 3.28 3.28 0 0 1-1.51 2.8 6.25 6.25 0 0 1-1.37.46"/><path class="cls-4" d="M35.73 33.21c.68 0 1.34-.07 2-.08s1.34.12 2 .14 1.37 0 2 .08 1.37 0 2 .09 1.39-.07 2 0 1.36.19 2 .31 1.31.45 1.95.6a19.74 19.74 0 0 1 3.66 1.22 15.6 15.6 0 0 1 1.66.8c.48.29.83.75 1.29 1.06A20.48 20.48 0 0 1 60 40.29a17.84 17.84 0 0 1 3 5A27.17 27.17 0 0 1 64.86 50a3.63 3.63 0 0 0 3 2.89 4 4 0 0 0 2.1-.17 4.12 4.12 0 0 0 1.93-.9 3.75 3.75 0 0 0 1.08-4.07 18.55 18.55 0 0 0-.62-2.06 7.86 7.86 0 0 0-.8-1.59 15 15 0 0 1-.92-2.09 14.36 14.36 0 0 0-1-1.68c-.37-.58-.66-1.21-1.06-1.75s-.81-.76-1.15-1.24A14 14 0 0 0 66 35.75a18.9 18.9 0 0 0-2.15-1.92c-.61-.46-1.1-1-1.69-1.48a17.85 17.85 0 0 0-4.37-2.57c-.6-.27-1.29-.32-1.92-.55-.9-.34-1.84-.69-2.76-1a25.39 25.39 0 0 0-4-1c-.64-.08-1.28-.22-1.91-.33-1.09-.19-2.2-.24-3.31-.33-.67-.05-1.36-.05-2.06-.09-1.35-.07-2.77-.11-4.13-.11a71.36 71.36 0 0 0-8.25.36c-.67.08-1.39.14-2.06.23s-1.38.26-2 .39-1.34.36-2 .53-1.3.49-1.94.69-1.27.4-1.88.63-1.31.35-1.9.61-1.19.63-1.76.94a19.93 19.93 0 0 0-3.7 2.42c-.32.28-.5.69-.84 1s-.53.27-.77.44A6.77 6.77 0 0 0 9 36.34c-.66 1-1.59 1.8-2.23 2.83s-1.39 1.88-1.94 2.91a28.3 28.3 0 0 0-1.47 3.82c-.22.63-.37 1.34-.54 2a4.13 4.13 0 0 0-.24 2.1 4.42 4.42 0 0 0 1 2 4.37 4.37 0 0 0 2 .9 4.17 4.17 0 0 0 2.13.1 4.23 4.23 0 0 0 1.86-1.1 4.61 4.61 0 0 0 .93-1.51 18.89 18.89 0 0 0 .57-2c.18-.54.48-1 .69-1.56s.52-1 .77-1.52c.42-.85.83-1.65 1.3-2.46a16.31 16.31 0 0 1 2.89-3.63c.59-.56 1.25-1 1.87-1.55.23-.19.39-.44.62-.62a12.51 12.51 0 0 1 1.17-.61 16 16 0 0 1 1.69-.73 28.65 28.65 0 0 1 2.67-1.34 26.45 26.45 0 0 1 3.76-.7 30.3 30.3 0 0 1 4.26-.44 23.52 23.52 0 0 1 2.65 0h.32m61.46 31.95c-.59 0-1.18.09-1.77.05s-1.17-.17-1.75-.25-1.19-.06-1.77-.18a3.66 3.66 0 0 1-1.65-.88 3.58 3.58 0 0 1-.92-1.59 3.48 3.48 0 0 1-.15-1.81A3.07 3.07 0 0 1 91.57 58a3.46 3.46 0 0 1 1.81-.23 19 19 0 0 0 2.4.36 17 17 0 0 0 2.42 0c.63 0 1.26 0 1.88-.08s1.22-.3 1.83-.46 1.2-.35 1.79-.56 1.17-.43 1.75-.69 1.13-.54 1.68-.84 1-.7 1.57-1 1.14-.56 1.64-.93.94-.84 1.42-1.24.95-.82 1.4-1.25l1.62-1.51c.53-.5 1.1-1 1.63-1.51s1-1.11 1.47-1.67a2.82 2.82 0 0 1 1.91-1 2.74 2.74 0 0 1 2 .71 2.69 2.69 0 0 1 1 1.84 2.85 2.85 0 0 1-.55 2.1c-.39.46-.93.82-1.32 1.3s-.77 1-1.17 1.43-.81.94-1.22 1.38-.81 1-1.24 1.36-1 .75-1.44 1.17-.85.89-1.32 1.3-1 .73-1.48 1.12-.85.92-1.35 1.29-1 .7-1.54 1-1 .67-1.58 1-1.13.51-1.69.77a18.28 18.28 0 0 1-1.71.71c-.71.25-1.41.51-2.13.69s-1.45.39-2.18.51-1.49.24-2.23.28c-.48 0-1-.13-1.46-.13m60.52.03c.59 0 1.18 0 1.77-.05s1.17-.09 1.76-.17 1.14-.29 1.72-.41a3.36 3.36 0 0 0 1.59-.81 3.62 3.62 0 0 0 1.15-1.44 3.62 3.62 0 0 0-.08-1.84 3.62 3.62 0 0 0-.67-1.71 3.67 3.67 0 0 0-1.6-1 3.6 3.6 0 0 0-1.85-.17 19.35 19.35 0 0 1-2.39.41 17.07 17.07 0 0 1-2.42 0c-.63 0-1.24-.18-1.85-.28s-1.26-.11-1.86-.27-1.19-.4-1.78-.61-1.15-.49-1.72-.75-1.13-.52-1.69-.82-1.14-.53-1.67-.87-1-.71-1.54-1.08-1-.78-1.46-1.18-1-.79-1.44-1.21-1-1-1.56-1.58-1.11-.88-1.65-1.41-1-1.08-1.5-1.64a2.8 2.8 0 0 0-1.85-1.07 2.77 2.77 0 0 0-2 .77 2.66 2.66 0 0 0-1 1.82 2.81 2.81 0 0 0 .54 2.08l1.18 1.42c.4.47.9.85 1.3 1.32s.7 1 1.11 1.48.89.89 1.32 1.29l1.36 1.26c.45.41.9.84 1.37 1.25s1 .76 1.45 1.16.94.82 1.43 1.19 1.06.65 1.57 1 1 .75 1.53 1.06 1.15.47 1.71.73a18.39 18.39 0 0 0 1.69.76c.71.25 1.42.46 2.14.64s1.46.3 2.2.42 1.47.33 2.21.37h1.46M52.45 25.64a4.82 4.82 0 0 1-1-.05 2.57 2.57 0 0 1-.88-.25 2.21 2.21 0 0 1-1.06-1.82 3.34 3.34 0 0 1 .49-2c.34-.58.81-1.1 1.16-1.72s.56-1.2.84-1.8.69-1.17 1-1.78.54-1.24.82-1.86.53-1.25.78-1.87a4.07 4.07 0 0 1 1.3-1.74 3.44 3.44 0 0 1 2.1-.61 4.58 4.58 0 0 1 2 .48 4.34 4.34 0 0 1 1.61 1.22 3.15 3.15 0 0 1 .68 1.9 4.61 4.61 0 0 1-.4 1.74 10.87 10.87 0 0 1-.89 1.58c-.32.51-.66 1-1 1.49s-.75 1-1 1.45-.68.94-1 1.44-.72.93-1.1 1.39a11.81 11.81 0 0 1-1.17 1.33 6.64 6.64 0 0 1-1.48 1 4.73 4.73 0 0 1-1.7.5m-32.84-2.49a19.1 19.1 0 0 0-1.11-1.6 18.41 18.41 0 0 0-1.27-1.47c-.46-.48-.93-.91-1.41-1.34s-1-.86-1.47-1.28-.95-.86-1.46-1.3a2.32 2.32 0 0 1-1-1.81 2.84 2.84 0 0 1 .67-1.71 4.14 4.14 0 0 1 1.43-1.16 4.22 4.22 0 0 1 1.81-.42 4.63 4.63 0 0 1 2 .65 14.49 14.49 0 0 1 1.75 1.12c.54.39 1.1.82 1.63 1.29s1 1 1.46 1.49 1 1 1.4 1.54a14.66 14.66 0 0 1 1.21 1.69 4.05 4.05 0 0 1 .66 1.93 3.58 3.58 0 0 1-.51 1.87A4.41 4.41 0 0 1 24.06 24a3.49 3.49 0 0 1-1.86.61 2.72 2.72 0 0 1-1.46-.38 3.19 3.19 0 0 1-1-1.11m19.35.54a2.8 2.8 0 0 1-1.59-.45 2.86 2.86 0 0 1-1-1.3 15.65 15.65 0 0 0-.9-1.82 17.88 17.88 0 0 0-1-1.74c-.39-.56-.77-1.12-1.2-1.64s-.87-1-1.32-1.54-.91-1-1.36-1.51a2.33 2.33 0 0 1-.59-1.49 2.42 2.42 0 0 1 .64-1.58 4 4 0 0 1 1.4-1 4.3 4.3 0 0 1 1.72-.34 3.54 3.54 0 0 1 1.76.55A10.45 10.45 0 0 1 37 10.89a17.76 17.76 0 0 1 1.38 1.25c.42.45.78 1 1.18 1.44s.79 1 1.14 1.47.67 1.08 1 1.59a16.11 16.11 0 0 1 .88 1.64 5.11 5.11 0 0 1 .52 1.78 3.17 3.17 0 0 1-.66 1.82A4.32 4.32 0 0 1 41 23.21a4 4 0 0 1-1.89.45"/><path class="cls-4" d="M147.93 61.66a5.17 5.17 0 0 1 .1 1.21c.05.56.06 1.24.09 2 .13 2.58.27 5.23.15 7.8a18.51 18.51 0 0 1-.21 1.9 9.18 9.18 0 0 1-.41 1.87 5.37 5.37 0 0 1-.92 1.7 5.64 5.64 0 0 1-1.62 1 9.41 9.41 0 0 1-1.79.57 15.43 15.43 0 0 1-1.82.48c-.58.09-1.21.07-1.89.14s-1.19.48-1.86.52-1.24-.11-1.91-.09-1.24.09-1.9.1-1.38-.16-2-.16c.42.57 1.19 1 1.67 1.55a21.07 21.07 0 0 0 1.41 1.6c.52.47 1.1.87 1.68 1.3s1.05 1 1.67 1.38c.52-.27 1.22-.43 1.86-.77s1.08-.72 1.69-1 1-.84 1.63-1.17l1.74-1c.58-.32 1.29-.42 1.87-.74l1.72-1c.59-.35 1-.91 1.57-1.25s1.28-.53 1.8-.88a3.29 3.29 0 0 1 2-.7 3.91 3.91 0 0 1 1.83.24 4.08 4.08 0 0 1 1.1 1.47 2.9 2.9 0 0 1 .69 1.6 2.34 2.34 0 0 1-.86 1.66 5.68 5.68 0 0 1-1.37 1.42c-.48.29-1.15.44-1.83.79-.53.27-1.13.53-1.8.84s-1.14.55-1.79.84-1.14.59-1.79.88-1.22.44-1.86.72a19.32 19.32 0 0 0-1.84.95c.55.26 1.25.42 1.85.65s1.46.51 2.21.74a40.09 40.09 0 0 0 3.9 1.08c1.51.31 3 .33 4.54.63a23 23 0 0 0 4 .34c1.21 0 2.38.07 3.59.12 1 0 1.93-.22 2.77.49a3.86 3.86 0 0 1 1.15 4 3.46 3.46 0 0 1-1.36 1.84 6.85 6.85 0 0 1-3.6.9c-.62 0-1.27-.28-2-.32s-1.29 0-2 0-1.26-.27-1.93-.37-1.3 0-2-.16a33.53 33.53 0 0 1-3.76-.5q-2.12-.63-4.21-1.37c-.71-.25-1.43-.22-2.11-.51-.83-.36-1.69-.58-2.54-.9a20 20 0 0 1-2.3-1.19c-1.79-1-3.57-2-5.26-3.11-1.06-.67-2.16-1.31-3.2-2a20 20 0 0 1-1.6-1.43 35.39 35.39 0 0 1-2.78-2.81c-.31-.34-.6-.69-.89-1s-.34-.6-.59-.87a16.52 16.52 0 0 1-1.61-2.44.79.79 0 0 0-.87-.57c-.48 0-1-.15-1.44-.15s-1.25.14-1.88.14-1.25.11-1.88.11h-2.52c-.47 0-1 0-1.45-.06h-.45a2.23 2.23 0 0 0-.34 0 7.34 7.34 0 0 1-1 0v2.52c0 1 .05 2.11 0 3.16 0 .28.26 2.52.17 2.54.6-.15 1.05-.39 1.64-.54s1.21-.25 1.79-.4 1.25-.13 1.83-.29 1.15-.47 1.73-.63a11.62 11.62 0 0 1 2-.57 11.89 11.89 0 0 0 2.88-.74 4 4 0 0 1 1-.36 2.93 2.93 0 0 1 2.12 1.12 3.64 3.64 0 0 1 .68 2.24 3 3 0 0 1-.84 1.88 2.14 2.14 0 0 1-1.33.86 9.92 9.92 0 0 1-2 .66c-.39.13-.37.14-.76.25s-.58.08-.87.17a16.32 16.32 0 0 0-1.81.52 11.72 11.72 0 0 1-1.57.59 14.79 14.79 0 0 0-2.12.7 12.41 12.41 0 0 1-1.79.46c-.44.12-.84.45-1.29.55s-.83.12-1.25.25-.76.12-1.14.22l-1.84.5-1.84.49c-.63.16-1.25.29-1.85.44s-1 .21-1.44.31-.65.25-1 .3c-1.08.18-2.06.59-3.11.83-.65.15-1.28.22-1.87.34s-1.27.35-1.85.47-1.28.35-1.85.46-1.36.15-1.89.23a15 15 0 0 1-1.89.2 4.16 4.16 0 0 1-1.82-.38 3.64 3.64 0 0 1-1.5-1.17 3.52 3.52 0 0 1-.26-1.86 2.73 2.73 0 0 1 2.3-3.36 22.13 22.13 0 0 1 2.83-.35c.6-.09 1.19-.32 1.8-.42s1.23-.05 1.84-.16l1.81-.34c.33-.06.61-.23.94-.3l1.22-.24c.48-.1 1-.1 1.46-.2s1.19-.3 1.8-.43c.18 0 2.21-.39 2.21-.37-.21-3-.23-6.07-.27-9.1v-6.38c.08-1.27 0-2.49 0-3.75 0-.92.16-1.83.12-2.74-.09-2.3-.46-4.76.37-7 .56-.65.88-.33 1.54-.88s.74-.45 1.4-1 .67-.54 1.32-1.09.36-.93 1.07-1.41a14.45 14.45 0 0 1 1.86-.42 15.61 15.61 0 0 1 1.86.08c.94 0 .94.17 1.88.17a30.06 30.06 0 0 1 3.28.08c.73.08 1.47 0 2.16 0a.49.49 0 0 0 .51-.17.52.52 0 0 0 0-.24c0-.85-.09-1.69-.09-2.55a2.11 2.11 0 0 1 .41-1.54 3.6 3.6 0 0 1 1.33-1.13 5.42 5.42 0 0 1 1.75-.2 5.19 5.19 0 0 1 1.65.49 3.15 3.15 0 0 1 1.41.86 2.42 2.42 0 0 1 .83 1.52c0 .67-.39 2.1.13 2.67a1.16 1.16 0 0 0 1 .06c.74-.06 1.48 0 2.21 0h2.24c.75 0 1.3.06 1.93.09s1.42-.2 2-.13a18 18 0 0 1 2.09.26 10.9 10.9 0 0 1 1.27 1.18c.68.51.72.46 1.4 1a8.86 8.86 0 0 0 1.34 1 4.8 4.8 0 0 1 1.47.94m-6.75 5.1a1 1 0 0 0 0-.26 11.21 11.21 0 0 1-.14-1.33 4.25 4.25 0 0 0-.71-2.25l-.31-.22a1.21 1.21 0 0 0-.28-.28 1 1 0 0 0-.26-.11 3.27 3.27 0 0 0-.93-.14c-.39 0-.76-.15-1.15-.15-.71 0-1.41.21-2.12.2l-2.03-.09c-.68 0-1.37-.07-2.08-.07h-2.08c-.7 0-1.33.07-2 .07s-1.34-.17-2-.17-1.35-.11-2-.1-1.36.11-2 .12-1.37-.07-2 0c-.8 0-1.6.08-2.4.14a8.79 8.79 0 0 0-1.8.47 2 2 0 0 0-.48.18l-.19.13a3.18 3.18 0 0 0-1 2.35 5.63 5.63 0 0 0-.13 1.61c.07.39.4.23.73.23h6.76L122 67h17.88a5.14 5.14 0 0 0 1.1-.09.21.21 0 0 0 .18-.12m-27.56 4.43h-.26a.1.1 0 0 0-.06 0 .11.11 0 0 0 0 .07c-.06.72 0 1.42-.07 2.14a10.36 10.36 0 0 0 .13 2.66c0 .07 2 0 2.21 0 .83 0 1.67.07 2.5.1s1.83 0 2.74 0h3.83c.62 0 1.38-.07 2-.08s1.39.17 2 .17 1.4.1 2 .1 1.41-.1 2-.12 1.42.07 2 0c.22 0 .42-.08.64-.11 1-.11 2-.4 3.06-.48a2.7 2.7 0 0 0 2-.95 4.3 4.3 0 0 0 .79-2.7 1 1 0 0 0-.14-.65 1.63 1.63 0 0 0-.92-.1c-.51 0-1-.07-1.52-.08h-3.21c-.41 0-.7.06-1.1 0s-.73 0-1.1 0c-1 0-1 .05-2 .05s-1.86.06-2.81 0-2.09 0-3.14 0h-10c-.69 0-1.2-.1-1.8-.1M4.85 138.76c-.72 1.61-3.28.91-2.26-1.13a74.58 74.58 0 0 0 4.21-10.46 7 7 0 0 1-3.52-.34c-1.23-.53-1-2.72.82-2.07a6.45 6.45 0 0 0 3.32.14 10.49 10.49 0 0 0 0-2.6c-.1-1.37 2.17-1.45 2.41-.12a7.36 7.36 0 0 1 0 1.93c.34-.17.63-.34.92-.51a1.15 1.15 0 1 1 .94 2.07 15.67 15.67 0 0 1-2.43 1 94.76 94.76 0 0 1-4.41 12.12m5.85-1.09c-1-1.16.46-3.06 1.71-1.78s2.7 1.13 5.52.89a1.25 1.25 0 1 1 .31 2.48c-3.49.7-6.48-.41-7.54-1.59m2.72-8.41c-1.25.46-2-1.52-.41-2.07a8.94 8.94 0 0 1 5.78.12c1.61.58 1 2.7-.56 2.19a8.47 8.47 0 0 0-4.82-.24M35 126.84a19 19 0 0 1-4.87 9.76c-1.86 1.71-3.88.77-4.94-1.3-1.52-3 .1-7.47 3.33-9.71a10.07 10.07 0 0 1 10.36-.59c3.74 2.24 4.34 6.67 2.24 10.12a10.08 10.08 0 0 1-5.88 4c-2.12.55-2.87-1.88-.8-2.36a7.47 7.47 0 0 0 4.48-2.7 5.2 5.2 0 0 0-1.33-7.37 6.25 6.25 0 0 0-3-1 1.21 1.21 0 0 1 .34 1.11m-5.35.46c-2.24 1.73-3.45 4.94-2.43 6.79.36.7 1 1.06 1.59.53 1.81-1.59 3.49-5.42 3.73-8a1.7 1.7 0 0 1 .22-.75 8 8 0 0 0-3.11 1.45m19.89 7.77c-.1-2.53.17-4.58.29-7.13.07-1.56.24-3.93.19-5.42 0-1.78 2.67-1.64 2.63 0s-.22 3.81-.34 5.42a66.82 66.82 0 0 0-.44 7.08c.14 3.52 4.43 3.28 8.63 0a1.34 1.34 0 1 1 1.66 2.1c-4.7 3.83-12.41 4.53-12.62-2m25.32 4.65a44.38 44.38 0 0 0-5.11-7.83c-1.59-1.86-1.59-3.57.29-5.52a59.43 59.43 0 0 0 4.94-5.4 1.35 1.35 0 1 1 2.14 1.64c-1.21 1.47-3.76 3.56-5.25 5.06-1 1-1.08 1.76-.29 2.75 2.41 3 4.46 5.28 5.64 7.85.75 1.61-1.59 3-2.36 1.49m28.7-12.11c-1.47 0-7.16-4.26-8.31-5.3a1 1 0 0 0-.63-.31 1 1 0 0 0-.63.34 46 46 0 0 1-7.56 5.59 1.48 1.48 0 0 1-.79.22 1.26 1.26 0 0 1-1.33-1.22 1.09 1.09 0 0 1 .72-1 33.46 33.46 0 0 0 7.52-5.32 2.72 2.72 0 0 1 1.93-.89 3.26 3.26 0 0 1 2.1.89 39.34 39.34 0 0 0 7.64 4.7 1.12 1.12 0 0 1 .72 1 1.3 1.3 0 0 1-1.37 1.23M91 134.23v3.32c.94-.22 1.81-.43 2.53-.67a1.64 1.64 0 0 1 .46-.07 1 1 0 0 1 1.11.94 1.16 1.16 0 0 1-1 1 56.74 56.74 0 0 1-8.55 2 1.08 1.08 0 1 1-.19-2.14c1.16-.17 2.31-.39 3.42-.6v-9.78a2.42 2.42 0 0 1 2.51-2.58c.7 0 1.35-.07 2-.07V124a1 1 0 0 1 1.13-.87 1 1 0 0 1 1.13.87v1.59c2.55 0 4.43.1 4.63 2 0 .7.07 1.74.07 2.68 0 3.47-.17 4-4.5 4a7.16 7.16 0 0 0 1.25 1.48c1-.41 2.84-1.13 4-1.74a1.3 1.3 0 0 1 .63-.17 1.18 1.18 0 0 1 1.23 1.06c0 .63-.31.92-4 2.19a13.13 13.13 0 0 0 5.37 1.4 1 1 0 0 1 1 1 1.24 1.24 0 0 1-1.33 1.23c-.1 0-7.69-.24-10.29-6.51H91zm7.18-5.06c0-1-.07-1.61-1-1.64h-5.15a1 1 0 0 0-1 1.16v.48zm-7.16 1.71v1.57h2.34c1.4 0 2.58 0 3.9-.1.43 0 .94-.12.94-1.49h-7.15zm25.11-.93c-1.2-.89-1.83-.84-2.84 0a32 32 0 0 1-3.57 2.7c-1.59.94-3.32-1.25-1.4-2.27.6-.31 2.43-1.42 3.66-2.29a4.1 4.1 0 0 1 5.44.07c3.08 2.22 6.43 5.13 9.78 6.87 1.57.79.29 3.32-1.57 2.41-2.92-1.45-6.72-5.37-9.52-7.44m3.52-2.72c-1.28-.55-.31-2.07.87-1.64a8 8 0 0 1 2.53 1.54c1 1.06-.48 2.58-1.33 1.59a9.29 9.29 0 0 0-2.07-1.49M122 125c-1.3-.51-.36-2 .82-1.66a8.1 8.1 0 0 1 2.58 1.44c1 1-.41 2.6-1.28 1.64A8.56 8.56 0 0 0 122 125m20.9 11.69c1.76-1.57 1.69-3.86.31-4.77s-3.85-1-6.29.41a5.31 5.31 0 0 0-2 1.81c-.87 1.28-3.28-.14-1.78-1.61a85.43 85.43 0 0 0 7.28-7.78c.26-.34 0-.24-.17-.15a19.26 19.26 0 0 1-4 1.23c-1.9.41-2.26-2-.63-2.17a37.13 37.13 0 0 0 5.3-1.18c1.93-.55 3.52 1.16 2.31 2.51-.77.87-1.74 1.81-2.7 2.7s-1.93 1.76-2.79 2.6a7.38 7.38 0 0 1 6.77-.07c3.47 2.07 2.34 6.31-.19 8.14s-6.14 1.81-8 .6c-2.55-1.66-1.42-4.65 1.42-4.75a3.42 3.42 0 0 1 3.81 3.25 3.25 3.25 0 0 0 1.4-.77m-5.13-.72a.77.77 0 0 0-.34 1.49 4.32 4.32 0 0 0 2 .36 1.6 1.6 0 0 0-1.69-1.85m17.29 4.53a9.18 9.18 0 0 0-3-2.53 1.05 1.05 0 0 1 .48-2c.84 0 4.7 2.12 4.7 3.76A1.33 1.33 0 0 1 156 141a1.1 1.1 0 0 1-.92-.53m17.16-11.85c-1.93.1-1.78-2.1-.17-2.17 1.37 0 3.06-.1 4.79-.12a24.13 24.13 0 0 0 .19-3.18 1.27 1.27 0 1 1 2.53.1 20.35 20.35 0 0 1-.24 3.06h2.77c1.88 0 3.23 1 3.18 3-.07 2.43-.53 5.93-1.54 7.73a4.62 4.62 0 0 1-7.11 1.45 1.25 1.25 0 1 1 1.54-2 2.17 2.17 0 0 0 3.37-.67c.94-1.4 1.3-4.72 1.32-6a1.3 1.3 0 0 0-1.32-1.42h-2.63c-1 4.39-3.33 9.15-7.61 11.49-1.54.84-3.06-1.16-1.13-2.19 3.3-1.78 5.32-5.44 6.26-9.28-1.52 0-3 .1-4.22.14m23.64 11.14c-2 .6-2.87-1.78-.94-2.29 4.75-1.28 7.81-4.19 8.89-7.25.24-.65.12-1-.79-1.06-2.46 0-6.94 0-9.52.12a1.15 1.15 0 1 1-.07-2.27c3.11-.07 7.16-.1 10.43-.07 2.41 0 3.59 1.37 2.6 3.73-1.69 4-4.63 7.25-10.6 9.08m7.66-15c-2.27 0-5.59.07-8.19 0-1.59 0-1.69-2.27.17-2.24h8.12a1.18 1.18 0 0 1 1.3 1.11 1.19 1.19 0 0 1-1.4 1.13M214.6 140c-1.93.75-2.87-1.52-1-2.12a18.76 18.76 0 0 0 8-5.49 10.57 10.57 0 0 0-2.53-1.16c-1.35-.36-.72-2.41 1-1.93a15.88 15.88 0 0 1 3 1.25 23.77 23.77 0 0 0 2-3.44c.46-1 .36-1.11-.26-1.09-1 0-3.45.27-4.26.36a31.36 31.36 0 0 1-5.52 5.88c-1.61 1.11-3-1-1.4-2a21.88 21.88 0 0 0 6.43-7.59c.84-2 3.32-.55 2.48.84-.12.19-.26.41-.43.65 1.18-.1 2.51-.22 3.66-.26 2.48-.07 2.91 1.66 2 3.37s-1.78 3.11-2.72 4.48a9.07 9.07 0 0 1 1.73 1.52 1.3 1.3 0 0 1 0 1.83 1.16 1.16 0 0 1-1.78-.1 13.67 13.67 0 0 0-1.45-1.3 20.72 20.72 0 0 1-9 6.26m12.7-17c-1.23-.51-.26-2 .84-1.54a7.46 7.46 0 0 1 2.39 1.45c.94 1-.46 2.48-1.25 1.54a8.53 8.53 0 0 0-2-1.45m2.17-2.07c-1.23-.48-.36-1.93.77-1.56a7.68 7.68 0 0 1 2.43 1.37c1 1-.39 2.48-1.21 1.57a9 9 0 0 0-2-1.37m6.86 18.52c-2.31-1.25-2.36-4 .41-5a9.54 9.54 0 0 1 4.79-.19v-1.49c-.29-4.82-.56-7.11-.53-10.55 0-1.71 2.65-1.59 2.55 0-.07 1.18-.1 2.29-.07 3.47h.89a5.39 5.39 0 0 0 1.78-.56c1.52-.87 3.08 1.23 1.44 2.15a5.37 5.37 0 0 1-1.52.51c-.53.1-1.06.14-1.47.19a5.12 5.12 0 0 1-1.06 0c0 1.35.12 2.84.17 4.6v2.29a10.21 10.21 0 0 1 3.28 1.81c1.71 1.47 0 3.93-1.69 2.17a9.43 9.43 0 0 0-2-1.52 5 5 0 0 1-7 2.15m1.09-3.18a.69.69 0 0 0 0 1.33c1.3.7 3.32.29 3.83-1.23a6.26 6.26 0 0 0-3.81-.1m31.67-6.69c3 2.63 1.71 7.44-3 9.4a16.5 16.5 0 0 1-4.75 1.4c-1.93.27-2.53-2.14-.46-2.43a13.14 13.14 0 0 0 4.31-1.23c2.84-1.47 3.59-3.74 2.46-5.2-2-2.65-7.4-.94-10 2.1-.84 1-.39.53-1 1.25-1.18 1.45-3.69.43-2.24-1.47.48-.63.63-.51 1.54-1.57 1.13-1.3 1.35-1.49 2.58-2.89s3-3.61 3.85-4.84c.19-.26 0-.41-.22-.29a12.89 12.89 0 0 1-3.61 1.37 1.25 1.25 0 1 1-.43-2.41 25.83 25.83 0 0 0 4.07-1c1.32-.48 1.44-.53 2.12-.41 1.3.22 2.26 1.49 1 2.77-1.61 1.66-3.74 4-5.23 5.54 2.48-1.93 6.77-2.1 9-.12m8.01 7.12a1.27 1.27 0 0 1 2-1.57c2 2.1 6 1.93 9.59.89 2-.55 2.58 2 .63 2.65-4.77 1.49-10.55.36-12.22-2m2.7-9.83c-1.9.36-2.22-2.19-.07-2.51a25.61 25.61 0 0 1 7.69.07c2 .43 1.49 2.92-.46 2.51a18.33 18.33 0 0 0-7.16-.07m17.07 9.42a27.15 27.15 0 0 0 2.43-3.32 1.16 1.16 0 0 1 2.17.82 18.86 18.86 0 0 1-2.7 4c-1.47 1.73-3.42.1-1.9-1.54m5.35 2.14a1.07 1.07 0 1 1 .92-1.93c4.07 1.66 4.67-1.18 3.3-3.11-.65-.91-2-2.17-2.58-2.77-1.35-1.57.67-2.51 1.57-1.59a35.75 35.75 0 0 1 3 3.32c3.28 4.46-.92 8.67-6.22 6.07m5.08-10.62c-1.3.31-2-1.13-.94-1.71.51-.27.58-.46.36-.8a18.92 18.92 0 0 0-2-2.1c-.87-1.16.77-2.22 1.76-1.23s3.32 2.48 3.4 3.88a1.46 1.46 0 0 1-1.42 1.61c-.31 0-.77.24-1.16.34m6.24 8.87a7.3 7.3 0 0 0-2.67-3.54c-1.23-.84 0-2.41 1.35-1.61a8.39 8.39 0 0 1 3.59 3.85c.82 1.9-1.69 3-2.27 1.3m-.63-7.3a8.33 8.33 0 0 0-1.69-1.76c-1.11-.72.07-2 1.11-1.37a7.87 7.87 0 0 1 2.1 1.83c.75 1.16-.89 2.36-1.52 1.3m2.89-1.47a8.41 8.41 0 0 0-1.76-1.69c-1.13-.67 0-2 1-1.42a7.79 7.79 0 0 1 2.17 1.76c.8 1.13-.8 2.39-1.45 1.35M267.42 5.19A5.09 5.09 0 1 1 262.33.1a5.09 5.09 0 0 1 5.09 5.09"/><path class="cls-4" d="M267.42 5.19A5.09 5.09 0 1 1 262.33.1a5.09 5.09 0 0 1 5.09 5.09m44.32-3.7a5.09 5.09 0 1 1-7.2 0 5.09 5.09 0 0 1 7.2 0M276.4 59.53c.28-.47.7-.82 1-1.28s.78-1.15 1.12-1.76a14.66 14.66 0 0 1 2.89-3.07c.46-.46.94-.91 1.46-1.34s1-.87 1.54-1.25 1.07-.77 1.66-1.09 1.2-.54 1.82-.81 1.19-.55 1.84-.76a19.26 19.26 0 0 1 3.62-1 15.59 15.59 0 0 1 4.09.17 9 9 0 0 1 1.74.55 8.2 8.2 0 0 1 1.62.8 8.07 8.07 0 0 1 1.55 1 6.21 6.21 0 0 1 1 1.64 6.59 6.59 0 0 1 .4 1.84 6.34 6.34 0 0 1 .08 1.85 6.2 6.2 0 0 1-.23 1.9 12.38 12.38 0 0 1-1 1.8 12.1 12.1 0 0 1-1.37 1.52 13.36 13.36 0 0 1-1.64 1.19A15.65 15.65 0 0 1 298 62.6a19.53 19.53 0 0 1-1.83.87c-.61.27-1.25.49-1.89.71-.95.33-2 .42-2.9.75a21.5 21.5 0 0 1-3 .79c-1.32.27-2.61.48-3.93.76a34.74 34.74 0 0 1-4.08.64c-.7.06-1.39.1-2.07.13s-1.41-.07-2.08-.06-1.3 0-1.95 0h-1.95c-.65 0-1.3 0-1.95-.07s-1.31 0-2-.06c-1.95-.19-3.89-.69-5.85-.84a18.11 18.11 0 0 1-1.88-.31c-.64-.12-1.3-.18-1.93-.3s-1.42-.49-2.16-.65c-.54-.12-1.11-.11-1.64-.24-1.26-.3-2.55-.54-3.8-.89-.64-.18-1.25-.43-1.86-.61a24.35 24.35 0 0 1-2.69-.92c-.67-.28-1.42-.47-2.12-.74s-1.33-.69-2-.94a7.77 7.77 0 0 1-2.25-.84c-.94-.68-1.76-1.2-2-2.45a3.84 3.84 0 0 1 .31-1.95 4 4 0 0 1 .9-1.78 2.74 2.74 0 0 1 2.1-.83 16.48 16.48 0 0 1 2.55.43 23.24 23.24 0 0 1 2.33 1.05c.8.29.78.34 1.59.62.61.2 1.25.29 1.86.47s1.21.49 1.86.62 1.47.41 2.2.61c1.45.4 2.92.75 4.39 1.09 1 .23 2.08.43 3.1.64a21.51 21.51 0 0 0 3.11.77c1.2.07 2.4.18 3.61.26s2.28.28 3.43.36a17 17 0 0 0 2.65.13c.64-.06 1.25-.24 1.9-.25h.28"/></g></svg>