<svg id="レイヤー_1" data-name="レイヤー 1" xmlns="http://www.w3.org/2000/svg" viewBox="0 0 310 127"><defs><style>.cls-1,.cls-2{fill:#101010;}.cls-1{opacity:0.1;}</style></defs><title>logo-award-selection</title><path class="cls-1" d="M168.3,45.76c.8-1.61,2.38-5.56-.12-9.06a6,6,0,0,0-4-2.27,9.72,9.72,0,0,1,1.21,1.46,7,7,0,0,1,1,5.94,8.2,8.2,0,0,1-6.23,5.52,95.82,95.82,0,0,1-10.43,2c-3,.4-5.19.73-6.49,1-2.44.46-4.31,1-5.63,1.34-2.72.77-7.09,3.45-7.72,6.89-.67,3.7,1.29,4.69,1.29,4.69a2.59,2.59,0,0,1,.06-.92c1.24-4.13,5.65-6.4,10.31-6.67a8,8,0,0,1,6.33,2.42,8.82,8.82,0,0,1,2.37,6.42c0,4.17-1.68,7.77-5.84,11.18-2.75,2.25-8.89,5-16.58,5.18a38,38,0,0,1-15.25-3.18c-6.25-3-9-10.25-4.17-19.33,1.47-2.76,5.72-6.56,8.65-8.07A22.64,22.64,0,0,1,127.53,48c.76,0,1.92,0,3.46.08,0,0,.8-3.72.57-3.72-3.74,0-6.73-1-8.89-2.94a9.75,9.75,0,0,1-3.28-7.54A10,10,0,0,1,121,28a15.26,15.26,0,0,1,4.33-4c3.93-2.08,5.72-1.76,8.67-.75a5.34,5.34,0,0,1,3.83,4.58,8.23,8.23,0,0,1,0,2.08,8.67,8.67,0,0,0,3.08-5.25,5,5,0,0,0-3.25-5.33,12,12,0,0,0-5.11-.7,19.47,19.47,0,0,0-7.64,2.2c-4.59,2.36-5.67,4.58-7.88,7.53s-3.3,5.74-3.3,8.37a9.52,9.52,0,0,0,.89,4.17,8.29,8.29,0,0,0,2.12,2.85,20.56,20.56,0,0,0,4.11,2.37l1.13.53c-8.82,1.76-13.1,4.81-15.82,7.34a16.46,16.46,0,0,0-5.45,13c.09,9.69,11.32,15.94,23.45,15.82,14.5-.15,32-5.62,32.42-17.54a13.27,13.27,0,0,0-2.33-7.67c-1-1.31-3.33-3.33-7.83-3.67l3.32-.28c4-.5,6.68-.9,8.06-1.21A20,20,0,0,0,164,50.1,13.56,13.56,0,0,0,168.3,45.76Z"/><path class="cls-2" d="M186.86,67.73l5.94-28.05c-3.52-2-8.91-3.36-14-3.91-6,12-10.55,26.26-10.55,35.56a17.52,17.52,0,0,0,.7,5.31c-3.91,0-8.83-1.09-8.83-8.28s4.92-20.63,12.11-32.9c-6.25.23-11.41,2-11.41,4.84a1.9,1.9,0,0,1,1.56,2c0,2.42-2,3.13-3.83,3.13-2.19,0-4.3-1-4.3-4.06,0-5.63,7.42-9.07,16.64-9.07,1,0,2.11.08,3.2.16,8-12.66,18.13-23.29,27.51-23.29a17.57,17.57,0,0,1,6,1.09L195.38,67.73Zm6.41-30.48L198.43,13C193,13.19,186,22,180.14,33.19A47.42,47.42,0,0,1,193.27,37.26Z"/><path class="cls-2" d="M212.95,39.3l-4.12,19.17a7.58,7.58,0,0,0-.23,1.86c0,2.2,1.13,3.21,2.54,3.21,2.14,0,4.91-2.26,5.7-6.15l3.83-18.1h5.64l-4.06,19.17a7.61,7.61,0,0,0-.23,1.86c0,1.86.73,3.21,2.42,3.21,6.32,0,9.47-14.15,9.47-20a3.27,3.27,0,0,1-2,.45c-1.07,0-1.69-1.13-1.69-2.42a3.08,3.08,0,0,1,2.88-3.27c2.42,0,3.55,1.75,3.55,4.79,0,9.92-5.64,24.75-13.42,24.75-3.66,0-6.15-1.58-6.77-4.79-2.14,3.33-4.79,4.79-7.22,4.79-3.38,0-6.2-2.88-6.2-7.56a13.29,13.29,0,0,1,.34-2.88l3.83-18.1Z"/><path class="cls-2" d="M262.68,39.3l-4.12,19.17a11.23,11.23,0,0,0-.28,2.54c0,1.3.34,2.54,1.75,2.54,1.8,0,3.72-2.31,5.36-6.15h2.09c-3.66,9.42-7.33,10.43-9.81,10.43s-4.23-1.64-4.51-5.53c-1.75,3-5,5.53-8.57,5.53s-7.22-2.48-7.22-9.08c0-7.61,5-19.74,14.44-19.74,1.8,0,4.06.68,4.62,3L257,39.3Zm-9.53,18.1,2.71-12.8A2.82,2.82,0,0,0,253,42.12c-6.2,0-9.64,10.21-9.64,15.84,0,4.29,1.41,5.58,3.55,5.58C249.32,63.55,252.42,60.84,253.15,57.4Z"/><path class="cls-2" d="M274.3,39.3l-1,4.62c2.14-2.37,4.45-4.91,7.56-4.91,2.26,0,3.16,1.13,3.16,2.65a3.4,3.4,0,0,1-3.27,3.66c-1.3,0-1.18-1.41-2.82-1.41s-3.61,1.41-5.19,2.76l-4.45,20.81h-5.64l6-28.19Z"/><path class="cls-2" d="M309.14,28,302.6,58.47a12.51,12.51,0,0,0-.23,2.42c0,1.58.45,2.65,2,2.65a4.76,4.76,0,0,0,1.8-.34c-.9,3.55-2.42,4.62-4.45,4.62-2.48,0-4.23-1.64-4.51-5.53-1.75,3-5,5.53-8.57,5.53s-7.22-2.48-7.22-9.08c0-7.61,5-19.74,14.44-19.74,1.86,0,4.06.68,4.62,3l2.82-13.25Zm-12,29.38,2.71-12.8a2.78,2.78,0,0,0-2.82-2.48c-6.2,0-9.64,10.21-9.64,15.84,0,4.29,1.41,5.58,3.55,5.58C293.3,63.55,296.46,60.9,297.19,57.4Z"/><path class="cls-2" d="M46.57,85.16,62.12,67.43a21.82,21.82,0,0,0,.36-3.73,18.9,18.9,0,0,0-4.19-11.88Q54.08,46.4,43.9,40.18q10.46-4.05,16.51-9.89T66.48,17q0-7.35-6.68-12.14T42.6.12Q30.18.12,22,6.53T13.81,22.12A19.66,19.66,0,0,0,17,33.3,34.08,34.08,0,0,0,27.1,42.59Q13.83,47.72,7.35,53.75A19.43,19.43,0,0,0,.86,68.51a17.15,17.15,0,0,0,7.72,14.7q7.73,5.52,20.21,5.51A42.46,42.46,0,0,0,46.57,85.16ZM25.05,19.52a13.72,13.72,0,0,1,4.2-10.42q4.19-4,11.25-4,6.53,0,10.42,3.3t3.87,9.44q0,13-15.13,19.65A48,48,0,0,1,29,29.09,13.88,13.88,0,0,1,25.05,19.52ZM12.95,67.18a20.92,20.92,0,0,1,3.88-12.65q3.86-5.29,14-9.6,11.42,6.53,15.11,11.47A17.69,17.69,0,0,1,49.6,67.25,14.65,14.65,0,0,1,44,79.1a20.35,20.35,0,0,1-13.34,4.56q-7.84,0-12.8-4.69A15.51,15.51,0,0,1,12.95,67.18Z"/><path class="cls-2" d="M113.14,11.24h-6.61c-4.34,4.23-84.39,95.7-84.39,95.7,4.86-.1,40.41-.23,40.41-.23s-3.09,16.82-3.81,20.17H72c.6-4.07,3.28-20.17,3.28-20.17,6.06,0,16.89.08,22.37.24l1.41-9.24H77l3.26-25H68.35l-4.16,25H36.66C38.67,95.51,107.94,16.24,113.14,11.24Z"/><path class="cls-2" d="M142.41,83.8a3.35,3.35,0,0,1-2.92-1.57,7.88,7.88,0,0,0,3.45-6.6c0-2.85-1.42-5.7-6.22-5.7-5.47,0-9.15,2.77-9.15,7.8,0,11.24,16.87,11.92,16.87,28.93,0,12.22-8.69,18.14-18.74,18.14-7.72,0-15.37-3.52-15.37-12.59,0-8.17,6.15-12.37,10.64-12.37,2.62,0,4.87,1.35,5.47,4.95-4.12,0-8.92,2-8.92,7.42a7.38,7.38,0,0,0,7.64,7.57c4.72,0,9.89-3.45,9.89-10.72,0-12.82-15.37-17.39-15.37-28.41,0-7.8,7.65-13.42,17.17-13.42,3.45,0,11.47.75,11.47,8.85C148.33,80.65,145.71,83.8,142.41,83.8Z"/><path class="cls-2" d="M153.78,111.35c-.06.66-.06,1.26-.06,1.86,0,4.07,1.38,5.93,5.21,5.93s7.73-1.86,10.85-6.53h1.92c-3.18,5.87-9.23,11.09-15.64,11.09-4.61,0-8.87-2.7-8.87-9.59s4.13-21,15.16-21c3.3,0,6.41,1.26,6.41,6.17C168.76,106,163.07,110.39,153.78,111.35Zm.3-2.34c6.65-1,11-5,11-10.37,0-1.38-.3-2.64-2.22-2.64C158.45,96,155.16,102.84,154.08,109Z"/><path class="cls-2" d="M181.89,81.39l-7,32.36a11.94,11.94,0,0,0-.3,2.7c0,1.38.36,2.7,1.86,2.7,1.92,0,4-2.46,5.69-6.53h2.22c-3.89,10-7.79,11.09-10.43,11.09-4.07,0-5.33-3.06-5.33-6.65a22.46,22.46,0,0,1,.54-4.43l6.53-30.38Z"/><path class="cls-2" d="M188.78,111.35c-.06.66-.06,1.26-.06,1.86,0,4.07,1.38,5.93,5.21,5.93s7.73-1.86,10.85-6.53h1.92c-3.18,5.87-9.23,11.09-15.64,11.09-4.61,0-8.87-2.7-8.87-9.59s4.13-21,15.16-21c3.3,0,6.41,1.26,6.41,6.17C203.76,106,198.07,110.39,188.78,111.35Zm.3-2.34c6.65-1,11-5,11-10.37,0-1.38-.3-2.64-2.22-2.64C193.45,96,190.16,102.84,189.08,109Z"/><path class="cls-2" d="M223.3,98.65c0-1.38-.9-2.4-2.7-2.4-5.63,0-9.23,10.25-9.23,17,0,4.13,1.38,5.93,5.27,5.93,4.19,0,7.91-2.1,10.55-6.53h2c-3.18,5.87-9.11,11.09-15.52,11.09-4.61,0-8.87-2.7-8.87-9.65,0-6.71,4-21,15.52-21,4.07,0,6.29,1.8,6.29,5.69,0,2.76-1.14,5-3.18,5a2.11,2.11,0,0,1-2-1.26A5.33,5.33,0,0,0,223.3,98.65Z"/><path class="cls-2" d="M230.61,93.38l1.8-8.27,6.23-.84-2,9.11H242l-.42,2.1h-5.42l-3.9,18.28a14.5,14.5,0,0,0-.42,2.58c0,1.44.48,2.82,2.28,2.82,2.16,0,4.61-2.46,6.59-6.53H243c-4.14,8.81-8.39,11.09-11.33,11.09-4.43,0-5.63-3.3-5.63-6.71a23.61,23.61,0,0,1,.54-4.38l3.66-17.14Z"/><path class="cls-2" d="M250.93,93.38l-4.38,20.38a11.94,11.94,0,0,0-.3,2.7c0,1.38.36,2.7,1.86,2.7,1.92,0,4-2.46,5.69-6.53H256c-3.89,10-7.79,11.09-10.43,11.09-4.07,0-5.33-3.06-5.33-6.65a22.38,22.38,0,0,1,.54-4.43l4.07-19.24Zm-1.62-12.64a4.09,4.09,0,0,1,4,4,4,4,0,0,1-4,4,3.91,3.91,0,0,1-4-4A4,4,0,0,1,249.31,80.73Z"/><path class="cls-2" d="M276.34,102.54a15.31,15.31,0,0,0,9.83-3.6l.54,1.62c-2.22,2.58-6.17,4.37-10.49,4.91-.72,10.37-5.63,18.22-13,18.22-5.21,0-9.35-2.64-9.35-9.47s3.36-21.15,15.7-21.15C274.3,93.08,276.28,96.43,276.34,102.54Zm-3.06,3.12c-2,0-2.4-1-2.4-2.46a2.7,2.7,0,0,1,2.58-3.06c-.3-2.82-1.62-3.78-3.6-3.78-6.05,0-9.41,10.79-9.41,16.78,0,4.13,1.32,6,5,6S272.44,114.11,273.28,105.66Z"/><path class="cls-2" d="M302.83,119.14a4.79,4.79,0,0,0,1.86-.42c-.36,4.31-3.6,5-5.21,5-3,0-5.15-2.34-5.15-6.71,0-5.09,2.88-11.8,2.88-16.06,0-2-.6-3.3-2.64-3.3-2.52,0-4.67,2.1-6.65,6.41l-4.14,19.3h-6l6.35-30h6.05l-1,4.49c3.12-4.19,6.05-4.79,8.15-4.79,4.85,0,6.17,3.12,6.17,6.71,0,5.33-2.88,11.8-2.88,16.18C300.67,118.18,301.39,119.14,302.83,119.14Z"/></svg>