<svg id="レイヤー_1" data-name="レイヤー 1" xmlns="http://www.w3.org/2000/svg" viewBox="0 0 66.88 391.39"><defs><style>.cls-1{fill:#e73828;}.cls-2{fill:#231815;}.cls-3{fill:#fff;}</style></defs><title>eiyosyukan</title><path class="cls-1" d="M65.38,199.06a1.5,1.5,0,0,1-1.5-1.5V25.18a1.5,1.5,0,1,1,3,0V197.56A1.5,1.5,0,0,1,65.38,199.06Z"/><path class="cls-2" d="M42.35,60.48c0,1.31-1.22,2-2.49,2a2.16,2.16,0,0,1-2.4-2v0l.13-11.15A37.7,37.7,0,0,1,25.91,59.82a3,3,0,0,1-1.62.48,2.51,2.51,0,0,1-2.54-2.4,2.43,2.43,0,0,1,1.53-2.14A32.35,32.35,0,0,0,35.23,45.48L25,45.66h0a2,2,0,0,1-2.05-2.1A2.05,2.05,0,0,1,25,41.42l12.68.09-.13-3.63a2.13,2.13,0,0,1,2.32-2.19,2.28,2.28,0,0,1,2.49,2.1v.09l-.13,3.63,13-.09a2.05,2.05,0,0,1,2.1,2.14,2,2,0,0,1-2.05,2.1h0l-10.75-.17A35.84,35.84,0,0,0,56.73,55.1a2.32,2.32,0,0,1,1.44,2.05,2.87,2.87,0,0,1-2.84,2.71c-2.23,0-8.31-4.9-13.12-11l.13,11.58ZM44.8,30.31a22.33,22.33,0,0,0,2.75-5.38,2.28,2.28,0,0,1,2.23-1.57,2.7,2.7,0,0,1,2.8,2.4c0,.52-.22,1.57-2.84,4.59.87,0,1.71,0,2.58,0,3,0,5,2,5.07,4.55,0,.61,0,1.27,0,1.88,0,1.27,0,3.45-2.8,3.45-1.27,0-2.54-.66-2.54-2.05v-.09c0-3,0-3.67-2.54-3.71-3.63,0-7.56-.09-11.37-.09-2.8,0-5.51,0-8,.09-2.19,0-2.62.61-2.67,2.1v1.79A2.34,2.34,0,0,1,25,40.46a2.29,2.29,0,0,1-2.49-2.23c0-.57,0-1.09,0-1.71s0-1.22,0-1.88c.09-2,1.79-4.2,5.2-4.24h2.89a1.58,1.58,0,0,1-.31-.44,10,10,0,0,0-2.67-2.75,1.67,1.67,0,0,1-.66-1.31,2.47,2.47,0,0,1,2.58-2.1c2.05,0,4.94,3.32,4.94,4.63a2.63,2.63,0,0,1-1,1.92c2,0,4.07,0,6.08,0a1.61,1.61,0,0,1-1.09-1.09A10.59,10.59,0,0,0,36.19,26a1.78,1.78,0,0,1-.44-1.14,2.34,2.34,0,0,1,2.49-2c2.14,0,4.55,3.8,4.55,5a2.74,2.74,0,0,1-2.05,2.41Z"/><path class="cls-2" d="M56.69,85l-8.35-.17a27.11,27.11,0,0,0,9.79,4.68,2,2,0,0,1,1.66,2,2.44,2.44,0,0,1-2.49,2.4c-1.44,0-4.72-1.62-7.3-3.37a22.24,22.24,0,0,1,.09,2.36c0,3.5-.57,5-7.08,5a9.44,9.44,0,0,0,2.1,1.79c1.49-.79,4.33-2.23,5.95-3.32A2.25,2.25,0,0,1,52.27,96a2.06,2.06,0,0,1,2.05,1.92c0,1.14-.66,1.79-5.07,3.54A38.41,38.41,0,0,0,57,102.58a2,2,0,0,1,2.05,2.05A2.39,2.39,0,0,1,56.43,107c-.79,0-9.14-.39-15.17-5.81v.09a2,2,0,0,1-1.53,1.92C34.44,104.81,26,107,24.12,107a1.94,1.94,0,0,1-2.1-2,2.19,2.19,0,0,1,2-2.14c1.92-.26,3.93-.66,5.95-1.09,0-3.94,0-7.91.13-10.8v-.13c-3.63,2.62-6.86,3.8-7.78,3.8a2.18,2.18,0,0,1-2.27-2.14,2.11,2.11,0,0,1,1.57-2c4.28-1.53,7.56-3.24,10.14-5.68L23.29,85h0a1.72,1.72,0,0,1-1.92-1.71,1.85,1.85,0,0,1,2-1.79l14.38,0V79.85l-9.84,0c-1.27,0-1.84-.7-1.84-1.4A1.67,1.67,0,0,1,27.84,77h9.84V75.34l-12.11,0c-1.36,0-2-.79-2-1.62a1.81,1.81,0,0,1,2-1.71h7c-.39-.48-.83-.92-1.27-1.4a1.53,1.53,0,0,1-.48-1.09c0-1,1.22-1.88,2.4-1.88,1.57,0,3.72,2.62,4.59,4.37l0,0h4.63a25.82,25.82,0,0,0,1.53-3.37,2.05,2.05,0,0,1,2-1.4,2.5,2.5,0,0,1,2.58,2.19c0,.57-.13.92-1.27,2.54h7a1.67,1.67,0,1,1,0,3.32l-12.15,0V77h9.88a1.49,1.49,0,1,1,0,2.93l-9.88,0V81.6l14.51,0a1.78,1.78,0,0,1,1.92,1.79A1.73,1.73,0,0,1,56.73,85ZM42.18,87.41c1,0,2,0,2.88.09a8.05,8.05,0,0,1,1,0c-1-.83-1.84-1.79-2.75-2.75h-6.6a35.38,35.38,0,0,1-2.54,2.71h.44c.92,0,1.92,0,3,0l0-.66c0-1,1.14-1.57,2.27-1.57s2.23.52,2.23,1.57Zm-7.74,13.38c1.75-.44,3.32-.87,4.55-1.22a3.07,3.07,0,0,1,.57-.09c-.39-.48-.79-1-1.14-1.53-1.36,0-2.67,0-4,0Zm0-7v1.53c1.22,0,2.49,0,3.8,0,7.17,0,7.3,0,7.48-1.09a1.63,1.63,0,0,0,0-.48ZM45.8,91.52a1.63,1.63,0,0,0,0-.48c-.09-.52-.39-1-1.4-1S42,90,40.82,90c-5.73,0-6.21,0-6.29,1.18v.35Z"/><path class="cls-2" d="M24.12,117.8a1.87,1.87,0,0,1-2-1.88A2,2,0,0,1,24.16,114c1.75-.09,3.63-.09,5.51-.09s3.76,0,5.42.09c2.88.09,4.2,1.57,4.2,4.11,0,2.05.09,7.74.13,9.75v.26a4.38,4.38,0,0,1-.48,2.1,3.36,3.36,0,0,1,.66-.09,2.18,2.18,0,0,1,2.41,2,7.21,7.21,0,0,1-.39,1.62c2.32,0,4.55,0,6.43.09,2.89.09,4.5,1.84,4.59,3.72.09,1.53.09,3,.09,4.55s0,3-.09,4.59A4.42,4.42,0,0,1,48,150.71c-2.14,0-5,.09-7.78.09s-5.55,0-7.65-.13c-3.06-.13-4.59-1.79-4.72-4-.09-1.53-.13-3.19-.13-4.81q0-2.17.13-4.33c.09-1.79,1.31-3.67,4.72-3.76,1.27,0,2.75,0,4.42,0,.17-.7.35-1.4.44-2a7.19,7.19,0,0,1-3.63.83c-2.54,0-4.07-.57-4.07-2.05a2,2,0,0,1,2-2,1.63,1.63,0,0,1,.44,0,6.82,6.82,0,0,0,1.18.13c1.14,0,1.53-.48,1.57-1.31,0-.48,0-2.05,0-3.8s0-3.58-.09-4.55c-.09-1.27-.31-1.27-5.77-1.27-1.66,0-3.45,0-5,.09Zm.35,12a2.06,2.06,0,0,1-2.1-2.05,1.78,1.78,0,0,1,1.4-1.75,36.65,36.65,0,0,0,7.69-2.84,2.31,2.31,0,0,1,1-.26,1.79,1.79,0,0,1,1.75,1.79A2,2,0,0,1,33,126.41C30.15,127.94,25.78,129.82,24.47,129.82Zm5-6.21a2.15,2.15,0,0,1-1.18-.35,16,16,0,0,0-3.54-1.53,1.54,1.54,0,0,1-1.22-1.53,1.9,1.9,0,0,1,1.88-1.92,18.85,18.85,0,0,1,5.33,1.79,1.72,1.72,0,0,1,.87,1.49A2.16,2.16,0,0,1,29.5,123.61Zm18.75,16.74c0-2.23-.17-2.8-1.92-2.84-2.14,0-5.11-.09-7.83-.09-1.71,0-3.28,0-4.5,0-1.53,0-1.88.57-1.88,2.89Zm-16.13,3.37c0,.61,0,1.18.09,1.75.09,1.53.66,1.53,8.87,1.53,1.88,0,3.72,0,5.25-.09,1.88,0,1.88-.57,1.88-3.19Zm10.1-13.95a2,2,0,0,1-2.05-2,1.79,1.79,0,0,1,1.4-1.79,38.28,38.28,0,0,0,7.34-2.71,2.12,2.12,0,0,1,1-.26,1.85,1.85,0,0,1,1.79,1.88,1.9,1.9,0,0,1-1.14,1.71C47.29,128.29,43.18,129.77,42.22,129.77Zm.17-12a1.84,1.84,0,0,1-2-1.84,2,2,0,0,1,2.05-2c1.75-.09,3.54-.09,5.29-.09s3.5,0,5.16.09c2.84.09,4.2,1.57,4.28,4.11.09,2.71.13,8,.13,10,0,2.8-1.49,4.63-5.25,4.63-4.33,0-4.59-1.4-4.59-2.27a2,2,0,0,1,2-2,1.78,1.78,0,0,1,.48,0,5.64,5.64,0,0,0,1.14.13c1,0,1.57-.35,1.57-1.18,0,0,.09-2.36.09-4.68,0-1.49,0-2.93-.13-3.8-.17-1.27-.35-1.27-5.46-1.27-1.49,0-3.1,0-4.72.09Zm3.72,5.46a16.45,16.45,0,0,0-3.54-1.57,1.72,1.72,0,0,1,.39-3.41A16.74,16.74,0,0,1,48.38,120a1.74,1.74,0,0,1,.92,1.53,2.14,2.14,0,0,1-2.05,2.05A1.92,1.92,0,0,1,46.11,123.26Z"/><path class="cls-2" d="M19.14,176.16a3.33,3.33,0,0,1,.52-1.66,11.53,11.53,0,0,0,1.53-6,1.91,1.91,0,0,1,2-2.05c.35,0,2.19.09,2.19,2.49,0,2.93-1.18,9.4-4.11,9.4A2.13,2.13,0,0,1,19.14,176.16Zm37.46-8.7-.09.92c-.31,2.49-1.57,3.76-4.68,3.85-2.32.09-4.37.13-6.34.13-8.22,0-10.27-.09-10.27-3.72v-.22c0-.26,0-.61,0-1h-.92a1.6,1.6,0,0,1-1-.35c1.84,2.19,1.84,3.54,1.84,3.67a2,2,0,0,1-1.88,2.05,1.45,1.45,0,0,1-1.4-1.14,11.91,11.91,0,0,0-1.14-2.58v25.4a2.17,2.17,0,0,1-2.4,2.1,2.16,2.16,0,0,1-2.36-2.1V160a2.21,2.21,0,0,1,2.36-2.23,2.25,2.25,0,0,1,2.4,2.23v6.3a1.57,1.57,0,0,1,.87-.26,1.81,1.81,0,0,1,1.36.7,2.12,2.12,0,0,1-.31-1.14,1.71,1.71,0,0,1,1.71-1.84h1.22c.31-2.36.66-4.42,4.85-4.59,2-.09,4.07-.09,6.16-.09s4.28,0,6.6.09c2.71.09,3.76,1.57,3.76,3.37v.09a11.28,11.28,0,0,1,0,1.14h1.53a1.8,1.8,0,0,1,1.84,1.88,1.74,1.74,0,0,1-1.84,1.84ZM51.53,189.8a15.09,15.09,0,0,0,6.08,1.88,2.12,2.12,0,0,1,2.05,2.19,2.33,2.33,0,0,1-2.32,2.45,16.92,16.92,0,0,1-8.61-3.59,2,2,0,0,1-.79-1.49,2,2,0,0,1,.61-1.36H47c-1.27,0-2.49,0-3.76,0a2.22,2.22,0,0,1,.66,1.53c0,2.8-7.91,5.12-10,5.12a2.32,2.32,0,0,1-2.4-2.32A2.19,2.19,0,0,1,33.65,192a16.33,16.33,0,0,0,6.82-2.19H40c-2.88,0-4-1.27-4.11-3.72,0-1.27,0-2.88,0-4.5s0-3.24,0-4.5c0-1.75.74-3.45,4.07-3.58,1.66,0,3.45-.09,5.29-.09,2.23,0,4.55,0,6.73.09,2.54,0,4,1.22,4.15,3.32.09,1.22.13,2.88.13,4.55,0,6.6,0,8.3-4.55,8.44ZM43.84,167H39.6a9.32,9.32,0,0,0,0,1c0,1,.26,1.09,4.11,1.09Zm.39-4.9c-1,0-1.92,0-2.8,0-1.31,0-1.31.26-1.57,2h4.2Zm7.69,18.62h-12v1.62h12Zm-.09-3.41c0-.83-.39-.92-6.25-.92-5.2,0-5.46.13-5.55,1.09,0,.17,0,.39,0,.61H51.88ZM40,185c0,.31,0,.66,0,.92.09,1,1,1,5.81,1,5.55,0,5.9,0,6-1.09,0-.26,0-.53,0-.83Zm7.91-18-.17,2.14c4.28,0,4.28,0,4.55-2.14Zm4.63-3.72c0-.7-.09-1.09-1.27-1.14-1,0-2,0-3,0l-.13,2.05h4.42Z"/><path class="cls-2" d="M28.36,239.94a2.91,2.91,0,0,1-2.67-2.36A30,30,0,0,1,24.6,229a58.63,58.63,0,0,1,.39-6.78c.57-5.24,1.53-10.05,1.71-12.85a2.55,2.55,0,0,1,2.54-2.67A2.45,2.45,0,0,1,31.82,209c0,.13,0,.26,0,.39-.31,2-1,5.6-1.62,9.31a72.14,72.14,0,0,0-1,8.22c0,.74.09,1,.17,1s.09-.13.17-.39c.57-1.71,1.27-2.05,2-2.05a2.11,2.11,0,0,1,2,2.32,4.73,4.73,0,0,1-.52,2,20.35,20.35,0,0,0-2,7.43A2.55,2.55,0,0,1,28.36,239.94Zm24.83-27.67a3.56,3.56,0,0,1,.92-.13,2.58,2.58,0,0,1,2.67,2.4c0,1-.66,1.92-2.4,2.32l-2.84.7c0,4.77.13,6.6.53,12.2a19.22,19.22,0,0,1,4.72,3.1,3.06,3.06,0,0,1,1,2.27A2.83,2.83,0,0,1,55.33,238a2.35,2.35,0,0,1-1.71-.83,17.51,17.51,0,0,0-2.32-2,9.32,9.32,0,0,1-7.91,4.63c-3.41,0-7-2.19-7-5.73,0-3.19,3.1-6,8.35-6a14.31,14.31,0,0,1,2.71.26c-.17-2-.17-2.05-.48-9.88a28.26,28.26,0,0,1-4.33.3c-2.49,0-4.63-.09-4.63-2.45a2.44,2.44,0,0,1,2.62-2.45,3.22,3.22,0,0,1,.66,0,13.48,13.48,0,0,0,2.32.17,20.47,20.47,0,0,0,3.23-.26c0-1.62,0-3.15,0-4.37v-1.36a2.28,2.28,0,0,1,2.4-2.27,2.15,2.15,0,0,1,2.36,2V208c-.09,1.14-.13,2.84-.13,4.81Zm-9.44,19.85c-2.1,0-3,.88-3,1.75s1.31,1.4,2.45,1.4a4.06,4.06,0,0,0,3.93-2.45A9.87,9.87,0,0,0,43.75,232.12Z"/><path class="cls-2" d="M35.14,274c0,2.32.22,5.68,4.55,5.68,2.84,0,6.69-1.66,10.54-4.63a3,3,0,0,1,1.88-.7,2.84,2.84,0,0,1,1.53,5.07c-3.93,3.19-9.27,5.29-13.77,5.29-5.12,0-9.27-2.62-9.49-9.14,0-.74,0-1.44,0-2.14,0-3.63.35-6.86.52-10.71.13-2.4.31-5.95.31-8.57v-1.18a2.49,2.49,0,0,1,2.67-2.67,2.59,2.59,0,0,1,2.8,2.49c0,1.18-.26,5.46-.61,9.88C35.75,266.7,35.14,270.24,35.14,274Zm11.67-11.67a16.68,16.68,0,0,0-3.63-2.49,1.83,1.83,0,0,1-1.31-1.62,2.26,2.26,0,0,1,2.32-2c.87,0,6.08,1.84,6.08,4.33a2.44,2.44,0,0,1-2.14,2.45A1.74,1.74,0,0,1,46.81,262.29Zm4.81-4.46a15.89,15.89,0,0,0-3.67-2.32c-1-.35-1.4-1-1.4-1.62a2.31,2.31,0,0,1,2.36-2.05c.48,0,6.12,1.62,6.12,4.2a2.42,2.42,0,0,1-2.14,2.4A1.67,1.67,0,0,1,51.62,257.83Z"/><path class="cls-2" d="M39.42,305.13a41.73,41.73,0,0,1-6.64.61,2.73,2.73,0,0,1-3-2.54c0-1.18.92-2.32,2.89-2.32.17,0,.35,0,.57,0,.61,0,1.22.09,1.88.09a28.52,28.52,0,0,0,4.33-.35c0-1.09,0-2.14,0-3.06s0-1.71,0-2.36a2.34,2.34,0,0,1,2.4-2.58A2.53,2.53,0,0,1,44.49,295v.17c-.09,1.44-.17,3-.22,4.59l2.36-.52a4.22,4.22,0,0,1,.7-.09,2.28,2.28,0,0,1,2.4,2.23c0,1.09-.83,2.19-2.8,2.49-1,.13-1.92.31-2.8.44,0,1.4,0,2.8,0,4.2l2.75-.87a4.28,4.28,0,0,1,1.22-.22,2.38,2.38,0,0,1,2.54,2.23c0,1-.79,2.1-2.62,2.62-1.36.39-2.58.7-3.72,1,.09,1.36.13,2.67.26,3.85s.26,2.49.35,3.94c5.46,2.14,6.6,4.11,6.6,5.64a2.46,2.46,0,0,1-2.36,2.58,3.33,3.33,0,0,1-2.14-1,20.14,20.14,0,0,0-2.58-2,9.16,9.16,0,0,1-8.17,4.94c-3.85,0-7.65-2.45-7.65-5.73,0-4.63,6.16-5.9,9.31-5.9a14.86,14.86,0,0,1,2.4.17c0-.74-.09-1.53-.17-2.32-.09-1-.13-2.05-.22-3.23a26.67,26.67,0,0,1-5.11.52c-2.23,0-4.77-.13-4.77-2.62a2.38,2.38,0,0,1,2.54-2.4,5.8,5.8,0,0,1,.83.09,10.53,10.53,0,0,0,1.84.13,23.23,23.23,0,0,0,4.42-.44c-.09-1.49-.13-3-.17-4.46Zm-2.75,18.62c-2.84,0-3.72,1-3.72,1.75,0,1.13,1.66,1.49,2.8,1.49,1.88,0,3.8-1,4.2-2.36l.09-.35A11.48,11.48,0,0,0,36.67,323.75Z"/><path class="cls-2" d="M48.47,363.32c0-4.07-4.11-4.59-6.08-4.59-4.24,0-8.39,2.32-10.14,5a2.2,2.2,0,0,1-1.92,1.05,2.69,2.69,0,0,1-2.75-2.41,2.79,2.79,0,0,1,1-1.92c4.76-4.72,7.61-7.21,12.76-13.55a1.34,1.34,0,0,0,.26-.39s0,0-.09,0a2.08,2.08,0,0,0-.48.22A26.63,26.63,0,0,1,33.48,349a2.4,2.4,0,0,1-2.54-2.4,2.18,2.18,0,0,1,2.1-2.19,63.7,63.7,0,0,0,9.35-2.23,6.14,6.14,0,0,1,1.49-.22c2.27,0,4.11,1.62,4.11,3.37,0,1.22-.66,2.14-5.81,6.78-1.71,1.49-3.24,2.8-4.77,4.2a13,13,0,0,1,6.08-1.49c5.11,0,10,3.06,10,8.3,0,4.85-4.24,10.89-13.2,10.89-5.25,0-8.61-2.58-8.61-5.77,0-1.88,1.57-4.77,5.73-4.77,3.5,0,6.73,2.1,7,5.73A6.89,6.89,0,0,0,48.47,363.32ZM40.16,370a2.76,2.76,0,0,0-2.71-3c-1.09,0-1.71.53-1.71,1.18,0,1.4,2.23,1.88,4.42,1.88Z"/><path class="cls-2" d="M49.61,386.4a5,5,0,1,1,5,5A4.94,4.94,0,0,1,49.61,386.4Zm5-3.28a3.3,3.3,0,0,0-3.28,3.28,3.27,3.27,0,0,0,3.28,3.24,3.23,3.23,0,0,0,3.24-3.24A3.27,3.27,0,0,0,54.59,383.13Z"/><circle class="cls-1" cx="16.41" cy="16.41" r="16.41"/><path class="cls-3" d="M11.63,20.69c-1.14,1.47-3,3.24-3.67,3.24a.77.77,0,0,1-.39-1.47,14.79,14.79,0,0,0,3.93-3.69l-3,.06h0a.7.7,0,0,1-.75-.71.72.72,0,0,1,.78-.73l3.13,0,0-1.21v0a.73.73,0,0,1,.75-.73.71.71,0,0,1,.75.73v0l0,1.21,2.87,0a.73.73,0,0,1,.71.75.67.67,0,0,1-.69.69h0l-2.87-.06v1.08a.76.76,0,0,1,.52-.26,6.42,6.42,0,0,1,2.33,1.23.83.83,0,0,1,.3.65.87.87,0,0,1-.78.86.69.69,0,0,1-.5-.22,7.62,7.62,0,0,0-1.86-1.34l0,4.29a.78.78,0,0,1-1.55,0ZM8.17,15.26a.68.68,0,0,1-.73-.71.7.7,0,0,1,.73-.71h2.63a.7.7,0,0,1-.52-.52,5.09,5.09,0,0,0-.8-1.49.59.59,0,0,1-.15-.39.79.79,0,0,1,.82-.67c.86,0,1.64,1.94,1.64,2.27a.8.8,0,0,1-.69.8h1.47a15.53,15.53,0,0,0,1-2.59.72.72,0,0,1,.71-.56.88.88,0,0,1,.91.8,11.65,11.65,0,0,1-1.06,2.35h2.27a.69.69,0,0,1,.73.71.7.7,0,0,1-.73.71Zm4.21-4.9-3.62,0a.72.72,0,1,1,0-1.45h2.76V7.55a.86.86,0,0,1,1.7,0l0,1.38h2.65a.72.72,0,1,1,0,1.45ZM21.87,15l-2.46,0c-.09,3.56-.54,7.4-2.5,10a1.05,1.05,0,0,1-.86.45.93.93,0,0,1-1-.8.77.77,0,0,1,.22-.52c2.11-2.48,2.5-6,2.5-9.34,0-1.08,0-2.14-.09-3.13v-.24c0-1.42.56-2,1.94-2.42a39.11,39.11,0,0,0,3.84-1.45,1.13,1.13,0,0,1,.43-.11,1,1,0,0,1,.95.93.88.88,0,0,1-.6.8c-.86.37-3,1.06-3.82,1.27s-1,.58-1,1.23v.09c0,.54,0,1.1,0,1.68l3.11,0,3.28,0a.81.81,0,0,1,.88.8.82.82,0,0,1-.88.8H23.56l0,10.05a.87.87,0,0,1-1.73,0Z"/></svg>