<svg id="レイヤー_1" data-name="レイヤー 1" xmlns="http://www.w3.org/2000/svg" viewBox="0 0 309.99 78.99"><defs><style>.cls-1{font-size:28px;fill:#221815;font-family:TsukuARdGothic-Bold-83pv-RKSJ-H, Tsukushi A Round Gothic;font-weight:700;letter-spacing:0.1em;}.cls-2{letter-spacing:0.1em;}.cls-3{letter-spacing:0.08em;}.cls-4{letter-spacing:0.09em;}.cls-5{letter-spacing:0.03em;}.cls-6{letter-spacing:0.05em;}.cls-7{letter-spacing:-0.03em;}.cls-8{letter-spacing:-0.23em;}.cls-9{letter-spacing:0.12em;}.cls-10,.cls-11,.cls-12{fill:none;stroke:#000;stroke-linecap:round;stroke-linejoin:round;}.cls-10{stroke-width:4px;}.cls-11{stroke-width:3px;}.cls-12{stroke-width:2.5px;}</style></defs><title>logo-interview-subcopy</title><text class="cls-1" transform="matrix(1, -0.09, 0.09, 1, 2.24, 71.21)">管<tspan class="cls-2" x="30.91" y="0">理</tspan><tspan class="cls-3" x="61.85" y="0">栄</tspan><tspan class="cls-4" x="91.97" y="0">養</tspan><tspan class="cls-5" x="122.47" y="0">士</tspan><tspan class="cls-6" x="151.31" y="0">に</tspan><tspan class="cls-7" x="180.81" y="0">聞</tspan><tspan class="cls-8" x="207.89" y="0">く</tspan><tspan class="cls-9" x="229.58" y="0">！</tspan></text><path class="cls-10" d="M258.57,60.68c2.92,4.86,6.16,7.57,11.94,8.07,6,.52,13.92-4.52,13.92-14.22v0a4.35,4.35,0,0,1,1.43-3.33c4.65-4,11.92-13.56,11.63-20.51-.44-10.45-6.83-19.11-16.58-19.83-6.19-.46-11.79,3.47-15.63,7.92"/><path class="cls-11" d="M303.49,21.38c0-7.57-5.77-15.22-13.9-16.32"/><path class="cls-12" d="M308.74,15.2c0-6.47-4.93-13-11.88-13.95"/><path class="cls-12" d="M289.86,30.44c.48-7.32-4.12-12.29-11.46-12.29-6.67,0-12.35,9.55-14.38,15.63-2.5,7.5-2.45,13.19-1,15.63,2.29,4,7.26,3.9,9.59-2.08,2.92-7.5-1.46-16.67-9.17-10.63"/></svg>