<svg id="レイヤー_1" data-name="レイヤー 1" xmlns="http://www.w3.org/2000/svg" viewBox="0 0 384.67 158"><defs><style>.cls-1,.cls-2{fill:#101010;}.cls-1{opacity:0.1;}</style></defs><title>logo_award-84</title><path class="cls-1" d="M285.76,82.24c.8-1.61,2.38-5.56-.12-9.06a6,6,0,0,0-4-2.27,9.72,9.72,0,0,1,1.21,1.46,7,7,0,0,1,1,5.94,8.2,8.2,0,0,1-6.23,5.52,95.82,95.82,0,0,1-10.43,2c-3,.4-5.19.73-6.49,1-2.44.46-4.31,1-5.63,1.34-2.72.77-7.09,3.45-7.72,6.89-.67,3.7,1.29,4.69,1.29,4.69a2.59,2.59,0,0,1,.06-.92c1.24-4.13,5.65-6.4,10.31-6.67a8,8,0,0,1,6.33,2.42,8.82,8.82,0,0,1,2.37,6.42c0,4.17-1.68,7.77-5.84,11.18-2.75,2.25-8.89,5-16.58,5.18a38,38,0,0,1-15.25-3.18c-6.25-3-9-10.25-4.17-19.33,1.47-2.76,5.72-6.56,8.65-8.07A22.64,22.64,0,0,1,245,84.51c.76,0,1.92,0,3.46.08,0,0,.8-3.72.57-3.72-3.74,0-6.73-1-8.89-2.94a9.75,9.75,0,0,1-3.28-7.54,10,10,0,0,1,1.57-5.9,15.26,15.26,0,0,1,4.33-4c3.93-2.08,5.72-1.76,8.67-.75a5.34,5.34,0,0,1,3.83,4.58,8.23,8.23,0,0,1,0,2.08,8.67,8.67,0,0,0,3.08-5.25,5,5,0,0,0-3.25-5.33,12,12,0,0,0-5.11-.7,19.47,19.47,0,0,0-7.64,2.2c-4.59,2.36-5.67,4.58-7.88,7.53s-3.3,5.74-3.3,8.37a9.52,9.52,0,0,0,.89,4.17,8.29,8.29,0,0,0,2.12,2.85,20.56,20.56,0,0,0,4.11,2.37l1.13.53c-8.82,1.76-13.1,4.81-15.82,7.34a16.46,16.46,0,0,0-5.45,13c.09,9.69,11.32,15.94,23.45,15.82,14.5-.15,32-5.62,32.42-17.54a13.27,13.27,0,0,0-2.33-7.67c-1-1.31-3.33-3.33-7.83-3.67l3.32-.28c4-.5,6.68-.9,8.06-1.21a20,20,0,0,0,6.26-2.35A13.56,13.56,0,0,0,285.76,82.24Z"/><path class="cls-2" d="M144.55,104.53a3.56,3.56,0,0,1-3.11-1.67,8.37,8.37,0,0,0,3.66-7c0-3-1.51-6.05-6.61-6.05-5.82,0-9.72,2.95-9.72,8.29,0,12,17.93,12.67,17.93,30.76,0,13-9.24,19.28-19.92,19.28-8.21,0-16.33-3.74-16.33-13.39,0-8.69,6.53-13.15,11.31-13.15,2.79,0,5.18,1.43,5.82,5.26-4.38,0-9.48,2.15-9.48,7.89a7.84,7.84,0,0,0,8.13,8c5,0,10.52-3.67,10.52-11.39,0-13.63-16.33-18.49-16.33-30.2,0-8.29,8.13-14.26,18.25-14.26,3.67,0,12.19.8,12.19,9.4C150.84,101.18,148.05,104.53,144.55,104.53Z"/><path class="cls-2" d="M156.17,135c-.06.65-.06,1.23-.06,1.82,0,4,1.35,5.81,5.1,5.81s7.56-1.82,10.61-6.39h1.88c-3.11,5.75-9,10.85-15.31,10.85-4.51,0-8.68-2.64-8.68-9.38s4-20.58,14.84-20.58c3.23,0,6.27,1.23,6.27,6C170.83,129.67,165.26,134,156.17,135Zm.29-2.29c6.51-1,10.79-4.87,10.79-10.14,0-1.35-.29-2.58-2.17-2.58C160.75,119.94,157.52,126.62,156.47,132.67Z"/><path class="cls-2" d="M183.68,105.63l-6.86,31.67a11.68,11.68,0,0,0-.29,2.64c0,1.35.35,2.64,1.82,2.64,1.88,0,3.87-2.4,5.57-6.39h2.17C182.27,146,178.46,147,175.88,147c-4,0-5.22-3-5.22-6.51a22,22,0,0,1,.53-4.34l6.39-29.73Z"/><path class="cls-2" d="M190.42,135c-.06.65-.06,1.23-.06,1.82,0,4,1.35,5.81,5.1,5.81s7.56-1.82,10.61-6.39H208c-3.11,5.75-9,10.85-15.31,10.85-4.51,0-8.68-2.64-8.68-9.38s4-20.58,14.84-20.58c3.23,0,6.27,1.23,6.27,6C205.08,129.67,199.51,134,190.42,135Zm.29-2.29c6.51-1,10.79-4.87,10.79-10.14,0-1.35-.29-2.58-2.17-2.58C195,119.94,191.77,126.62,190.72,132.67Z"/><path class="cls-2" d="M224.2,122.52c0-1.35-.88-2.35-2.64-2.35-5.51,0-9,10-9,16.6,0,4,1.35,5.81,5.16,5.81,4.1,0,7.74-2.05,10.32-6.39h2c-3.11,5.75-8.91,10.85-15.19,10.85-4.52,0-8.68-2.64-8.68-9.44,0-6.57,3.87-20.52,15.19-20.52,4,0,6.16,1.76,6.16,5.57,0,2.7-1.11,4.93-3.11,4.93a2.07,2.07,0,0,1-1.94-1.23A5.21,5.21,0,0,0,224.2,122.52Z"/><path class="cls-2" d="M231.36,117.36l1.76-8.09,6.1-.82-1.94,8.91h5.25l-.41,2.05h-5.31L233,137.3a14.19,14.19,0,0,0-.41,2.52c0,1.41.47,2.76,2.23,2.76,2.11,0,4.51-2.4,6.45-6.39h2.17c-4,8.62-8.21,10.85-11.08,10.85-4.34,0-5.51-3.23-5.51-6.57a23.1,23.1,0,0,1,.53-4.28l3.58-16.77Z"/><path class="cls-2" d="M251.24,117.36,247,137.3a11.68,11.68,0,0,0-.29,2.64c0,1.35.35,2.64,1.82,2.64,1.88,0,3.87-2.4,5.57-6.39h2.17C252.41,146,248.6,147,246,147c-4,0-5.22-3-5.22-6.51a21.9,21.9,0,0,1,.53-4.34l4-18.82ZM249.66,105a4,4,0,0,1,3.93,3.93,3.92,3.92,0,0,1-3.93,3.87,3.83,3.83,0,0,1-3.87-3.87A3.92,3.92,0,0,1,249.66,105Z"/><path class="cls-2" d="M276.11,126.33a15,15,0,0,0,9.62-3.52l.53,1.58c-2.17,2.52-6,4.28-10.26,4.81-.7,10.14-5.51,17.83-12.73,17.83-5.1,0-9.15-2.58-9.15-9.27s3.28-20.7,15.36-20.7C274.11,117.07,276,120.35,276.11,126.33Zm-3,3c-1.94,0-2.35-1-2.35-2.4a2.64,2.64,0,0,1,2.52-3c-.29-2.76-1.58-3.69-3.52-3.69-5.92,0-9.21,10.56-9.21,16.42,0,4,1.29,5.86,4.93,5.86S272.29,137.65,273.12,129.38Z"/><path class="cls-2" d="M302,142.57a4.69,4.69,0,0,0,1.82-.41c-.35,4.22-3.52,4.87-5.1,4.87-2.93,0-5-2.29-5-6.57,0-5,2.82-11.55,2.82-15.72,0-1.94-.59-3.23-2.58-3.23-2.46,0-4.57,2.05-6.51,6.27l-4,18.88h-5.86l6.22-29.32h5.92l-.94,4.4c3-4.1,5.92-4.69,8-4.69,4.75,0,6,3,6,6.57,0,5.22-2.82,11.55-2.82,15.83C299.92,141.64,300.62,142.57,302,142.57Z"/><path class="cls-2" d="M71.37,132.11l9.66-11a13.54,13.54,0,0,0,.22-2.32,11.73,11.73,0,0,0-2.6-7.38Q76,108,69.72,104.19A30.49,30.49,0,0,0,80,98.05a11.17,11.17,0,0,0,3.77-8.22,8.92,8.92,0,0,0-4.14-7.53q-4.15-3-10.68-3-7.71,0-12.78,4T51,93a12.2,12.2,0,0,0,2,6.94,21.16,21.16,0,0,0,6.26,5.76q-8.24,3.19-12.26,6.93a12.06,12.06,0,0,0-4,9.17,10.65,10.65,0,0,0,4.79,9.13q4.8,3.42,12.55,3.42A26.36,26.36,0,0,0,71.37,132.11ZM58,91.36a8.51,8.51,0,0,1,2.61-6.47,9.75,9.75,0,0,1,7-2.46,9.65,9.65,0,0,1,6.47,2,7.25,7.25,0,0,1,2.4,5.86q0,8.07-9.39,12.2a29.83,29.83,0,0,1-6.64-5.23A8.62,8.62,0,0,1,58,91.36ZM50.5,120.95a13,13,0,0,1,2.41-7.85q2.4-3.29,8.69-6,7.09,4.05,9.38,7.12A11,11,0,0,1,73.26,121a9.09,9.09,0,0,1-3.46,7.36,12.63,12.63,0,0,1-8.28,2.83,11.09,11.09,0,0,1-7.95-2.91A9.62,9.62,0,0,1,50.5,120.95Z"/><path class="cls-2" d="M112.7,86.22h-4.11c-2.69,2.63-52.38,59.41-52.38,59.41,3-.06,25.08-.15,25.08-.15S79.37,155.92,78.93,158h8.27c.37-2.52,2-12.52,2-12.52,3.76,0,10.48,0,13.89.15l.88-5.74H90.25l2-15.49H84.89l-2.58,15.49H65.22C66.47,138.53,109.47,89.33,112.7,86.22Z"/><path class="cls-2" d="M262.39,61.05,268.33,33c-3.52-2-8.91-3.36-14-3.91-6,12-10.55,26.26-10.55,35.56a17.52,17.52,0,0,0,.7,5.31c-3.91,0-8.83-1.09-8.83-8.28s4.92-20.63,12.11-32.9c-6.25.23-11.41,2-11.41,4.84a1.9,1.9,0,0,1,1.56,2c0,2.42-2,3.13-3.83,3.13-2.19,0-4.3-1-4.3-4.06,0-5.63,7.42-9.07,16.64-9.07,1,0,2.11.08,3.2.16,8-12.66,18.13-23.29,27.51-23.29a17.57,17.57,0,0,1,6,1.09L270.91,61.05Zm6.41-30.48L274,6.27c-5.39.24-12.43,9.07-18.29,20.24A47.42,47.42,0,0,1,268.8,30.57Z"/><path class="cls-2" d="M288.47,32.62l-4.12,19.17a7.58,7.58,0,0,0-.23,1.86c0,2.2,1.13,3.21,2.54,3.21,2.14,0,4.91-2.26,5.7-6.15l3.83-18.1h5.64l-4.06,19.17a7.61,7.61,0,0,0-.23,1.86c0,1.86.73,3.21,2.42,3.21,6.32,0,9.47-14.15,9.47-20a3.27,3.27,0,0,1-2,.45c-1.07,0-1.69-1.13-1.69-2.42a3.08,3.08,0,0,1,2.88-3.27c2.42,0,3.55,1.75,3.55,4.79,0,9.92-5.64,24.75-13.42,24.75-3.66,0-6.15-1.58-6.77-4.79-2.14,3.33-4.79,4.79-7.22,4.79-3.38,0-6.2-2.88-6.2-7.56a13.29,13.29,0,0,1,.34-2.88l3.83-18.1Z"/><path class="cls-2" d="M338.21,32.62l-4.12,19.17a11.23,11.23,0,0,0-.28,2.54c0,1.3.34,2.54,1.75,2.54,1.8,0,3.72-2.31,5.36-6.15H343c-3.66,9.42-7.33,10.43-9.81,10.43s-4.23-1.64-4.51-5.53c-1.75,3-5,5.53-8.57,5.53s-7.22-2.48-7.22-9.08c0-7.61,5-19.74,14.44-19.74,1.8,0,4.06.68,4.62,3l.56-2.71Zm-9.53,18.1,2.71-12.8a2.82,2.82,0,0,0-2.82-2.48c-6.2,0-9.64,10.21-9.64,15.84,0,4.29,1.41,5.58,3.55,5.58C324.84,56.86,327.94,54.16,328.68,50.72Z"/><path class="cls-2" d="M349.82,32.62l-1,4.62c2.14-2.37,4.45-4.91,7.56-4.91,2.26,0,3.16,1.13,3.16,2.65a3.4,3.4,0,0,1-3.27,3.66c-1.3,0-1.18-1.41-2.82-1.41s-3.61,1.41-5.19,2.76l-4.45,20.81h-5.64l6-28.19Z"/><path class="cls-2" d="M384.67,21.34l-6.54,30.45a12.51,12.51,0,0,0-.23,2.42c0,1.58.45,2.65,2,2.65a4.76,4.76,0,0,0,1.8-.34c-.9,3.55-2.42,4.62-4.45,4.62-2.48,0-4.23-1.64-4.51-5.53-1.75,3-5,5.53-8.57,5.53s-7.22-2.48-7.22-9.08c0-7.61,5-19.74,14.44-19.74,1.86,0,4.06.68,4.62,3l2.82-13.25Zm-12,29.38,2.71-12.8a2.78,2.78,0,0,0-2.82-2.48c-6.2,0-9.64,10.21-9.64,15.84,0,4.29,1.41,5.58,3.55,5.58C368.82,56.86,372,54.22,372.71,50.72Z"/><path class="cls-2" d="M7.89,29C3,29,0,27,0,21.55,0,10.33,14.15,0,29.52,0c12,0,17.32,6.26,17.32,12.93,0,4.88-2.93,10-8.29,13,9.76,3.51,11.92,12.59,11.75,18.69-.54,19.52-18.43,27.29-37.14,25-4.84-.59-7.88-3.09-8.61-6A7.91,7.91,0,0,1,5,59.13c1.37,3.26,4.36,3.87,6.53,4,13.1.9,28.28-5.33,29.41-17.55.59-6.35-2-16.7-11.67-16.65-.57,0-2.76.16-4.55.33l-6,28.09H9.77L20.25,8.86l9.11-1.22L25.45,26h1.46c7.48,0,13.34-7.4,13.34-13.5,0-5-4.07-9.6-12.36-9.6C18,2.93,6.75,9.52,6.75,23.5A12.56,12.56,0,0,0,7.89,29Z"/><path class="cls-2" d="M60.22,49.68c-.06.63-.06,1.21-.06,1.78,0,3.91,1.32,5.69,5,5.69s7.41-1.78,10.4-6.26H77.4c-3,5.63-8.85,10.63-15,10.63-4.42,0-8.5-2.59-8.5-9.19s4-20.17,14.54-20.17c3.16,0,6.15,1.21,6.15,5.92C74.58,44.51,69.12,48.76,60.22,49.68Zm.29-2.24c6.38-1,10.57-4.77,10.57-9.94,0-1.32-.29-2.53-2.13-2.53C64.7,35,61.54,41.52,60.5,47.44Z"/><path class="cls-2" d="M77.67,38.45l1.54-6.3,6-.8-1.72,7.1h5.86l-.4,2H83L80.45,52a13.8,13.8,0,0,0-.4,2.47c0,1.38.46,2.7,2.18,2.7,2.07,0,4.42-2.36,6.32-6.26h2.13c-4,8.45-8,10.63-10.86,10.63-4.25,0-5.4-3.16-5.4-6.44a22.64,22.64,0,0,1,.52-4.2l2.34-10.42Z"/><path class="cls-2" d="M88.76,38.45h1.9l1.54-6.3,6-.8-1.72,7.1h5.71l-.4,2H96L93.44,52a13.8,13.8,0,0,0-.4,2.47c0,1.38.46,2.7,2.18,2.7,2.07,0,4.42-2.36,6.32-6.26h2.13c-4,8.45-8,10.63-10.86,10.63-4.25,0-5.4-3.16-5.4-6.44a22.64,22.64,0,0,1,.52-4.2l2.34-10.42h-1.9Z"/><path class="cls-2" d="M107.92,49.68c-.06.63-.06,1.21-.06,1.78,0,3.91,1.32,5.69,5,5.69s7.41-1.78,10.4-6.26h1.84c-3,5.63-8.85,10.63-15,10.63-4.42,0-8.5-2.59-8.5-9.19s4-20.17,14.54-20.17c3.16,0,6.15,1.21,6.15,5.92C122.28,44.51,116.82,48.76,107.92,49.68Zm.29-2.24c6.38-1,10.57-4.77,10.57-9.94,0-1.32-.29-2.53-2.13-2.53C112.4,35,109.24,41.52,108.2,47.44Z"/><path class="cls-2" d="M132.34,32.44l-1,4.71c2.18-2.41,4.54-5,7.7-5,2.3,0,3.22,1.15,3.22,2.7a3.47,3.47,0,0,1-3.33,3.74c-1.32,0-1.21-1.44-2.87-1.44s-3.68,1.44-5.29,2.82l-4.54,21.2h-5.75l6.09-28.73Z"/><path class="cls-2" d="M158.23,70.63c7.58,1.9,15.08,9.73,24.48,9.73A16.72,16.72,0,0,0,189.54,79c-.91,6.92-3.71,11-9.15,11-8.65,0-18.22-14.1-29.86-15.75-.65-.09-1.22-.2-1.93-.27L163.22,7.86C154,10.17,149,13.21,149,22.77c0,3.79,1,5.19,2,6.26-5.44,0-8.82-2.06-8.82-7.58,0-11.62,13.94-18.37,27.62-18.37,1.24,0,2.31.08,3.38.17Z"/><path class="cls-2" d="M186.66,32.44,182.46,52a11.44,11.44,0,0,0-.29,2.58c0,1.32.35,2.59,1.78,2.59,1.84,0,3.79-2.36,5.46-6.26h2.13c-3.74,9.6-7.47,10.63-10,10.63-3.91,0-5.11-2.93-5.11-6.38a21.5,21.5,0,0,1,.52-4.25l3.91-18.45ZM185.1,20.32A3.93,3.93,0,0,1,189,24.17,3.84,3.84,0,0,1,185.1,28a3.75,3.75,0,0,1-3.79-3.79A3.84,3.84,0,0,1,185.1,20.32Z"/><path class="cls-2" d="M199.07,32.44h5.48l-.4,2h-5.54L192,65.77c-1.72,8.22-4,9.77-7.81,9.77-3.51,0-6.32-1.44-6.32-5.17s4.94-6.72,9.19-8.45l7-33c1-4.54,3-10.8,10.46-10.8,4.42,0,6.61,2.93,6.61,6.61a11.23,11.23,0,0,1-.17,2h-2.3a5,5,0,0,0,.17-1.38c0-1.78-.86-3.56-2.93-3.56-4.08,0-5.23,3.1-6.26,7.93ZM186.2,65.89l.4-1.84c-4.19,1.84-6.49,4.2-6.49,6.26a2.05,2.05,0,0,0,2.13,2.24C184.36,72.55,185.34,69.85,186.2,65.89Z"/><path class="cls-2" d="M207.81,49.68c-.06.63-.06,1.21-.06,1.78,0,3.91,1.32,5.69,5,5.69a10,10,0,0,0,6.84-2.76c-1,5.63-5,7.13-9.6,7.13-4.42,0-8.5-2.59-8.5-9.19s4-20.17,14.54-20.17c3.16,0,6.15,1.21,6.15,5.92C222.17,44.51,216.71,48.76,207.81,49.68Zm.29-2.24c6.38-1,10.57-4.77,10.57-9.94,0-1.32-.29-2.53-2.13-2.53C212.29,35,209.13,41.52,208.09,47.44Z"/></svg>