<svg xmlns="http://www.w3.org/2000/svg" viewBox="0 0 316.8 139.95"><defs><style>.cls-1{fill:#f9e0cd;}.cls-2{fill:#221714;}.cls-3{fill:#da3b2b;}</style></defs><title>logo</title><g id="logo_decoration"><path class="cls-1" d="M311.71,57.83c0,13.6-2.34,23.06-7,29.11S293.16,95.65,284,95.65,267.9,93,263.27,86.94s-7-15.51-7-29.11.3-25.3,3.92-31.46S270.75,19.6,284,19.6s20.18.62,23.79,6.77S311.71,44.23,311.71,57.83Z"/><path class="cls-2" d="M284,99.31a44.38,44.38,0,0,1-4.69-.22A49.33,49.33,0,0,1,273,98a20.25,20.25,0,0,1-5.21-2.26A27.37,27.37,0,0,1,259.45,88a20.35,20.35,0,0,1-1.71-2.83c-.57-1.28-1.05-2.59-1.54-3.9s-.74-2.51-1.24-3.75a21.06,21.06,0,0,1-.87-3.82,55.55,55.55,0,0,1-1.23-9.09c-.11-3.9,0-7.77.05-11.66l0-1.7v-1.7l.09-1.69c0-.55,0-1.13,0-1.68-.06-1.75.19-3.61.3-5.37q.19-3,.66-5.89c.09-.59.05-1.17.14-1.74a17.39,17.39,0,0,1,.66-2.29,49.68,49.68,0,0,1,2.44-6.1l.89-1.38a13,13,0,0,0,1-1.15A7.24,7.24,0,0,1,260.24,21c.42-.37.92-.67,1.31-1.07l1.4-.88c.79-.25,1.55-.52,2.32-.82A23.53,23.53,0,0,1,269.21,17c1.09-.23,2.17-.3,3.27-.48h1.65l1.65,0c1.47-.06,2.95-.09,4.42-.1h2.21c.53,0,1.05-.07,1.59-.08l2.64-.06c1.18,0,2.33-.06,3.51,0,1.79.07,3.58.27,5.36.42l1.63.19,1.62.31,1.61.29a17.47,17.47,0,0,1,2.78.72c.18.07.33.2.52.26a6.79,6.79,0,0,1,1.27.76l1.42.8,1.25,1,1.16,1.13,1.15,1.17,1,1.32.6,1.59.68,1.54.59,1.58.49,1.62.22,1.68.43,1.63.25,1.67.15,1.68.3,1.67.1,1.69.21,1.68v1.7a18.43,18.43,0,0,0,.12,1.94c.05.49,0,1,0,1.44l.12,1.69-.11,1.69.05,1.7V54.6l0,1.7a29.65,29.65,0,0,1-.11,5l.08,1.64L315,64.54a12.52,12.52,0,0,1-.1,1.84c-.36,1.55-.11,3.14-.46,4.69l-.36,1.6-.36,1.6-.27,1.62-.5,1.56-.5,1.56c-.38,1.33-.93,2.59-1.26,3.94a16.55,16.55,0,0,1-2.52,4.76,23.59,23.59,0,0,1-8.15,7.41,29.71,29.71,0,0,1-6.89,3.07A39.8,39.8,0,0,1,284,99.31Zm0-76.14c-.22,0-.45.06-.68.07-.92,0-1.83.05-2.75.12a42.2,42.2,0,0,0-6.88.12,7.49,7.49,0,0,0-1.7.14l-1.64.58-1.7.25-1.58.65-1.47.84-1.36,1-1,1.4-.75,1.48c-.19.37-.37.74-.55,1.12s-.23,1-.41,1.49a28.11,28.11,0,0,0-1.41,4.75,20.63,20.63,0,0,0-.08,2.73c0,1.55-.2,3.13-.16,4.67a30,30,0,0,1-.08,5l0,1.67L259.75,53c-.09,2.23,0,4.47.06,6.7.07,1.46.05,2.93.07,4.39a49,49,0,0,0,1.05,8.81l.39,1.61a43,43,0,0,0,2.37,6.85,10,10,0,0,0,1.47,2.62,28.25,28.25,0,0,0,3.2,3.44,30.29,30.29,0,0,0,3.95,2.76,9.8,9.8,0,0,0,1.8.56c1.13.31,2.24.85,3.45,1.06,1,.18,2,.3,3.06.46l1.68.19a19.51,19.51,0,0,0,3.74,0c1.59-.14,3.09-.15,4.64-.44A22.22,22.22,0,0,0,295.42,90a18.69,18.69,0,0,0,9.3-9.52,28.38,28.38,0,0,0,1.56-4.45,43.09,43.09,0,0,0,1-4.87q.24-1.64.5-3.28l.12-1.65c0-.58.25-1.1.28-1.7a39.12,39.12,0,0,0,.26-4.33c-.11-2.05.1-4,0-6.1s-.28-4.17-.38-6.21L308,46.27l.09-1.68-.21-1.67-.11-1.67-.09-1.68-.31-1.65-.19-1.66-.38-1.64L306.56,33c-.26-.63-.34-1.28-.62-1.91a35.16,35.16,0,0,0-1.88-3.77,6.61,6.61,0,0,0-1.58-1.5L301,25a20.43,20.43,0,0,0-2.78-.87,11.06,11.06,0,0,0-3.82-.56c-1.17,0-2.34-.16-3.51-.13a19,19,0,0,1-3.42-.25c-.7-.11-1.58,0-2.33,0A5.58,5.58,0,0,0,284,23.17Z"/><path class="cls-2" d="M215.84,86.43a3.67,3.67,0,0,1-3.77-4.18,4,4,0,0,1,.57-1.92,4,4,0,0,1,1.57-1.29,10,10,0,0,0,1.75-1,12.16,12.16,0,0,0,1.59-1.26,14.2,14.2,0,0,0,1.35-1.52,11.49,11.49,0,0,0,2.24-4.11c.39-1.5.54-3.12.78-4.6a19.35,19.35,0,0,0,0-3.2,11.39,11.39,0,0,0-.4-3.35,11.13,11.13,0,0,1-.38-1.44,13,13,0,0,0-1.24-3.65,12.36,12.36,0,0,0-1.53-2.15,15,15,0,0,0-1.3-1.31,14.79,14.79,0,0,0-1.31-1.33,14.62,14.62,0,0,0-1.57-1,15.6,15.6,0,0,0-1.76-.62,16.11,16.11,0,0,0-1.72-.69c-.58-.16-1.2-.24-1.82-.34s-1.21-.12-1.84-.17-1.21-.12-1.85-.12a17.91,17.91,0,0,0-2,.22,15.68,15.68,0,0,0-2,.26,14.4,14.4,0,0,0-2,.52,14.81,14.81,0,0,0-1.81.94,17.74,17.74,0,0,0-1.6,1.26c-.53.39-1.1.75-1.62,1.22a14,14,0,0,0-1.3,1.29A17.59,17.59,0,0,0,190,56.84a22.73,22.73,0,0,0-1.88,9.06,20.32,20.32,0,0,0,0,2.68,22.23,22.23,0,0,0,.47,3.09c.28,1.26,1.15,3.55,2.47,4,1.75.66,3.28-.63,4.37-1.85a9.43,9.43,0,0,0,1.25-1.72,19.82,19.82,0,0,0,.84-1.95c.29-.69.51-1.38.72-2s.3-1.31.48-2,.52-1.25.68-1.9.19-1.33.32-2,.33-1.3.44-2,.25-1.32.35-2a3.73,3.73,0,0,1,.73-1.81,3.85,3.85,0,0,1,1.55-1.23,3.9,3.9,0,0,1,2-.24,3.8,3.8,0,0,1,1.77.87,3.93,3.93,0,0,1,1.3,1.51,4,4,0,0,1,.21,2c-.09.62-.26,1.25-.38,1.9s-.22,1.26-.37,1.9-.39,1.22-.56,1.85-.4,1.22-.59,1.83-.17,1.3-.38,1.91-.53,1.18-.77,1.78-.58,1.16-.85,1.73-.64,1.12-.95,1.68-.52,1.2-.87,1.72-.76,1.06-1.15,1.55A16.39,16.39,0,0,1,200,78.82a12.89,12.89,0,0,1-1.49,1.23,14.32,14.32,0,0,1-3.18,1.89c-3.7,1.35-7.78-.36-10.18-3.29A13.47,13.47,0,0,1,184.06,77a16.65,16.65,0,0,1-1-1.71c-.26-.59-.35-1.26-.56-1.91s-.56-1.21-.71-1.86-.14-1.32-.23-2-.3-1.3-.32-2,.08-1.31.11-2,.08-1.32.16-2,.19-1.31.32-2,.35-1.28.52-1.94.31-1.29.51-1.94a42.94,42.94,0,0,1,1.66-4.25c.15-.33.3-.67.46-1a19.47,19.47,0,0,1,1.24-2.06c.38-.55.75-1.12,1.18-1.65s1-.93,1.45-1.42.9-1,1.41-1.46,1-.9,1.57-1.29,1.12-.77,1.71-1.11,1.28-.46,1.89-.74,1.22-.55,1.86-.77,1.25-.5,1.91-.67,1.32-.25,2-.35,1.33-.21,2-.26,1.34,0,2,0,1.31,0,1.94.07,1.32,0,1.94.12,1.3.22,1.92.35,1.25.42,1.86.59,1.34.16,1.92.38,1.19.58,1.75.86,1.08.75,1.62,1.08,1.09.72,1.59,1.1,1.17.65,1.64,1.07.89,1,1.31,1.44.87,1,1.24,1.49.89,1,1.24,1.54c.54.83.68,1.86,1.26,2.64a8,8,0,0,1,.84,1.81,21.34,21.34,0,0,1,1.38,4.72c.11.63.13,1.29.21,2s.25,1.28.28,2,0,1.3,0,2-.23,1.26-.28,1.89a28.28,28.28,0,0,1-.72,5.3,22,22,0,0,1-1.63,3.83,18.63,18.63,0,0,1-4.69,5.91,24.47,24.47,0,0,1-2.84,2.43,16.5,16.5,0,0,1-1.65.93A3.78,3.78,0,0,1,215.84,86.43Z"/><path class="cls-2" d="M112.4,48.92s0,0,0,0a0,0,0,0,1,0,0c-2.37.09-4.8-.11-7.13.18a16.67,16.67,0,0,1-1.71-.08c-.94,0-.94-.06-1.88,0a5.32,5.32,0,0,0-1.17.22,8.13,8.13,0,0,1-1.38-.1c-.41,0-.8,0-1.21,0-.94,0-.94,0-1.89,0s-.95-.1-1.89-.08l-.08,0c-.61,0-1.22.19-1.64-.09a3.12,3.12,0,0,1-.93-1.38,3.86,3.86,0,0,1-.15-1.58,3.79,3.79,0,0,1,.19-1.62,2.56,2.56,0,0,1,1.37-1.39l.83-.3a1.55,1.55,0,0,1,.36-.1,1.48,1.48,0,0,1,.4,0,11.25,11.25,0,0,0,1.93.16l1.49,0c.94,0,.94,0,1.88,0s.94,0,1.88,0c.34,0,.67,0,1,0,.49,0,1,0,1.49,0,1,0,2.1,0,3.14.05a6.28,6.28,0,0,0,.72,0,13.35,13.35,0,0,1,1.62,0c.21,0,.43,0,.64,0s.51.08.77.08c.72,0,1.43,0,2.14-.05.25,0,.51,0,.76,0s.56,0,.85.05c.94,0,.94.08,1.88.09s.94,0,1.88,0c.66,0,1.3,0,2-.08a1.67,1.67,0,0,1,.59.06,4.91,4.91,0,0,0,.92,0,9.26,9.26,0,0,0,2.2-.15c-.05,0-.07-.07-.06-.13a25.18,25.18,0,0,0,.05-2.79,21,21,0,0,0,0-2.11.48.48,0,0,1-.37,0,2.37,2.37,0,0,0-.36-.11c-.29,0-.58.06-.87,0a2.72,2.72,0,0,0-.74,0,12.76,12.76,0,0,1-1.42.21c-.93,0-.93-.1-1.85-.09s-.93-.12-1.86-.11-.93,0-1.86,0-.93.17-1.85.18-.93-.16-1.86-.15-.93.15-1.86.15-.93-.07-1.86-.06a2.13,2.13,0,0,1-1.82-.84,3.57,3.57,0,0,1-.46-2,3.5,3.5,0,0,1,.64-1.91A1.86,1.86,0,0,1,107.5,32c.93,0,.93-.17,1.85-.17s.93.08,1.86.08.93,0,1.85,0,.93,0,1.86,0,.93.11,1.86.12c1.12,0,2.26.13,3.38.12.44,0,.87-.08,1.31-.1a5.68,5.68,0,0,1,.76,0,9.09,9.09,0,0,0,1.8,0,4,4,0,0,0,.08-1.26c0-.57,0-1.15,0-1.72a14.27,14.27,0,0,0,.08-2,14.79,14.79,0,0,0-1.79-.07c-.71,0-1.4-.08-2.11-.08-1,0-1,.06-2,.07s-1,0-2,.05a12.7,12.7,0,0,1-1.57.08A17.9,17.9,0,0,0,112.4,27a12.92,12.92,0,0,1-1.61,0,20,20,0,0,0-2.33-.14l-2,0c-1,0-1,.09-2,.09-1.36,0-2.7.23-4,.11l-.33,0a7.27,7.27,0,0,1-3-.47,3.36,3.36,0,0,1-1.5-1.4,2.85,2.85,0,0,1,.87-3.9,2.27,2.27,0,0,1,1.45-.4,3.89,3.89,0,0,0,.86,0,1.85,1.85,0,0,1,.64-.14c.93.06,1.89.06,2.81.06s.93-.06,1.86-.06.93.08,1.87.08c.48,0,1-.11,1.43-.15.75-.06,1.56,0,2.31,0,.94,0,.94.08,1.87.08s.94.05,1.87.05,1,.2,1.88-.08c-.3-.5-.79-.86-1.11-1.32s-.55-1-.89-1.46-.71-.89-1.07-1.33-.54-1-.92-1.47a2.48,2.48,0,0,1-.69-1.74,2.85,2.85,0,0,1,.4-1.68,3.8,3.8,0,0,1,1.42-1,3.71,3.71,0,0,1,1.64-.65,4.86,4.86,0,0,1,3.19,1.78,26.76,26.76,0,0,1,2.61,3c.37.51.66,1.09,1,1.63s.47.79.71,1.19a11.87,11.87,0,0,1,.9,1.5,10.71,10.71,0,0,1,.41,1.46,13.11,13.11,0,0,0,2.38,0c1.2,0,1.2,0,2.39,0,.93,0,.93.23,1.86.21s.93.07,1.86.05a5,5,0,0,0,1.86-.17c.29-.56.53-1.16.81-1.75s.5-1.19.76-1.78.76-1.1,1-1.69.45-1.24.67-1.83.5-1.24.69-1.82a4,4,0,0,1,1-1.8,3,3,0,0,1,1.9-1,4,4,0,0,1,1.84.89,3.92,3.92,0,0,1,1.38,1.37,3.43,3.43,0,0,1,.49,1.86,4.93,4.93,0,0,1-.43,2c-.25.59-.62,1.2-1,1.85s-.45,1.23-.77,1.8-.63,1.17-.91,1.78c.52,0,1,.09,1.53.09.91,0,.91,0,1.83,0s.91,0,1.83,0,.91.05,1.83.05.92,0,1.83,0,.91,0,1.83,0h1.83c.92,0,.92,0,1.84,0s.92-.13,1.84-.13a2.73,2.73,0,0,1,1.49.63,3,3,0,0,1,1.19,1.11,4.14,4.14,0,0,1,.26,1.64,2.76,2.76,0,0,1-.49,1.46,2.28,2.28,0,0,1-1.18.95,7.73,7.73,0,0,1-2.69.46c-1.07.08-2.13.06-3.2.06a33.36,33.36,0,0,1-5,0A30,30,0,0,0,143,27c-1,0-1,.06-2,.06h-2c-1,0-1-.13-2-.13s-1,.11-2,.1-1,0-2-.05a5.57,5.57,0,0,0-2,.09c0,.76-.08,1.52-.11,2.28s-.11,1.63-.12,2.45c.75,0,1.48,0,2.22,0,.58,0,1.15.18,1.73.17.93,0,.94.09,1.87.09a8.8,8.8,0,0,1,1.19-.09q.85.1,1.7.16c.48,0,.91,0,1.38,0,1.1,0,2.2.07,3.3.06.53,0,1.05,0,1.58,0a9.43,9.43,0,0,1,3.07.25c1.07.32,1.33,1.44,1.33,2.46A2.38,2.38,0,0,1,150,36l-.11.2a2.75,2.75,0,0,1-1.52,1.3,12.3,12.3,0,0,1-2.39.13c-.94,0-.94.06-1.87.05s-.93.05-1.87,0c-.42,0-.84,0-1.26.06a14.38,14.38,0,0,1-1.52-.1l-.76,0c-2.2-.1-4.4-.18-6.6-.11a2.21,2.21,0,0,1-.32,0c-.15,0-.3-.07-.45-.09a2.91,2.91,0,0,0-.48,0,.23.23,0,0,0-.17,0,.24.24,0,0,0,0,.17c0,.61,0,1.19.06,1.8a28.3,28.3,0,0,1,.05,2.9.15.15,0,0,0,0,.08.15.15,0,0,0,.09.06,2.94,2.94,0,0,0,1.37,0,19.9,19.9,0,0,1,2.64.1c.6,0,1.16,0,1.76,0s1.43,0,2.13,0,1.19,0,1.76,0c1,0,.95,0,1.9,0s1,0,1.9,0,1,0,1.9,0,.95,0,1.9,0,1,.05,1.9.05.95,0,1.9,0l1.9,0c1,0,.95-.07,1.9-.07h1.9c1,0,1,0,1.91,0s1-.06,1.91-.06A2.75,2.75,0,0,1,163,43a2.86,2.86,0,0,1,.87,1.36,3.92,3.92,0,0,1,.22,1.56,3.71,3.71,0,0,1-.45,2.29,2.61,2.61,0,0,1-2.14.93s0,0-.09,0a13.51,13.51,0,0,0-1.55,0,14.07,14.07,0,0,1-2.1,0c-.67,0-1.35-.11-2-.12-.94,0-.94,0-1.89-.06L152,49c-.95,0-.95,0-1.89,0s-.95,0-1.89,0-.94-.17-1.89-.18-.95,0-1.9,0-1,.11-1.9.09"/><path class="cls-2" d="M66.79,63.32a8.93,8.93,0,0,1-1.89,0c-1,0-1-.07-1.92-.07-1.64,0-3.33-.08-5,0-.91,0-1.81,0-2.73,0s-1,.05-1.93,0-1,0-1.93,0-1,0-1.93,0-1.77.07-2.78,0a6.68,6.68,0,0,0-1.08-.08c.41.5.71,1.1,1.13,1.59,1.16,1.35,2.42,2.59,3.62,3.92a57.08,57.08,0,0,0,4.53,4.42c.48.43,1,.81,1.51,1.23s1.17.94,1.77,1.4c.44.34.9.59,1.34.93a88.32,88.32,0,0,0,8,5.47c.55.34,1,.79,1.59,1.12s1.19.53,1.75.84,1,.8,1.61,1.11,1.18.53,1.76.83a4.08,4.08,0,0,1,2,4.27c-.4,1.9-2.25,2.79-4,3.13a3.29,3.29,0,0,1-2-.37,15.13,15.13,0,0,1-1.75-.68c-.51-.28-1.17-.39-1.75-.74-.87-.54-1.71-1.07-2.53-1.67L61,87.51c-.92-.69-1.71-1.52-2.64-2.21A55.44,55.44,0,0,1,53.56,81c-.45-.43-.95-.82-1.4-1.27a46.32,46.32,0,0,1-4.25-4.27c-.35-.45-.68-.83-1.07-1.23s-.59-1.07-1-1.53-.79-1-1.19-1.46-.85-.93-1.25-1.42-.79-1-1.18-1.45c0,.82.06,1,.07,2s.09,1,.09,2-.07,1-.07,2,0,1,0,2,0,1,0,2,0,1,0,2,0,1,0,2,.06,1,.06,2-.05,1,0,2,0,1,.05,2,0,1,0,2c0,1.71.08,3.41,0,5.11a4.22,4.22,0,0,1-.67,2.53c-.37.5-.66,1.14-1.26,1.38a5.14,5.14,0,0,1-1.9.34,5,5,0,0,1-1.83-.51A3.33,3.33,0,0,1,35.35,98a3.6,3.6,0,0,1-.84-2.47c0-1.15.21-2.3.21-3.45s0-2.4,0-3.61.06-2.14.09-3.2q0-.75,0-1.51c0-.39-.09-.76-.08-1.15,0-.92.07-1.85.11-2.77s.11-2.05.12-3.08c0-1.72,0-3.42,0-5.14q0-.75,0-1.5c0-.34,0-.87,0-1.24a12,12,0,0,1-.8,1c-.27.32-.52.65-.79,1-.74.85-1.46,1.73-2.18,2.58-.42.5-.81,1-1.24,1.52s-.93.91-1.37,1.4-.76,1.07-1.21,1.55-.84,1-1.3,1.47c-.7.71-1.31,1.49-2,2.18s-1.43,1.31-2.16,2a66.08,66.08,0,0,1-7.51,6.12L12.8,90.64c-.6.39-1.21.75-1.8,1.13s-1.24.48-1.8.82-1.12.66-1.69,1A4.65,4.65,0,0,1,5,94.4a4.2,4.2,0,0,1-2-.3,4,4,0,0,1-1.39-1.44,3.37,3.37,0,0,1-.59-1.86,3.41,3.41,0,0,1,.53-2.15,5.91,5.91,0,0,1,1.8-1.34c.58-.31,1.1-.71,1.67-1,.39-.22.82-.23,1.22-.42a25,25,0,0,0,2.24-1.4c.54-.34,1.16-.63,1.73-1a7.21,7.21,0,0,0,.9-.68,10.73,10.73,0,0,0,1-.79A22.29,22.29,0,0,1,14.95,80c.4-.31.77-.64,1.14-1s.7-.38,1-.69a7,7,0,0,1,.86-.9c.49-.42,1-.85,1.46-1.29s1-.87,1.43-1.32,1-.82,1.48-1.28.81-1,1.26-1.5,1-.87,1.41-1.36.82-1,1.25-1.5.79-1,1.21-1.53a10.17,10.17,0,0,1,1.05-.94,11.66,11.66,0,0,0,.78-1c.67-.76,1.28-1.55,1.88-2.36-1-.3-.94-.09-1.94-.09s-1,0-2,0-1-.08-2-.07l-2,0c-1,0-1,0-2,0s-1,.09-2,.09c-1.2,0-2.43-.07-3.63,0-.8,0-1.61,0-2.41,0s-1.34.08-2,0A2.66,2.66,0,0,1,8.9,62.23a1.77,1.77,0,0,1-.18-.32A4.21,4.21,0,0,1,8.37,60a4.14,4.14,0,0,1,.21-1.59A3.24,3.24,0,0,1,9.43,57,2.57,2.57,0,0,1,11,56.7c1.4,0,2.78-.09,4.19,0,.84,0,1.71-.12,2.55-.11,1.1,0,2.18.16,3.28.16s1,0,2,0c.68,0,1.36-.06,2-.08s1.29.11,2,.11,1.61-.06,2.41-.06c.53,0,1.06.06,1.6.06s1.37,0,2,0a6.9,6.9,0,0,0,1.78-.09c.16-.06.19-.28.19-.45,0-.61,0-1.23,0-1.84S35,53.24,35,52.64s-.06-1.51,0-2.26c0-.92,0-1.85-.07-2.77,0-.39,0-.78,0-1.17,0-1.32-.29-2.72.5-3.91a3.21,3.21,0,0,1,1.39-1.19,4.74,4.74,0,0,1,1.82-.42,5.12,5.12,0,0,1,1.89.34,3.72,3.72,0,0,1,1.53,1.17,4.24,4.24,0,0,1,.5,2.49,25.87,25.87,0,0,1-.21,3.15c-.08.84,0,1.7-.1,2.53s0,1.51,0,2.28c0,.6-.09,1.19-.1,1.8s0,1.28,0,1.94c0,.48,4.6,0,5,0,.91,0,1.79.11,2.69.11s.95-.08,1.9-.08c.48,0,.83,0,1.29,0s.93,0,1.39,0,.74,0,1.12,0h1.9c1,0,1,0,1.9,0s1,0,1.9,0,1,.06,1.9.06,1-.15,1.9-.15,1-.14,1.91-.15a2.61,2.61,0,0,1,1.54.75,3.23,3.23,0,0,1,1.07,1.3,4.77,4.77,0,0,1,.21,1.68,3.25,3.25,0,0,1-1.49,2.78A6.18,6.18,0,0,1,66.79,63.32Z"/><path class="cls-2" d="M36.5,33c.68,0,1.33-.07,2-.08s1.33.12,2,.14,1.35,0,2,.08,1.36,0,2,.09,1.38-.07,2,0,1.35.19,2,.31,1.3.44,1.93.59a19.57,19.57,0,0,1,3.63,1.21,15.61,15.61,0,0,1,1.65.8c.48.29.82.75,1.28,1.05A20.26,20.26,0,0,1,60.53,40a17.67,17.67,0,0,1,3,4.95,27,27,0,0,1,1.84,4.71,3.6,3.6,0,0,0,2.94,2.87,4,4,0,0,0,2.08-.17,4.07,4.07,0,0,0,1.91-.89,3.72,3.72,0,0,0,1.07-4,18.5,18.5,0,0,0-.61-2A7.84,7.84,0,0,0,72,43.83a14.79,14.79,0,0,1-.91-2.08,14.28,14.28,0,0,0-1-1.67c-.36-.58-.65-1.2-1-1.73s-.81-.76-1.14-1.23a13.9,13.9,0,0,0-1.37-1.62,18.68,18.68,0,0,0-2.13-1.9c-.61-.45-1.09-1-1.67-1.47A17.71,17.71,0,0,0,58.4,29.6c-.59-.26-1.28-.32-1.91-.55-.9-.33-1.82-.68-2.74-.95a25.15,25.15,0,0,0-3.94-1c-.64-.08-1.26-.22-1.89-.33-1.08-.19-2.18-.24-3.28-.33-.66-.05-1.35-.05-2-.09-1.34-.07-2.75-.1-4.1-.1a70.84,70.84,0,0,0-8.18.35c-.66.08-1.38.14-2,.23s-1.37.26-2,.38-1.33.36-2,.52-1.29.48-1.93.68-1.26.4-1.87.62-1.29.34-1.88.61-1.18.62-1.75.93A19.78,19.78,0,0,0,13.21,33c-.32.28-.5.69-.83.95s-.53.26-.77.43A6.71,6.71,0,0,0,10,36.1c-.65,1-1.57,1.78-2.21,2.81s-1.38,1.86-1.92,2.88a28,28,0,0,0-1.42,3.78c-.22.62-.37,1.33-.54,1.94a4.1,4.1,0,0,0-.23,2.1,4.38,4.38,0,0,0,1,2,4.33,4.33,0,0,0,2,.89,4.12,4.12,0,0,0,2.12.13,4.2,4.2,0,0,0,1.85-1.09A4.59,4.59,0,0,0,11.48,50a18.79,18.79,0,0,0,.57-2c.18-.53.48-1,.69-1.55s.52-1,.76-1.51c.41-.85.82-1.63,1.29-2.44a16.15,16.15,0,0,1,2.86-3.6c.59-.55,1.24-1,1.85-1.53.22-.19.39-.44.61-.62a12.18,12.18,0,0,1,1.16-.6A15.8,15.8,0,0,1,23,35.46a28.49,28.49,0,0,1,2.64-1.33,26.44,26.44,0,0,1,3.73-.69A30.1,30.1,0,0,1,33.55,33a23.5,23.5,0,0,1,2.63,0Z"/><path class="cls-2" d="M97.43,64.69c-.58,0-1.17.09-1.76.05s-1.15-.17-1.74-.25-1.18-.06-1.75-.18a3.62,3.62,0,0,1-1.64-.87,3.54,3.54,0,0,1-.91-1.58,3.44,3.44,0,0,1-.15-1.8,3.54,3.54,0,0,1,.8-1.64,3.5,3.5,0,0,1,1.58-.89,3.44,3.44,0,0,1,1.8-.23,19,19,0,0,0,2.38.36,16.76,16.76,0,0,0,2.4,0c.62,0,1.25,0,1.87-.07s1.21-.3,1.81-.45,1.19-.34,1.78-.55,1.16-.43,1.73-.69,1.12-.53,1.67-.83,1-.69,1.55-1,1.12-.56,1.63-.92.93-.83,1.41-1.22.94-.82,1.39-1.24l1.61-1.5c.52-.5,1.1-1,1.61-1.5s1-1.1,1.45-1.65a2.79,2.79,0,0,1,1.89-1,2.71,2.71,0,0,1,2,.71,2.67,2.67,0,0,1,1,1.82,2.82,2.82,0,0,1-.54,2.08c-.39.46-.92.81-1.31,1.29s-.76,1-1.16,1.42-.8.93-1.21,1.37-.8,1-1.23,1.35-1,.74-1.43,1.16-.85.88-1.31,1.29-1,.72-1.46,1.11-.85.91-1.34,1.28-1,.7-1.52,1-1,.66-1.57,1-1.12.5-1.67.76a18.19,18.19,0,0,1-1.69.71c-.7.25-1.4.5-2.11.69s-1.44.39-2.17.5-1.47.24-2.21.28C98.4,64.85,97.92,64.69,97.43,64.69Z"/><path class="cls-2" d="M157.43,64.76c.58,0,1.17,0,1.75-.05s1.16-.09,1.75-.17,1.13-.28,1.71-.41a3.32,3.32,0,0,0,1.58-.8,3.58,3.58,0,0,0,1.14-1.43,3.59,3.59,0,0,0-.08-1.83,3.57,3.57,0,0,0-.67-1.7,3.64,3.64,0,0,0-1.58-1,3.57,3.57,0,0,0-1.84-.17,19.19,19.19,0,0,1-2.37.41,16.83,16.83,0,0,1-2.4,0,18.56,18.56,0,0,1-1.84-.27c-.61-.1-1.24-.11-1.84-.27s-1.18-.4-1.76-.61-1.14-.48-1.71-.74-1.13-.51-1.67-.81-1.13-.53-1.65-.87-1-.7-1.53-1.07-1-.77-1.45-1.17-1-.78-1.43-1.2-1-1-1.54-1.57-1.13-.93-1.65-1.47-1-1.07-1.49-1.63A2.78,2.78,0,0,0,135,45a2.74,2.74,0,0,0-2,.77,2.63,2.63,0,0,0-1,1.8,2.78,2.78,0,0,0,.54,2.06l1.17,1.4c.39.47.9.85,1.29,1.31s.69,1,1.1,1.47.88.89,1.31,1.28l1.35,1.25c.45.41.89.84,1.36,1.24s1,.76,1.44,1.15.93.81,1.42,1.18,1.05.65,1.56,1,1,.74,1.52,1,1.14.46,1.7.72a18.29,18.29,0,0,0,1.67.75c.7.25,1.41.45,2.13.64s1.45.3,2.18.41,1.46.32,2.19.37C156.46,64.83,156.94,64.76,157.43,64.76Z"/><path class="cls-2" d="M53.07,25.49a4.81,4.81,0,0,1-1-.05,2.55,2.55,0,0,1-.87-.25,2.19,2.19,0,0,1-1.05-1.8,3.31,3.31,0,0,1,.49-2c.34-.57.8-1.09,1.15-1.71s.61-1.19.92-1.79.68-1.16,1-1.76.54-1.23.81-1.84.52-1.24.78-1.86a4,4,0,0,1,1.29-1.72,3.42,3.42,0,0,1,2-.62,4.54,4.54,0,0,1,1.94.48,4.3,4.3,0,0,1,1.59,1.21,3.12,3.12,0,0,1,.68,1.88,4.58,4.58,0,0,1-.4,1.73A10.9,10.9,0,0,1,61.53,17c-.32.51-.66,1-1,1.47s-.74,1-1,1.44-.67.93-1,1.43-.71.93-1.09,1.38A11.59,11.59,0,0,1,56.22,24a6.62,6.62,0,0,1-1.46,1A4.69,4.69,0,0,1,53.07,25.49Z"/><path class="cls-2" d="M20.62,23a18.7,18.7,0,0,0-1.1-1.59A18.17,18.17,0,0,0,18.26,20c-.45-.47-.92-.91-1.4-1.33s-1-.85-1.45-1.27-.94-.85-1.44-1.29a2.3,2.3,0,0,1-1-1.8,2.81,2.81,0,0,1,.67-1.69A4.1,4.1,0,0,1,15,11.45,4.19,4.19,0,0,1,16.82,11a4.59,4.59,0,0,1,2,.64,14.41,14.41,0,0,1,1.73,1.11c.53.39,1.09.81,1.62,1.28s1,1,1.44,1.47,1,1,1.38,1.53a14.37,14.37,0,0,1,1.2,1.68,4,4,0,0,1,.66,1.91,3.55,3.55,0,0,1-.51,1.86,4.39,4.39,0,0,1-1.36,1.39,3.46,3.46,0,0,1-1.84.61,2.7,2.7,0,0,1-1.45-.38A3.15,3.15,0,0,1,20.62,23Z"/><path class="cls-2" d="M39.83,23.52a2.77,2.77,0,0,1-1.58-.45,2.83,2.83,0,0,1-1-1.29,15.57,15.57,0,0,0-.89-1.8,17.87,17.87,0,0,0-1-1.73c-.38-.55-.76-1.11-1.19-1.63s-.86-1-1.31-1.53-.9-1-1.35-1.5a2.31,2.31,0,0,1-.59-1.48,2.4,2.4,0,0,1,.64-1.57,3.92,3.92,0,0,1,1.38-1,4.25,4.25,0,0,1,1.7-.34,3.51,3.51,0,0,1,1.74.54,10.47,10.47,0,0,1,1.44,1.15,17.46,17.46,0,0,1,1.36,1.24c.41.44.78.95,1.17,1.43s.79,1,1.13,1.46.67,1.07,1,1.58a16,16,0,0,1,.87,1.63A5.08,5.08,0,0,1,43.79,20a3.14,3.14,0,0,1-.66,1.8,4.29,4.29,0,0,1-1.42,1.3A4,4,0,0,1,39.83,23.52Z"/><path class="cls-2" d="M147.74,61.2a5.15,5.15,0,0,1,.1,1.2c.05.56.05,1.22.09,1.94.13,2.56.27,5.18.15,7.73a18.36,18.36,0,0,1-.21,1.88,9.17,9.17,0,0,1-.4,1.85,5.33,5.33,0,0,1-.91,1.68,5.57,5.57,0,0,1-1.61,1,9.33,9.33,0,0,1-1.77.57,15.27,15.27,0,0,1-1.81.48c-.57.09-1.2.07-1.88.14s-1.18.48-1.85.52-1.23-.11-1.9-.09-1.23.09-1.89.1-1.37-.16-2-.16c.42.56,1.18,1,1.66,1.54s.86,1.1,1.39,1.58,1.09.86,1.67,1.29,1,1,1.65,1.36c.51-.27,1.21-.42,1.84-.76s1.07-.71,1.68-1,1-.83,1.61-1.16l1.73-.94c.58-.32,1.28-.42,1.85-.74l1.71-1c.59-.34,1-.91,1.56-1.24s1.27-.53,1.78-.87a3.27,3.27,0,0,1,1.95-.69,3.89,3.89,0,0,1,1.82.24c.53.29.76,1,1.09,1.46a2.88,2.88,0,0,1,.69,1.58,2.32,2.32,0,0,1-.85,1.64,5.65,5.65,0,0,1-1.36,1.41c-.47.29-1.14.44-1.82.78-.52.27-1.12.52-1.78.84s-1.13.54-1.78.84-1.13.58-1.78.87-1.21.44-1.84.72a19.12,19.12,0,0,0-1.82.94c.55.26,1.24.42,1.83.65s1.45.51,2.19.74a39.76,39.76,0,0,0,3.87,1.07c1.49.31,3,.32,4.5.62a22.67,22.67,0,0,0,4,.33c1.2,0,2.36.07,3.56.12,1,0,1.91-.22,2.74.49a3.83,3.83,0,0,1,1.14,4A3.43,3.43,0,0,1,167,98.54a6.79,6.79,0,0,1-3.57.89c-.61,0-1.26-.28-1.94-.32s-1.28,0-2,0-1.25-.27-1.92-.37-1.29,0-1.95-.16a33,33,0,0,1-3.72-.5q-2.1-.62-4.17-1.36c-.7-.25-1.42-.22-2.09-.51-.83-.36-1.68-.57-2.52-.89a19.88,19.88,0,0,1-2.28-1.18c-1.78-.95-3.54-2-5.21-3.09-1.05-.67-2.14-1.3-3.17-2a19.93,19.93,0,0,1-1.58-1.42,35.26,35.26,0,0,1-2.75-2.78c-.31-.33-.6-.69-.88-1s-.34-.59-.58-.86A16.38,16.38,0,0,1,125,80.61c-.3-.48-.27-.5-.86-.56s-.95-.15-1.43-.15-1.24.14-1.86.13-1.24.11-1.86.11h-2.5c-.46,0-1,0-1.44-.06-.15,0-.3,0-.45,0a2.13,2.13,0,0,0-.33,0,7.5,7.5,0,0,1-1,0s0,2.33,0,2.5c0,1,0,2.09,0,3.13,0,.28.26,2.5.17,2.52.6-.14,1-.39,1.62-.53s1.2-.25,1.78-.4,1.23-.13,1.81-.28,1.14-.46,1.72-.62a11.47,11.47,0,0,1,2-.56,11.77,11.77,0,0,0,2.86-.73,4,4,0,0,1,1-.36,2.9,2.9,0,0,1,2.11,1.11,3.61,3.61,0,0,1,.68,2.22,3,3,0,0,1-.83,1.86,2.12,2.12,0,0,1-1.32.85,9.83,9.83,0,0,1-2,.66c-.38.13-.36.14-.75.25s-.58.08-.86.17a16,16,0,0,0-1.79.52,11.58,11.58,0,0,1-1.56.59,14.73,14.73,0,0,0-2.1.69,12.29,12.29,0,0,1-1.77.45c-.44.12-.84.44-1.28.54s-.82.12-1.24.25-.76.12-1.13.22l-1.82.5-1.83.48c-.63.16-1.24.29-1.84.44s-1,.2-1.43.31-.64.25-1,.3c-1.07.18-2,.59-3.09.82-.64.15-1.27.21-1.86.34s-1.26.35-1.83.47-1.27.35-1.84.45-1.34.15-1.88.23a14.89,14.89,0,0,1-1.88.2,4.13,4.13,0,0,1-1.8-.37,3.62,3.62,0,0,1-1.48-1.16,3.5,3.5,0,0,1-.25-1.84A2.7,2.7,0,0,1,90.8,93a22,22,0,0,1,2.81-.35c.6-.09,1.18-.32,1.78-.42s1.22-.05,1.82-.16L99,91.7c.33-.06.6-.23.93-.29l1.21-.24c.48-.09,1-.1,1.44-.19s1.19-.3,1.78-.43c.18,0,2.19-.39,2.19-.37-.21-3-.23-6-.27-9,0-1.78,0-3.55,0-5.33,0-.33,0-.65,0-1,.08-1.26,0-2.47,0-3.72,0-.91.16-1.82.12-2.72-.09-2.28-.46-4.72.36-6.91.55-.64.88-.33,1.53-.87s.73-.44,1.38-1,.66-.53,1.31-1.08.36-.93,1.07-1.4a14.32,14.32,0,0,1,1.85-.42,15.48,15.48,0,0,1,1.84.07c.93,0,.93.17,1.86.17a29.77,29.77,0,0,1,3.25.08c.72.08,1.45,0,2.14,0,.19,0,.42,0,.5-.17a.51.51,0,0,0,0-.24c0-.84-.09-1.68-.09-2.53a2.09,2.09,0,0,1,.4-1.52,3.57,3.57,0,0,1,1.32-1.12,5.39,5.39,0,0,1,1.74-.2,5.14,5.14,0,0,1,1.64.49,3.12,3.12,0,0,1,1.4.85,2.41,2.41,0,0,1,.83,1.5c0,.67-.39,2.08.13,2.65.27.3.69.09,1,.06.73-.06,1.47,0,2.19,0s1.48,0,2.22,0,1.29.06,1.91.09,1.41-.2,2-.13a17.76,17.76,0,0,1,2.07.26c.72.43.59.66,1.26,1.16s.71.46,1.39,1a8.77,8.77,0,0,0,1.33,1A4.79,4.79,0,0,1,147.74,61.2Zm-6.69,5.05a1,1,0,0,0,0-.25,11,11,0,0,1-.14-1.32,4.23,4.23,0,0,0-.7-2.23l-.28-.35a1.19,1.19,0,0,0-.28-.28,1.07,1.07,0,0,0-.26-.11,3.25,3.25,0,0,0-.92-.14c-.39,0-.75-.15-1.14-.15-.7,0-1.4.21-2.11.2l-2.05-.05c-.67,0-1.36-.06-2.06-.07s-1.37,0-2.06,0-1.32.07-1.94.07-1.33-.17-1.94-.17-1.33-.1-1.94-.1-1.35.1-1.95.12-1.36-.07-1.95,0c-.79,0-1.59.08-2.38.14a8.73,8.73,0,0,0-1.79.47,2.06,2.06,0,0,0-.48.18l-.18.13a3.15,3.15,0,0,0-1,2.33,5.53,5.53,0,0,0-.13,1.6c.07.39.39.23.72.23h3.46c.57,0,1.2,0,1.75,0s1,0,1.48,0l1.23,0h2.16l1.1,0c.66,0,1.25,0,1.91,0l2.31,0h.77c.61,0,1.35,0,1.95,0s1.59,0,2.34,0h3.32l.82,0h1a5.06,5.06,0,0,0,1.09-.09C141,66.34,141,66.31,141.05,66.25ZM113.7,70.68h-.26a.1.1,0,0,0-.06,0,.1.1,0,0,0,0,.07c-.06.71,0,1.4-.07,2.12a10.26,10.26,0,0,0,.12,2.64c0,.07,2,0,2.19,0,.82,0,1.66.07,2.48.1s1.82,0,2.72,0c.61,0,1.21,0,1.81,0s1.37,0,2,0,1.37-.07,2-.07,1.38.17,2,.17,1.38.1,2,.1,1.39-.1,2-.12,1.41.07,2,0c.22,0,.42-.08.63-.1,1-.11,2-.39,3-.48a2.68,2.68,0,0,0,2-.94,4.27,4.27,0,0,0,.78-2.67,1,1,0,0,0-.14-.64c-.14-.18-.71-.09-.91-.1-.5,0-1-.07-1.51-.08-1.06,0-2.13,0-3.18,0-.41,0-.7.06-1.1,0s-.72,0-1.09,0c-1,0-1,0-2,0s-1.84.06-2.78,0-2.07,0-3.11,0h-5.9l-2,0c-.67,0-1.3,0-2,0S114.3,70.68,113.7,70.68Z"/><path class="cls-2" d="M5.89,137.64c-.72,1.6-3.25.91-2.25-1.12a73.9,73.9,0,0,0,4.18-10.37,7,7,0,0,1-3.49-.33c-1.22-.53-1-2.7.81-2.05a6.39,6.39,0,0,0,3.3.14,10.41,10.41,0,0,0,0-2.58c-.1-1.36,2.15-1.43,2.39-.12a7.28,7.28,0,0,1,0,1.91c.33-.17.62-.33.91-.5a1.14,1.14,0,1,1,.93,2.05,15.48,15.48,0,0,1-2.41,1A93.93,93.93,0,0,1,5.89,137.64Zm5.8-1.08c-1-1.15.45-3,1.7-1.77s2.68,1.12,5.47.88a1.24,1.24,0,1,1,.31,2.46C15.71,138.84,12.74,137.74,11.69,136.57Zm2.7-8.34c-1.24.45-2-1.5-.41-2.05a8.87,8.87,0,0,1,5.73.12c1.6.57,1,2.68-.55,2.17A8.39,8.39,0,0,0,14.39,128.23Z"/><path class="cls-2" d="M35.73,125.82a18.81,18.81,0,0,1-4.82,9.67c-1.84,1.7-3.85.76-4.9-1.29-1.5-3,.1-7.4,3.3-9.63A10,10,0,0,1,39.62,124c3.7,2.22,4.3,6.62,2.22,10A10,10,0,0,1,36,138c-2.1.55-2.84-1.86-.79-2.34A7.41,7.41,0,0,0,39.67,133a5.16,5.16,0,0,0-1.31-7.31,6.19,6.19,0,0,0-3-1A1.2,1.2,0,0,1,35.73,125.82Zm-5.3.45C28.2,128,27,131.17,28,133c.36.69,1,1.05,1.58.53,1.79-1.58,3.46-5.37,3.7-8a1.69,1.69,0,0,1,.21-.74A7.91,7.91,0,0,0,30.43,126.27Z"/><path class="cls-2" d="M50.12,134c-.1-2.51.17-4.54.29-7.07.07-1.55.24-3.89.19-5.37,0-1.77,2.65-1.62,2.6,0s-.21,3.77-.33,5.37a66.33,66.33,0,0,0-.43,7c.14,3.49,4.4,3.25,8.55,0a1.33,1.33,0,1,1,1.65,2.08C58,139.72,50.33,140.41,50.12,134Z"/><path class="cls-2" d="M75.23,138.62a44.05,44.05,0,0,0-5.06-7.76c-1.58-1.84-1.58-3.54.29-5.47a58.83,58.83,0,0,0,4.9-5.4,1.34,1.34,0,1,1,2.13,1.62c-1.19,1.46-3.73,3.53-5.21,5-1,1-1.07,1.74-.29,2.72,2.39,3,4.42,5.23,5.59,7.79C78.31,138.74,76,140.15,75.23,138.62Z"/><path class="cls-2" d="M103.68,126.65c-1.46,0-7.09-4.23-8.24-5.25a1,1,0,0,0-.62-.31,1,1,0,0,0-.62.33,45.58,45.58,0,0,1-7.5,5.52,1.47,1.47,0,0,1-.79.21A1.25,1.25,0,0,1,84.59,126a1.08,1.08,0,0,1,.72-1,33.22,33.22,0,0,0,7.45-5.28,2.69,2.69,0,0,1,1.91-.88,3.23,3.23,0,0,1,2.08.88,39,39,0,0,0,7.57,4.66,1.11,1.11,0,0,1,.72,1A1.29,1.29,0,0,1,103.68,126.65Zm-12.35,6.5v3.3c.93-.21,1.79-.43,2.51-.67a1.63,1.63,0,0,1,.45-.07,1,1,0,0,1,1.1.93c0,.36-.29.76-1,1a56.33,56.33,0,0,1-8.48,2,1.07,1.07,0,1,1-.19-2.13c1.15-.17,2.29-.38,3.39-.6,0-3.3,0-7.45,0-9.7a2.4,2.4,0,0,1,2.48-2.56c.69,0,1.34-.07,2-.07V123c0-.57.57-.86,1.12-.86s1.12.29,1.12.86v1.58c2.53,0,4.4.09,4.59,1.93,0,.69.07,1.72.07,2.65,0,3.44-.17,3.94-4.47,3.94a7.13,7.13,0,0,0,1.15,1.53c1-.41,2.82-1.12,3.92-1.72a1.28,1.28,0,0,1,.62-.17,1.17,1.17,0,0,1,1.22,1.05c0,.62-.31.91-4,2.17a13,13,0,0,0,5.33,1.39,1,1,0,0,1,1,1A1.23,1.23,0,0,1,104,139.6c-.1,0-7.62-.24-10.2-6.45Zm7.12-5c0-1-.07-1.6-1-1.62-.57,0-1.15,0-1.77,0-1,0-2.08,0-3.34,0-.67,0-1,.43-1,1.15,0,.14,0,.31,0,.48Zm-7.09,1.7v1.55c.86,0,1.62,0,2.32,0,1.39,0,2.56,0,3.87-.09.43,0,.93-.12.93-1.48Z"/><path class="cls-2" d="M116.21,128.9c-1.19-.88-1.82-.84-2.82,0a31.85,31.85,0,0,1-3.54,2.68c-1.58.93-3.3-1.24-1.39-2.25.6-.31,2.41-1.41,3.63-2.27a4.07,4.07,0,0,1,5.4.07c3.06,2.2,6.38,5.09,9.7,6.81,1.55.79.29,3.3-1.55,2.39C122.76,134.85,119,131,116.21,128.9Zm3.49-2.7c-1.27-.55-.31-2.05.86-1.62a7.88,7.88,0,0,1,2.51,1.53c1,1.05-.48,2.56-1.31,1.58A9.23,9.23,0,0,0,119.7,126.2ZM122,124c-1.29-.5-.36-2,.81-1.65a8,8,0,0,1,2.56,1.43c1,1-.41,2.58-1.27,1.62A8.51,8.51,0,0,0,122,124Z"/><path class="cls-2" d="M142.75,135.59c1.74-1.55,1.67-3.82.31-4.73s-3.82-1-6.23.41a5.26,5.26,0,0,0-2,1.79c-.86,1.27-3.25-.14-1.77-1.6a84.7,84.7,0,0,0,7.21-7.72c.26-.33,0-.24-.17-.14a19.1,19.1,0,0,1-4,1.22c-1.89.41-2.25-2-.62-2.15a36.82,36.82,0,0,0,5.26-1.17c1.91-.55,3.49,1.15,2.29,2.48-.76.86-1.72,1.79-2.68,2.68s-1.91,1.74-2.77,2.58a7.32,7.32,0,0,1,6.71-.07c3.44,2.05,2.32,6.26-.19,8.07s-6.09,1.79-7.91.6c-2.53-1.65-1.41-4.61,1.41-4.71a3.39,3.39,0,0,1,3.77,3.22A3.21,3.21,0,0,0,142.75,135.59Zm-5.09-.72c-1.05.09-1.1,1.07-.33,1.48a4.29,4.29,0,0,0,2,.36C139.36,135.61,138.72,134.77,137.67,134.87Z"/><path class="cls-2" d="M154.83,139.36a9.11,9.11,0,0,0-2.94-2.51,1,1,0,0,1,.48-2c.84,0,4.66,2.1,4.66,3.73a1.32,1.32,0,0,1-1.29,1.31A1.09,1.09,0,0,1,154.83,139.36Z"/><path class="cls-2" d="M171.84,127.58c-1.91.09-1.77-2.08-.17-2.15,1.36,0,3-.09,4.75-.12a24,24,0,0,0,.19-3.15,1.26,1.26,0,1,1,2.51.1,20.17,20.17,0,0,1-.24,3c1,0,1.91,0,2.75,0,1.86,0,3.2,1,3.15,3-.07,2.41-.52,5.88-1.53,7.67a4.58,4.58,0,0,1-7,1.43,1.24,1.24,0,1,1,1.53-2,2.15,2.15,0,0,0,3.34-.67c.93-1.39,1.29-4.68,1.31-5.92a1.29,1.29,0,0,0-1.31-1.41c-.74,0-1.65,0-2.6,0-1,4.35-3.3,9.08-7.55,11.39-1.53.84-3-1.15-1.12-2.17,3.27-1.77,5.28-5.4,6.21-9.2C174.52,127.46,173,127.54,171.84,127.58Z"/><path class="cls-2" d="M195.25,138.57c-2,.6-2.84-1.77-.93-2.27,4.71-1.27,7.74-4.16,8.81-7.19.24-.64.12-1-.79-1.05-2.44,0-6.88,0-9.44.12a1.14,1.14,0,1,1-.07-2.25c3.08-.07,7.09-.09,10.34-.07,2.39,0,3.56,1.36,2.58,3.7C204.09,133.56,201.18,136.76,195.25,138.57Zm7.6-14.91c-2.25,0-5.54.07-8.12,0-1.58,0-1.67-2.25.17-2.22,2.29,0,5.64,0,8.05,0a1.17,1.17,0,0,1,1.29,1.1C204.24,123.12,203.83,123.67,202.85,123.67Z"/><path class="cls-2" d="M213.84,138.84c-1.91.74-2.84-1.5-1-2.1a18.6,18.6,0,0,0,8-5.45,10.45,10.45,0,0,0-2.51-1.15c-1.34-.36-.72-2.39,1-1.91a15.8,15.8,0,0,1,3,1.24,23.55,23.55,0,0,0,2-3.42c.45-1,.36-1.1-.26-1.08-1,0-3.42.26-4.23.36a31.1,31.1,0,0,1-5.47,5.83c-1.6,1.1-3-1-1.39-2a21.69,21.69,0,0,0,6.38-7.52c.84-2,3.3-.55,2.46.84q-.18.29-.43.64c1.17-.1,2.48-.21,3.63-.26,2.46-.07,2.89,1.65,2,3.34s-1.77,3.08-2.7,4.44a9,9,0,0,1,1.72,1.51,1.29,1.29,0,0,1,0,1.82,1.15,1.15,0,0,1-1.7-.07,13.61,13.61,0,0,0-1.43-1.29A20.55,20.55,0,0,1,213.84,138.84Zm12.59-16.89c-1.22-.5-.26-1.93.84-1.53a7.4,7.4,0,0,1,2.36,1.43c.93,1-.45,2.46-1.24,1.53A8.44,8.44,0,0,0,226.43,121.95Zm2.15-2.05c-1.22-.48-.36-1.91.76-1.55a7.63,7.63,0,0,1,2.41,1.36c1,1-.38,2.46-1.19,1.55A8.87,8.87,0,0,0,228.58,119.89Z"/><path class="cls-2" d="M235.3,138.29c-2.29-1.24-2.34-3.92.41-4.94a9.46,9.46,0,0,1,4.75-.19c0-.53,0-1.05,0-1.48-.29-4.78-.55-7-.53-10.46a1.27,1.27,0,0,1,2.53,0c-.07,1.17-.09,2.27-.07,3.44.31,0,.64,0,.88,0A5.34,5.34,0,0,0,245,124c1.5-.86,3.06,1.22,1.43,2.13a5.32,5.32,0,0,1-1.5.5c-.53.1-1.05.14-1.46.19a5.12,5.12,0,0,1-1.05,0c0,1.34.12,2.82.17,4.56,0,.57,0,1.43,0,2.27a10.11,10.11,0,0,1,3.25,1.79c1.7,1.46,0,3.89-1.67,2.15a9.31,9.31,0,0,0-1.93-1.5A5,5,0,0,1,235.3,138.29Zm1.08-3.15a.69.69,0,0,0,0,1.31c1.29.69,3.3.29,3.8-1.22A6.2,6.2,0,0,0,236.37,135.13Z"/><path class="cls-2" d="M267.75,128.54c3,2.6,1.7,7.38-3,9.32a16.35,16.35,0,0,1-4.71,1.39c-1.91.26-2.51-2.13-.45-2.41a13,13,0,0,0,4.28-1.22c2.82-1.46,3.56-3.7,2.44-5.16-2-2.63-7.33-.93-9.94,2.08-.84,1-.38.53-1,1.24-1.17,1.43-3.65.43-2.22-1.46.48-.62.62-.5,1.53-1.55,1.12-1.29,1.34-1.48,2.56-2.87s2.94-3.58,3.82-4.8c.19-.26,0-.41-.21-.29a12.77,12.77,0,0,1-3.58,1.36,1.24,1.24,0,1,1-.43-2.39,25.54,25.54,0,0,0,4-1c1.31-.48,1.43-.53,2.1-.41,1.29.21,2.25,1.48,1,2.75-1.6,1.65-3.7,4-5.18,5.49C261.28,126.75,265.53,126.58,267.75,128.54Z"/><path class="cls-2" d="M275.74,135.56a1.26,1.26,0,0,1,2-1.55c2,2.08,5.9,1.91,9.51.88,2-.55,2.56,2,.62,2.63C283.12,139,277.39,137.88,275.74,135.56Zm2.68-9.75c-1.89.36-2.2-2.17-.07-2.48a25.38,25.38,0,0,1,7.62.07c2,.43,1.48,2.89-.45,2.48A18.17,18.17,0,0,0,278.42,125.82Z"/><path class="cls-2" d="M295.3,135.13a26.81,26.81,0,0,0,2.41-3.3,1.15,1.15,0,0,1,2.15.81,18.66,18.66,0,0,1-2.68,4C295.73,138.38,293.79,136.76,295.3,135.13Zm5.3,2.13a1.06,1.06,0,1,1,.91-1.91c4,1.65,4.63-1.17,3.27-3.08-.64-.91-2-2.15-2.56-2.75-1.34-1.55.67-2.48,1.55-1.58a35.47,35.47,0,0,1,3,3.3C310,135.66,305.86,139.84,300.6,137.26Zm5-10.53c-1.29.31-2-1.12-.93-1.7.5-.26.57-.45.36-.79-.53-.88-1.53-1.48-2-2.08-.86-1.15.76-2.2,1.74-1.22s3.3,2.46,3.37,3.85a1.45,1.45,0,0,1-1.41,1.6C306.48,126.44,306,126.63,305.64,126.72Zm6.19,8.79a7.25,7.25,0,0,0-2.65-3.51c-1.22-.84,0-2.39,1.34-1.6a8.32,8.32,0,0,1,3.56,3.82C314.89,136.11,312.4,137.23,311.83,135.52Zm-.62-7.24a8.26,8.26,0,0,0-1.67-1.74c-1.1-.72.07-2,1.1-1.36a7.79,7.79,0,0,1,2.08,1.82C313.45,128.13,311.83,129.33,311.21,128.28Zm2.87-1.46a8.31,8.31,0,0,0-1.74-1.67c-1.12-.67,0-2,1-1.41a7.74,7.74,0,0,1,2.15,1.74C316.3,126.6,314.72,127.85,314.07,126.82Z"/><path class="cls-3" d="M275.11,59.09c.28-.46.7-.81,1-1.27s.78-1.14,1.11-1.74a14.52,14.52,0,0,1,2.87-3c.46-.45.94-.9,1.45-1.32s1-.86,1.53-1.24,1.06-.76,1.65-1.09,1.19-.53,1.8-.8,1.18-.55,1.82-.75a19,19,0,0,1,3.59-1A15.43,15.43,0,0,1,296,47a8.8,8.8,0,0,1,1.72.54,8.14,8.14,0,0,1,1.61.8,8,8,0,0,1,1.54,1,6.16,6.16,0,0,1,1,1.62,6.54,6.54,0,0,1,.4,1.82,6.3,6.3,0,0,1,.08,1.83,6.15,6.15,0,0,1-.23,1.89,12.25,12.25,0,0,1-1,1.78,12.08,12.08,0,0,1-1.36,1.5,13.25,13.25,0,0,1-1.63,1.18,15.48,15.48,0,0,1-1.61,1.19,19.69,19.69,0,0,1-1.81.86c-.61.26-1.24.48-1.87.7-.94.32-1.95.41-2.88.74a21.39,21.39,0,0,1-2.93.78c-1.3.27-2.59.48-3.9.75a34.49,34.49,0,0,1-4,.64c-.69.06-1.38.1-2.06.13s-1.39-.07-2.06-.06-1.29,0-1.93,0-1.29,0-1.93,0-1.29,0-1.93-.06-1.3,0-1.94-.06c-1.93-.19-3.85-.68-5.79-.83a18,18,0,0,1-1.86-.3c-.64-.12-1.29-.17-1.91-.3s-1.41-.48-2.14-.65c-.53-.12-1.1-.11-1.63-.24-1.25-.3-2.53-.54-3.77-.88-.63-.17-1.24-.43-1.84-.6a24,24,0,0,1-2.67-.91c-.67-.28-1.41-.47-2.1-.73s-1.32-.68-2-.94a7.69,7.69,0,0,1-2.23-.83c-.93-.68-1.75-1.19-2-2.42a3.81,3.81,0,0,1,.3-1.93,3.93,3.93,0,0,1,.9-1.77,2.72,2.72,0,0,1,2.09-.83,16.41,16.41,0,0,1,2.53.42,23.23,23.23,0,0,1,2.31,1c.79.29.78.33,1.57.62.6.2,1.24.28,1.84.47s1.2.48,1.85.62,1.46.41,2.18.61c1.44.4,2.9.75,4.35,1.08,1,.23,2.06.43,3.08.64a21.45,21.45,0,0,0,3.09.76c1.18.07,2.38.18,3.58.26s2.26.28,3.4.36a16.9,16.9,0,0,0,2.63.13c.63-.05,1.23-.24,1.88-.25.13,0,.15,0,.28,0"/><circle class="cls-2" cx="261.16" cy="5.21" r="5.05"/><circle class="cls-2" cx="261.16" cy="5.21" r="5.05"/><circle class="cls-2" cx="306.57" cy="5.12" r="5.05" transform="translate(86.17 218.28) rotate(-45)"/></g></svg>