<svg id="レイヤー_1" data-name="レイヤー 1" xmlns="http://www.w3.org/2000/svg" viewBox="0 0 298.37 90"><defs><style>.cls-1{fill:#101010}</style></defs><title>logo_84</title><path class="cls-1" d="M116.16 28.83a4.08 4.08 0 0 1-3.55-1.91 9.58 9.58 0 0 0 4.19-8c0-3.46-1.73-6.93-7.56-6.93-6.65 0-11.12 3.37-11.12 9.48 0 13.67 20.51 14.49 20.51 35.18 0 14.86-10.57 22.06-22.79 22.06-9.39 0-18.69-4.28-18.69-15.31 0-9.93 7.47-15 12.94-15 3.19 0 5.92 1.64 6.65 6-5 0-10.85 2.46-10.85 9a9 9 0 0 0 9.3 9.21c5.74 0 12-4.19 12-13C107.22 44 88.54 38.4 88.54 25c0-9.48 9.3-16.32 20.87-16.32 4.19 0 13.94.91 13.94 10.76.01 5.56-3.18 9.39-7.19 9.39zm13.3 34.8c-.07.74-.07 1.41-.07 2.08 0 4.56 1.54 6.64 5.84 6.64s8.65-2.08 12.14-7.31h2.15C146 71.61 139.18 77.45 132 77.45c-5.16 0-9.93-3-9.93-10.73s4.63-23.54 17-23.54c3.69 0 7.18 1.41 7.18 6.91-.02 7.5-6.4 12.47-16.79 13.54zm.33-2.62c7.45-1.14 12.34-5.57 12.34-11.6 0-1.54-.33-3-2.48-3-4.96.05-8.65 7.7-9.86 14.59z"/><path class="cls-1" d="M160.92 30.09l-7.85 36.22a13.36 13.36 0 0 0-.33 3c0 1.54.4 3 2.08 3 2.15 0 4.43-2.75 6.37-7.31h2.48c-4.36 11.2-8.72 12.41-11.67 12.41-4.56 0-6-3.42-6-7.45a25.14 25.14 0 0 1 .6-5l7.31-34z"/><path class="cls-1" d="M168.63 63.63c-.07.74-.07 1.41-.07 2.08 0 4.56 1.54 6.64 5.84 6.64s8.65-2.08 12.14-7.31h2.15c-3.56 6.57-10.33 12.41-17.51 12.41-5.16 0-9.93-3-9.93-10.73s4.63-23.54 17-23.54c3.69 0 7.18 1.41 7.18 6.91-.03 7.5-6.43 12.47-16.8 13.54zM169 61c7.45-1.14 12.34-5.57 12.34-11.6 0-1.54-.33-3-2.48-3-4.99.06-8.68 7.71-9.86 14.6z"/><path class="cls-1" d="M207.27 49.41c0-1.54-1-2.68-3-2.68-6.31 0-10.33 11.47-10.33 19 0 4.63 1.54 6.64 5.9 6.64 4.69 0 8.85-2.35 11.8-7.31h2.28c-3.56 6.57-10.2 12.41-17.37 12.41-5.17 0-9.93-3-9.93-10.8 0-7.51 4.43-23.48 17.37-23.48 4.56 0 7 2 7 6.37 0 3.09-1.27 5.63-3.56 5.63a2.36 2.36 0 0 1-2.21-1.41 6 6 0 0 0 2.05-4.37z"/><path class="cls-1" d="M215.46 43.51l2-9.26 7-.94-2.21 10.2h6l-.47 2.35h-6.08l-4.36 20.46a16.23 16.23 0 0 0-.47 2.88c0 1.61.54 3.15 2.55 3.15 2.41 0 5.16-2.75 7.38-7.31h2.48c-4.63 9.86-9.39 12.41-12.68 12.41-5 0-6.31-3.69-6.31-7.51a26.43 26.43 0 0 1 .6-4.9L215 45.86z"/><path class="cls-1" d="M238.2 43.51l-4.9 22.81a13.36 13.36 0 0 0-.33 3c0 1.54.4 3 2.08 3 2.15 0 4.43-2.75 6.37-7.31h2.48c-4.36 11.2-8.72 12.41-11.67 12.41-4.56 0-6-3.42-6-7.45a25 25 0 0 1 .6-5l4.56-21.53zm-1.81-14.15a4.58 4.58 0 0 1 4.49 4.49 4.48 4.48 0 0 1-4.49 4.43 4.38 4.38 0 0 1-4.39-4.43 4.48 4.48 0 0 1 4.39-4.5z"/><path class="cls-1" d="M266.64 53.77a17.14 17.14 0 0 0 11-4l.6 1.81c-2.48 2.88-6.91 4.9-11.74 5.5-.8 11.6-6.31 20.39-14.56 20.39-5.84 0-10.46-3-10.46-10.6s3.76-23.68 17.57-23.68c5.31-.02 7.53 3.74 7.59 10.58zm-3.42 3.49c-2.21 0-2.68-1.14-2.68-2.75 0-2.28 1.21-3.22 2.89-3.42-.34-3.15-1.81-4.23-4-4.23-6.78 0-10.53 12.07-10.53 18.78 0 4.63 1.48 6.71 5.63 6.71s7.75-5.63 8.69-15.09z"/><path class="cls-1" d="M296.3 72.35a5.37 5.37 0 0 0 2.08-.47c-.4 4.83-4 5.57-5.84 5.57-3.35 0-5.77-2.62-5.77-7.51 0-5.7 3.22-13.21 3.22-18 0-2.21-.67-3.69-3-3.69-2.82 0-5.23 2.35-7.45 7.18L275 77h-6.71l7.11-33.54h6.78l-1.07 5c3.49-4.69 6.77-5.37 9.12-5.37 5.43 0 6.91 3.49 6.91 7.51 0 6-3.22 13.21-3.22 18.11-.04 2.57.77 3.64 2.38 3.64zM32.46 60.38l11-12.59a15.49 15.49 0 0 0 .25-2.65 13.42 13.42 0 0 0-3-8.44q-3-3.85-10.22-8.26a34.88 34.88 0 0 0 11.73-7A12.78 12.78 0 0 0 46.6 12q0-5.22-4.74-8.62T29.64 0Q20.82 0 15 4.55T9.2 15.62a14 14 0 0 0 2.28 7.94 24.2 24.2 0 0 0 7.16 6.59q-9.42 3.65-14 7.92A13.79 13.79 0 0 0 0 48.56 12.18 12.18 0 0 0 5.48 59q5.52 3.92 14.35 3.92a30.15 30.15 0 0 0 12.63-2.54zM17.18 13.77a9.74 9.74 0 0 1 3-7.4 11.15 11.15 0 0 1 8-2.81 11 11 0 0 1 7.4 2.34 8.29 8.29 0 0 1 2.75 6.7q0 9.23-10.74 14a34.12 34.12 0 0 1-7.6-6 9.86 9.86 0 0 1-2.81-6.83zm-8.6 33.85a14.85 14.85 0 0 1 2.75-9q2.74-3.76 9.94-6.82Q29.39 36.45 32 40a12.56 12.56 0 0 1 2.61 7.7 10.4 10.4 0 0 1-4 8.41 14.45 14.45 0 0 1-9.47 3.24A12.68 12.68 0 0 1 12.1 56a11 11 0 0 1-3.52-8.38z"/><path class="cls-1" d="M79.72 7.89H75c-3.08 3-59.92 68-59.92 68 3.45-.07 28.69-.17 28.69-.17S41.6 87.62 41.09 90h9.46c.43-2.89 2.33-14.32 2.33-14.32 4.3 0 12 .06 15.89.17l1-6.56H54l2.31-17.72h-8.39L45 69.28H25.42C26.85 67.73 76 11.45 79.72 7.89z"/></svg>