<svg id="レイヤー_1" data-name="レイヤー 1" xmlns="http://www.w3.org/2000/svg" viewBox="0 0 384.67 90"><defs><style>.cls-1{fill:#101010}</style></defs><title>logo_award</title><path class="cls-1" d="M262.39 61.05L268.33 33c-3.52-2-8.91-3.36-14-3.91-6 12-10.55 26.26-10.55 35.56a17.52 17.52 0 0 0 .7 5.31c-3.91 0-8.83-1.09-8.83-8.28s4.92-20.63 12.11-32.9c-6.25.23-11.41 2-11.41 4.84a1.9 1.9 0 0 1 1.56 2c0 2.42-2 3.13-3.83 3.13-2.19 0-4.3-1-4.3-4.06 0-5.63 7.42-9.07 16.64-9.07 1 0 2.11.08 3.2.16 8-12.66 18.13-23.29 27.51-23.29a17.57 17.57 0 0 1 6 1.09l-12.22 57.47zm6.41-30.48l5.2-24.3c-5.39.24-12.43 9.07-18.29 20.24a47.42 47.42 0 0 1 13.09 4.06zm19.67 2.05l-4.12 19.17a7.58 7.58 0 0 0-.23 1.86c0 2.2 1.13 3.21 2.54 3.21 2.14 0 4.91-2.26 5.7-6.15l3.83-18.1h5.64l-4.06 19.17a7.61 7.61 0 0 0-.23 1.86c0 1.86.73 3.21 2.42 3.21 6.32 0 9.47-14.15 9.47-20a3.27 3.27 0 0 1-2 .45c-1.07 0-1.69-1.13-1.69-2.42a3.08 3.08 0 0 1 2.88-3.27c2.42 0 3.55 1.75 3.55 4.79 0 9.92-5.64 24.75-13.42 24.75-3.66 0-6.15-1.58-6.77-4.79-2.14 3.33-4.79 4.79-7.22 4.79-3.38 0-6.2-2.88-6.2-7.56a13.29 13.29 0 0 1 .34-2.88l3.83-18.1zm49.74 0l-4.12 19.17a11.23 11.23 0 0 0-.28 2.54c0 1.3.34 2.54 1.75 2.54 1.8 0 3.72-2.31 5.36-6.15H343c-3.66 9.42-7.33 10.43-9.81 10.43s-4.23-1.64-4.51-5.53c-1.75 3-5 5.53-8.57 5.53s-7.22-2.48-7.22-9.08c0-7.61 5-19.74 14.44-19.74 1.8 0 4.06.68 4.62 3l.56-2.71zm-9.53 18.1l2.71-12.8a2.82 2.82 0 0 0-2.82-2.48c-6.2 0-9.64 10.21-9.64 15.84 0 4.29 1.41 5.58 3.55 5.58 2.36 0 5.46-2.7 6.2-6.14z"/><path class="cls-1" d="M349.82 32.62l-1 4.62c2.14-2.37 4.45-4.91 7.56-4.91 2.26 0 3.16 1.13 3.16 2.65a3.4 3.4 0 0 1-3.27 3.66c-1.3 0-1.18-1.41-2.82-1.41s-3.61 1.41-5.19 2.76l-4.45 20.81h-5.64l6-28.19zm34.85-11.28l-6.54 30.45a12.51 12.51 0 0 0-.23 2.42c0 1.58.45 2.65 2 2.65a4.76 4.76 0 0 0 1.8-.34c-.9 3.55-2.42 4.62-4.45 4.62-2.48 0-4.23-1.64-4.51-5.53-1.75 3-5 5.53-8.57 5.53s-7.22-2.48-7.22-9.08c0-7.61 5-19.74 14.44-19.74 1.86 0 4.06.68 4.62 3l2.82-13.25zm-12 29.38l2.71-12.8a2.78 2.78 0 0 0-2.82-2.48c-6.2 0-9.64 10.21-9.64 15.84 0 4.29 1.41 5.58 3.55 5.58 2.35 0 5.53-2.64 6.24-6.14zM7.89 29C3 29 0 27 0 21.55 0 10.33 14.15 0 29.52 0c12 0 17.32 6.26 17.32 12.93 0 4.88-2.93 10-8.29 13 9.76 3.51 11.92 12.59 11.75 18.69-.54 19.52-18.43 27.29-37.14 25-4.84-.59-7.88-3.09-8.61-6A7.91 7.91 0 0 1 5 59.13c1.37 3.26 4.36 3.87 6.53 4 13.1.9 28.28-5.33 29.41-17.55.59-6.35-2-16.7-11.67-16.65-.57 0-2.76.16-4.55.33l-6 28.09H9.77L20.25 8.86l9.11-1.22L25.45 26h1.46c7.48 0 13.34-7.4 13.34-13.5 0-5-4.07-9.6-12.36-9.6C18 2.93 6.75 9.52 6.75 23.5A12.56 12.56 0 0 0 7.89 29zm52.33 20.68c-.06.63-.06 1.21-.06 1.78 0 3.91 1.32 5.69 5 5.69s7.41-1.78 10.4-6.26h1.84c-3 5.63-8.85 10.63-15 10.63-4.42 0-8.5-2.59-8.5-9.19s4-20.17 14.54-20.17c3.16 0 6.15 1.21 6.15 5.92-.01 6.43-5.47 10.68-14.37 11.6zm.29-2.24c6.38-1 10.57-4.77 10.57-9.94 0-1.32-.29-2.53-2.13-2.53-4.25.03-7.41 6.55-8.45 12.47z"/><path class="cls-1" d="M77.67 38.45l1.54-6.3 6-.8-1.72 7.1h5.86l-.4 2H83L80.45 52a13.8 13.8 0 0 0-.4 2.47c0 1.38.46 2.7 2.18 2.7 2.07 0 4.42-2.36 6.32-6.26h2.13c-4 8.45-8 10.63-10.86 10.63-4.25 0-5.4-3.16-5.4-6.44a22.64 22.64 0 0 1 .52-4.2l2.34-10.42z"/><path class="cls-1" d="M88.76 38.45h1.9l1.54-6.3 6-.8-1.72 7.1h5.71l-.4 2H96L93.44 52a13.8 13.8 0 0 0-.4 2.47c0 1.38.46 2.7 2.18 2.7 2.07 0 4.42-2.36 6.32-6.26h2.13c-4 8.45-8 10.63-10.86 10.63-4.25 0-5.4-3.16-5.4-6.44a22.64 22.64 0 0 1 .52-4.2l2.34-10.42h-1.9z"/><path class="cls-1" d="M107.92 49.68c-.06.63-.06 1.21-.06 1.78 0 3.91 1.32 5.69 5 5.69s7.41-1.78 10.4-6.26h1.84c-3 5.63-8.85 10.63-15 10.63-4.42 0-8.5-2.59-8.5-9.19s4-20.17 14.54-20.17c3.16 0 6.15 1.21 6.15 5.92-.01 6.43-5.47 10.68-14.37 11.6zm.29-2.24c6.38-1 10.57-4.77 10.57-9.94 0-1.32-.29-2.53-2.13-2.53-4.25.03-7.41 6.55-8.45 12.47z"/><path class="cls-1" d="M132.34 32.44l-1 4.71c2.18-2.41 4.54-5 7.7-5 2.3 0 3.22 1.15 3.22 2.7a3.47 3.47 0 0 1-3.33 3.74c-1.32 0-1.21-1.44-2.87-1.44s-3.68 1.44-5.29 2.82l-4.54 21.2h-5.75l6.09-28.73zm25.89 38.19c7.58 1.9 15.08 9.73 24.48 9.73a16.72 16.72 0 0 0 6.83-1.36c-.91 6.92-3.71 11-9.15 11-8.65 0-18.22-14.1-29.86-15.75-.65-.09-1.22-.2-1.93-.27l14.62-66.12C154 10.17 149 13.21 149 22.77c0 3.79 1 5.19 2 6.26-5.44 0-8.82-2.06-8.82-7.58 0-11.62 13.94-18.37 27.62-18.37 1.24 0 2.31.08 3.38.17z"/><path class="cls-1" d="M186.66 32.44L182.46 52a11.44 11.44 0 0 0-.29 2.58c0 1.32.35 2.59 1.78 2.59 1.84 0 3.79-2.36 5.46-6.26h2.13c-3.74 9.6-7.47 10.63-10 10.63-3.91 0-5.11-2.93-5.11-6.38a21.5 21.5 0 0 1 .52-4.25l3.91-18.45zm-1.56-12.12a3.93 3.93 0 0 1 3.9 3.85 3.84 3.84 0 0 1-3.9 3.83 3.75 3.75 0 0 1-3.79-3.79 3.84 3.84 0 0 1 3.79-3.89z"/><path class="cls-1" d="M199.07 32.44h5.48l-.4 2h-5.54L192 65.77c-1.72 8.22-4 9.77-7.81 9.77-3.51 0-6.32-1.44-6.32-5.17s4.94-6.72 9.19-8.45l7-33c1-4.54 3-10.8 10.46-10.8 4.42 0 6.61 2.93 6.61 6.61a11.23 11.23 0 0 1-.17 2h-2.3a5 5 0 0 0 .17-1.38c0-1.78-.86-3.56-2.93-3.56-4.08 0-5.23 3.1-6.26 7.93zM186.2 65.89l.4-1.84c-4.19 1.84-6.49 4.2-6.49 6.26a2.05 2.05 0 0 0 2.13 2.24c2.12 0 3.1-2.7 3.96-6.66z"/><path class="cls-1" d="M207.81 49.68c-.06.63-.06 1.21-.06 1.78 0 3.91 1.32 5.69 5 5.69a10 10 0 0 0 6.84-2.76c-1 5.63-5 7.13-9.6 7.13-4.42 0-8.5-2.59-8.5-9.19s4-20.17 14.54-20.17c3.16 0 6.15 1.21 6.15 5.92-.01 6.43-5.47 10.68-14.37 11.6zm.29-2.24c6.38-1 10.57-4.77 10.57-9.94 0-1.32-.29-2.53-2.13-2.53-4.25.03-7.41 6.55-8.45 12.47z"/></svg>