<svg id="レイヤー_1" data-name="レイヤー 1" xmlns="http://www.w3.org/2000/svg" viewBox="0 0 402.75 155.72"><defs><style>.cls-1{fill:none;stroke:#218e78;stroke-miterlimit:10;stroke-width:.75px}.cls-2{fill:#218e78}</style></defs><title>logo_wonder</title><path class="cls-1" d="M159.83 146.31l-23 .48 3.92-2.39a47.68 47.68 0 0 0 15-13.73c3.41-5.07 5.15-10 5.15-14.56 0-4.76-1.27-8.51-3.77-11.13S151.22 101 146.7 101a18.86 18.86 0 0 0-9.61 2.28 14.8 14.8 0 0 0-5.81 6 17.68 17.68 0 0 0-2 8.25 5.69 5.69 0 0 0 1 3.63 3 3 0 0 0 2.55 1.08c1.74 0 3.52-.53 3.52-4.42a10.31 10.31 0 0 1 2.46-7.27 8.59 8.59 0 0 1 6.58-2.7 6.55 6.55 0 0 1 5.44 2.24c1.13 1.42 1.68 3.48 1.68 6.28a21.37 21.37 0 0 1-3.1 10.49 41 41 0 0 1-8.05 9.94 50.71 50.71 0 0 1-10.61 7.52 9.45 9.45 0 0 0-3.35 2.68 9.19 9.19 0 0 0-.31 7.55c.49.8.9.8 1.08.8a5.31 5.31 0 0 0 1.59-.32c.73-.24 1.24-.4 1.56-.48a9.46 9.46 0 0 1 3.46-.92c1.58 0 3.78.1 6.53.29l5.63.38c5.08.45 8.92.67 11.44.67a2.9 2.9 0 0 0 2.56-1.42 6.5 6.5 0 0 0 1.12-3.77 4.8 4.8 0 0 0-.68-2.68 1.68 1.68 0 0 0-1.55-.79zM187.89 101a15.12 15.12 0 0 0-10.29 3.82 25.75 25.75 0 0 0-7.07 11 49.73 49.73 0 0 0-2.59 16.7c0 7.3 1.44 13 4.27 16.82 2.79 3.79 6.65 5.63 11.79 5.63a15.12 15.12 0 0 0 10.29-3.82 25.76 25.76 0 0 0 7.07-11 49.71 49.71 0 0 0 2.59-16.7c0-7.3-1.44-13-4.27-16.82S193 101 187.89 101zm5.26 39.26c-2 4.3-4.75 6.48-8.3 6.48a7.4 7.4 0 0 1-6.78-4.09c-1.38-2.51-2.05-6-2.05-10.66 0-6.73.92-12.18 2.73-16.19 2-4.33 4.75-6.53 8.3-6.53a7.33 7.33 0 0 1 6.73 4.14c1.41 2.54 2.1 6.05 2.1 10.72-.01 6.77-.88 12.2-2.74 16.18zM227 101a12.87 12.87 0 0 0-2.91.44l-3.52 1a46.16 46.16 0 0 0-7 2.42 7.36 7.36 0 0 0-2.79 1.92 4.67 4.67 0 0 0-.78 2.36l-.08.81a4.61 4.61 0 0 0 .73 2.53 1.66 1.66 0 0 0 1.39.87l.81-.15 8.43-2.7-.32 2c-.61 3.78-1.36 9.29-2.23 16.4s-1.62 14-2.23 20.54l-.08 1a4.61 4.61 0 0 0 1.19 3.54 4.16 4.16 0 0 0 2.89 1.12c2.91 0 4.38-1.5 4.76-4.85 2.52-23.31 4.26-37.67 5.16-42.66a12.34 12.34 0 0 0 .23-2.27 4.89 4.89 0 0 0-.93-3.23A3.37 3.37 0 0 0 227 101zm47.54.24a6.39 6.39 0 0 0-1.75.33c-.8.25-1.34.4-1.68.48a10.6 10.6 0 0 1-3.65.92c-1.69 0-4-.1-7-.29l-6-.38c-5.39-.45-9.51-.67-12.27-.67a3.26 3.26 0 0 0-2.84 1.46 6.15 6.15 0 0 0-1.19 3.73 4.43 4.43 0 0 0 .72 2.64 1.94 1.94 0 0 0 1.75.82l24.81-.45-2.8 2.26a46 46 0 0 0-10.13 11.3 49.31 49.31 0 0 0-5.81 12.77 43.51 43.51 0 0 0-1.81 11.7c0 2.77.46 4.76 1.33 5.75a4 4 0 0 0 3.13 1.45 3.89 3.89 0 0 0 3.08-1.4c.88-1 1.43-2.74 1.64-5.14a66.72 66.72 0 0 1 4.44-19.62c2.46-6.19 6.88-11.76 13.13-16.54.39-.31 1.08-.83 2-1.55a9.93 9.93 0 0 0 2.11-2.09 5.53 5.53 0 0 0 .71-3.15 6.74 6.74 0 0 0-.7-3.5c-.44-.73-.88-.83-1.22-.83zM401.4 58.57a3.17 3.17 0 0 0-2.35-1h-1.13l.1-.49a30.78 30.78 0 0 0 .76-5 4.45 4.45 0 0 0-1-3.13A3.67 3.67 0 0 0 395 48a9.68 9.68 0 0 0-4.79 1.56 20.35 20.35 0 0 0-5.51 5.31 39.69 39.69 0 0 0-5.15 9.74l-1 2.73.26-2.91a50.88 50.88 0 0 1 .71-5.24c.28-1.42.66-3.08 1.13-4.94a26.88 26.88 0 0 0 1-5 1.09 1.09 0 0 0-.37-1 3.48 3.48 0 0 0-1.75-.29 7 7 0 0 0-3.82.88 4.92 4.92 0 0 0-1.91 2.77 57.08 57.08 0 0 0-2.58 17.13v.19l-.14.12a24.4 24.4 0 0 1-4 2.72 15.83 15.83 0 0 1-7.4 2.26c-3.43 0-5.79-1.16-7-3.45l-.25-.46.51-.13c5.43-1.33 9.33-3.16 11.59-5.41a11 11 0 0 0 3.36-8 8.46 8.46 0 0 0-2.34-6.29 8.56 8.56 0 0 0-6.29-2.29 13.9 13.9 0 0 0-8 2.39 16.37 16.37 0 0 0-5.52 6.49 20 20 0 0 0-2 8.86 19.11 19.11 0 0 0 .44 4.12v.22l-.16.16c-.55.55-1 1-1.46 1.37a6.42 6.42 0 0 1-4.13 1.78 3.16 3.16 0 0 1-2.78-2 15.53 15.53 0 0 1-1.28-6v-.12l.06-.11a137.11 137.11 0 0 0 10.3-21.59c2.55-7 3.84-13.11 3.84-18.28 0-3.6-.65-6.31-1.93-8.06a5.58 5.58 0 0 0-4.7-2.58c-3.87 0-7.07 3.17-9.5 9.41a88.4 88.4 0 0 0-5.07 23.2v.33h-.33a18.79 18.79 0 0 0-9.19 3.54 21 21 0 0 0-6.45 7.73 22.84 22.84 0 0 0-2.35 10.26v1.18l-.13.13q-.58.58-1.07 1a5.79 5.79 0 0 1-3.61 1.83c-1.12 0-2.44-.56-2.44-3.22a48.57 48.57 0 0 1 1.46-8.04 56.71 56.71 0 0 0 1.54-9.83c0-2.84-1.32-4.16-4.16-4.16a10 10 0 0 0-4.89 1.56 20.07 20.07 0 0 0-5.54 5.31 39.69 39.69 0 0 0-5.15 9.74l-1 2.72.3-3.2a6.34 6.34 0 0 0 .31-2.12v-.53c.12-.85.24-1.62.38-2.28.28-1.42.66-3.08 1.13-4.94a26.87 26.87 0 0 0 1-5 1.09 1.09 0 0 0-.37-1A3.48 3.48 0 0 0 285 48a7 7 0 0 0-3.82.88 4.92 4.92 0 0 0-1.91 2.77 54.74 54.74 0 0 0-1.91 8.35v.3h-.3c-1.09.17-2 .27-2.72.32h-.39v-.39a15.48 15.48 0 0 0-3.73-8.88 10.6 10.6 0 0 0-8.31-3.56 13.83 13.83 0 0 0-7.72 2.29c-.17.11-.33.24-.49.37l-.52.4-.24-.16a3.33 3.33 0 0 0-1.85-.44 49.77 49.77 0 0 1-8.51-.64l-.47-.08.16-.45a53.1 53.1 0 0 0 3.42-17.51c0-3.64-.86-6.53-2.55-8.6a8.37 8.37 0 0 0-6.9-2.97 11.79 11.79 0 0 0-6.43 1.83 12.39 12.39 0 0 0-4.56 5.55 22.55 22.55 0 0 0-1.69 9.22 20.9 20.9 0 0 0 2.13 9.62A17.12 17.12 0 0 0 232 53l.3.19-.15.32a58.72 58.72 0 0 1-7.65 12.78c-2.87 3.53-5.44 5.25-7.84 5.25A5.27 5.27 0 0 1 212 68.9a17.72 17.72 0 0 1-2.1-7.23 117 117 0 0 1-.53-12.49 136.24 136.24 0 0 1 2-23 8.22 8.22 0 0 0 .14-1.69 3.34 3.34 0 0 0-.89-2.55 4.22 4.22 0 0 0-2.92-.84 6 6 0 0 0-3.86 1.14c-.92.75-1.57 2.17-1.93 4.22A160.53 160.53 0 0 1 196 50.75c-2.3 6.78-4.64 12-7 15.42s-4.48 5.35-6.28 5.35c-2 0-3.61-1.82-4.74-5.42-1.09-3.44-1.64-8.38-1.64-14.67a174.88 174.88 0 0 1 2.11-24.6c.09-.9.14-1.53.14-1.84 0-1.5-.34-2.53-1-3.06a4.81 4.81 0 0 0-3-.83 5.09 5.09 0 0 0-3.82 1.24c-.8.85-1.37 2.42-1.69 4.66a156.73 156.73 0 0 0-1.82 22.65c0 9.37 1.15 16.93 3.41 22.45s5.52 8.15 9.82 8.15c3.84 0 7.54-2 11-5.84s6.66-10 9.45-18.07l.71-2 .08 2.16c.28 7.27 1.45 13.15 3.48 17.45s4.92 6.34 8.91 6.34c4.37 0 8.87-2.29 13.39-6.81a60.84 60.84 0 0 0 11.76-17.29l.14-.29.31.06a44.41 44.41 0 0 0 8.22.82h.61l-.24.56a21.55 21.55 0 0 0-1.65 8.57 17 17 0 0 0 1.51 7.14 12.6 12.6 0 0 0 4.39 5.25 12.14 12.14 0 0 0 7 2 12.64 12.64 0 0 0 8.66-3.45 17.24 17.24 0 0 0 5.15-9.25l.07-.3h.31c.85 0 1.7-.1 2.6-.2l.46-.05v1.86c0 4.06.36 7 1.06 8.85a3.44 3.44 0 0 0 3.38 2.55 3.68 3.68 0 0 0 2.89-1 10.73 10.73 0 0 0 1.7-4.29 49 49 0 0 1 2.8-8.23 38.33 38.33 0 0 1 3.36-6.35c1.21-1.72 2.13-2.53 2.9-2.53.35 0 1.18.15 1.18 1.53a36.45 36.45 0 0 1-.92 6.2 43.67 43.67 0 0 0-1 6.95 8.48 8.48 0 0 0 1.73 5.74 6.48 6.48 0 0 0 5.11 1.94 13.31 13.31 0 0 0 7.68-2.32c.61-.42 1.24-.9 2-1.53l.33-.28.25.35c.18.24.36.48.56.71a8.59 8.59 0 0 0 6.76 3.06 9.88 9.88 0 0 0 5-1.21 19.93 19.93 0 0 0 5-4.89l.41-.52.27.61c1.82 4 4.37 6 7.79 6a11.26 11.26 0 0 0 6.58-2.42 31.43 31.43 0 0 0 2.8-2.3l.31-.28.27.32c.23.27.47.54.73.8 2.63 2.58 6.39 3.89 11.18 3.89a20.07 20.07 0 0 0 10-2.62c.82-.46 1.62-1 2.38-1.46l.48-.33.14.57a10.35 10.35 0 0 0 .39 1.29 3.44 3.44 0 0 0 3.38 2.55 3.75 3.75 0 0 0 2.93-1 10.9 10.9 0 0 0 1.62-4.26 51.15 51.15 0 0 1 2.76-8.27 35.16 35.16 0 0 1 3.42-6.3c1.23-1.72 2.19-2.52 3-2.52a1.18 1.18 0 0 1 .9.42 1.65 1.65 0 0 1 .35 1.11 15.15 15.15 0 0 1-.14 1.6c-.09 1-.14 2-.14 2.83a4.84 4.84 0 0 0 1.26 3.51 4.06 4.06 0 0 0 3 1.28 6.37 6.37 0 0 0 4.28-1.66 11.53 11.53 0 0 0 3.07-4.2 4.93 4.93 0 0 0 .39-1.81 3.26 3.26 0 0 0-.99-2.42zM235.07 46.43l-.18.52-.44-.33c-3-2.27-4.59-5.81-4.59-10.52a13.88 13.88 0 0 1 1.24-6.49 3.91 3.91 0 0 1 3.45-2.43 2.74 2.74 0 0 1 2.45 1.59 9.44 9.44 0 0 1 .83 4.52c.01 3.45-.92 7.87-2.76 13.14zm31.51 19.76a10.59 10.59 0 0 1-2.31 5.48 5.51 5.51 0 0 1-4.2 2 4.76 4.76 0 0 1-3.88-2.2 10.23 10.23 0 0 1-1.59-6.15c0-3.35.65-6 1.93-7.86a5.93 5.93 0 0 1 5-2.88h.84l-.09.48a11.79 11.79 0 0 0-.2 2.17 11.09 11.09 0 0 0 1.12 4.88 9.35 9.35 0 0 0 3.2 3.71l.22.15zm60.81 2.48a20.77 20.77 0 0 1-3.45 4.13A4.65 4.65 0 0 1 321 74c-2.6 0-3.92-1.86-3.92-5.54a16.39 16.39 0 0 1 2.63-9 12.23 12.23 0 0 1 6.65-5.34l.55-.17v.57c-.09 2.48-.14 4.32-.14 5.47a46.72 46.72 0 0 0 .7 8.43v.17zm7.13-14.38c.28-5.57.74-11 1.37-16.06a87.51 87.51 0 0 1 2.3-12.47c1-3.49 1.93-5 3.06-5 .93 0 1.34 1.33 1.48 1.76a15.1 15.1 0 0 1 .48 4.27c0 7-2.66 16.29-7.91 27.73l-.88 1.92zm16.94 11.15v-.65a14.54 14.54 0 0 1 1.85-7.52c1.27-2.14 2.86-3.22 4.74-3.22a3 3 0 0 1 2.3.94 3.46 3.46 0 0 1 .85 2.42 6.21 6.21 0 0 1-2.54 4.88 16.43 16.43 0 0 1-6.7 3zM68.37 71.78c-.52-.27-1.07-.47-1.58-.75s-.94-.71-1.45-1-1.08-.47-1.58-.76-.94-.7-1.44-1a79.69 79.69 0 0 1-7.21-4.93c-.39-.31-.81-.54-1.2-.84s-1.08-.83-1.6-1.27-.92-.72-1.36-1.11a51.5 51.5 0 0 1-4.08-4c-1.08-1.2-2.22-2.32-3.26-3.54-.38-.44-.64-1-1-1.44a6 6 0 0 1 1 .07h14.68c.87 0 .87.06 1.73.07a8 8 0 0 0 1.7 0 5.57 5.57 0 0 0 1.23-.41 2.93 2.93 0 0 0 1.35-2.5 4.31 4.31 0 0 0-.19-1.51 2.91 2.91 0 0 0-1-1.17A2.35 2.35 0 0 0 61.7 45c-.86 0-.86.13-1.72.13s-.86.13-1.72.13-.86-.06-1.72-.05-.86 0-1.72 0H50.4c-.33 0-.84.06-1.25 0s-.73 0-1.16 0c-.86 0-.86.07-1.71.07s-1.61-.14-2.43-.1c-.37 0-4.49.43-4.52 0v-1.75c0-.59.05-1.08.09-1.62v-2.06c0-.69 0-1.52.09-2.28a23.35 23.35 0 0 0 .19-2.84 3.83 3.83 0 0 0-.45-2.24 3.36 3.36 0 0 0-1.38-1.06 4.62 4.62 0 0 0-1.71-.31 4.28 4.28 0 0 0-1.64.38 2.9 2.9 0 0 0-1.26 1.07c-.71 1.07-.47 2.34-.45 3.53v1.06c0 .83.08 1.67.06 2.5v2c0 .64.14 1 .11 1.59s0 1.11 0 1.66c0 .16 0 .35-.17.41a6.22 6.22 0 0 1-1.6.08h-1.84c-.61 0-1-.06-1.45-.05-.72 0-1.45.06-2.18.06s-1.16-.12-1.78-.1-1.22.07-1.84.07h-1.81c-1 0-2-.13-3-.15-.76 0-1.55.13-2.3.1-1.27-.06-2.51 0-3.78 0a2.32 2.32 0 0 0-1.44.27 2.92 2.92 0 0 0-.77 1.27A3.74 3.74 0 0 0 9 48.31 3.8 3.8 0 0 0 9.27 50a1.6 1.6 0 0 0 .16.29 2.4 2.4 0 0 0 2 1h7.27c.91 0 .9-.08 1.81-.08h3.62c.91 0 .91.07 1.82.07h1.81c.9 0 .88-.19 1.75.08-.54.73-1.1 1.45-1.7 2.13a10.55 10.55 0 0 1-.7.87 9.19 9.19 0 0 0-.95.85c-.38.46-.71.94-1.09 1.38s-.74.92-1.13 1.35-.87.8-1.27 1.22-.72.94-1.13 1.36-.91.75-1.34 1.15l-1.29 1.2c-.43.4-.91.78-1.35 1.13a6.32 6.32 0 0 0-.77.81c-.23.28-.59.39-.86.62s-.68.6-1 .87a20.1 20.1 0 0 0-2.5 1.86 9.69 9.69 0 0 1-.91.71 6.52 6.52 0 0 1-.81.61c-.51.3-1.07.56-1.56.87a22.5 22.5 0 0 1-2 1.27c-.36.17-.75.18-1.1.38-.51.28-1 .65-1.51.92a5.33 5.33 0 0 0-1.62 1.21 3.07 3.07 0 0 0-.48 1.94 3 3 0 0 0 .53 1.68 3.64 3.64 0 0 0 1.25 1.3 3.79 3.79 0 0 0 1.78.27 4.2 4.2 0 0 0 2.25-.73c.51-.3 1-.59 1.52-.9s1.13-.42 1.63-.74 1.09-.67 1.63-1l1.45-1a59.63 59.63 0 0 0 6.77-5.53c.65-.58 1.32-1.16 1.95-1.77s1.2-1.33 1.82-2c.41-.42.77-.9 1.17-1.33s.7-1 1.09-1.4.85-.82 1.24-1.26.74-.92 1.12-1.37c.65-.77 1.3-1.56 2-2.33.25-.28.48-.58.72-.87a10.79 10.79 0 0 0 .72-.92v7.12c0 .93-.07 1.85-.1 2.78s-.09 1.68-.1 2.5c0 .35.08.68.08 1v1.36c0 1-.08 1.93-.08 2.89v3.25c0 1.08-.15 2.07-.19 3.11a3.25 3.25 0 0 0 .76 2.23 3 3 0 0 0 1.28 1 4.47 4.47 0 0 0 1.65.46 4.64 4.64 0 0 0 1.71-.31c.54-.22.8-.8 1.14-1.25a3.81 3.81 0 0 0 .61-2.28c.08-1.54 0-3.07 0-4.61v-5.4c0-.9-.05-.9-.06-1.79s0-.9 0-1.8v-5.4c0-.9.06-.9.06-1.8s-.08-.9-.08-1.8 0-1.05-.06-1.79c.35.45.7.87 1.06 1.31s.76.85 1.13 1.28.71.89 1.08 1.32.52 1 .9 1.38.64.71 1 1.11a41.82 41.82 0 0 0 3.83 3.85c.41.4.86.76 1.26 1.14a50 50 0 0 0 4.32 3.92c.84.63 1.55 1.38 2.38 2l2.92 2.18c.73.55 1.5 1 2.28 1.51.52.32 1.12.42 1.58.67a13.64 13.64 0 0 0 1.58.61 3 3 0 0 0 1.8.34c1.57-.3 3.25-1.1 3.61-2.82a3.68 3.68 0 0 0-2.06-3.66z"/><path class="cls-1" d="M5.57 40.71a3.91 3.91 0 0 0 1.79.81 3.72 3.72 0 0 0 1.92.12 3.79 3.79 0 0 0 1.67-1 4.14 4.14 0 0 0 .83-1.35 17 17 0 0 0 .51-1.8c.16-.48.43-.93.62-1.4s.47-.9.69-1.36c.37-.76.74-1.47 1.16-2.2a14.57 14.57 0 0 1 2.58-3.25c.53-.5 1.12-.91 1.67-1.38.2-.17.35-.4.55-.56a11 11 0 0 1 1-.55 14.22 14.22 0 0 1 1.51-.65A25.73 25.73 0 0 1 24.5 25a23.86 23.86 0 0 1 3.36-.63 27.16 27.16 0 0 1 3.81-.39 21.2 21.2 0 0 1 2.37 0h.28c.61 0 1.2-.06 1.83-.07s1.2.11 1.8.13l1.81.07c.62 0 1.23 0 1.82.08s1.24-.06 1.83 0 1.22.17 1.8.28 1.17.4 1.74.54a17.66 17.66 0 0 1 3.27 1.09 14.07 14.07 0 0 1 1.49.72c.43.26.74.67 1.16.95a18.27 18.27 0 0 1 3.13 2.5 16 16 0 0 1 2.72 4.47A24.33 24.33 0 0 1 60.4 39a3.25 3.25 0 0 0 2.6 2.58 3.59 3.59 0 0 0 1.88-.15 3.67 3.67 0 0 0 1.72-.8 3.36 3.36 0 0 0 1-3.64 16.68 16.68 0 0 0-.55-1.84 7.07 7.07 0 0 0-.71-1.43 13.35 13.35 0 0 1-.82-1.87 12.89 12.89 0 0 0-.87-1.51c-.33-.52-.59-1.08-.95-1.56s-.73-.68-1-1.11a12.54 12.54 0 0 0-1.24-1.46 16.85 16.85 0 0 0-1.92-1.71c-.55-.41-1-.88-1.51-1.32a16 16 0 0 0-3.91-2.3c-.53-.24-1.16-.29-1.72-.5-.81-.3-1.64-.62-2.47-.85a22.7 22.7 0 0 0-3.55-.93c-.57-.07-1.14-.2-1.71-.3-1-.17-2-.22-3-.3-.6 0-1.22 0-1.84-.08-1.21-.06-2.48-.09-3.7-.09a63.93 63.93 0 0 0-7.38.32c-.6.07-1.25.12-1.84.21s-1.23.23-1.81.35-1.2.32-1.78.47-1.16.44-1.74.61-1.14.36-1.68.56-1.17.31-1.7.55-1.06.56-1.58.84a17.85 17.85 0 0 0-3.31 2.17c-.29.25-.45.62-.75.85s-.48.24-.69.39a6.05 6.05 0 0 0-1.5 1.6c-.59.89-1.42 1.61-2 2.54S7.14 31 6.66 31.88a25.22 25.22 0 0 0-1.28 3.41c-.2.56-.33 1.2-.49 1.75a3.7 3.7 0 0 0-.21 1.9 4 4 0 0 0 .89 1.77zM47.58 16.9a2.3 2.3 0 0 0 .78.22 4.34 4.34 0 0 0 .93 0 4.23 4.23 0 0 0 1.52-.45 6 6 0 0 0 1.32-.88 10.46 10.46 0 0 0 1-1.19c.34-.41.68-.82 1-1.25s.63-.87.92-1.29.59-.82.94-1.3.61-.87.9-1.33a9.83 9.83 0 0 0 .77-1.41 4.14 4.14 0 0 0 .36-1.56 2.82 2.82 0 0 0-.61-1.7A3.88 3.88 0 0 0 56 3.73a4.1 4.1 0 0 0-1.75-.43 3.08 3.08 0 0 0-1.84.56 3.65 3.65 0 0 0-1.17 1.55c-.23.56-.45 1.12-.7 1.67s-.47 1.12-.73 1.66-.6 1.05-.88 1.59-.53 1.09-.83 1.67-.73 1-1 1.54a3 3 0 0 0-.44 1.78 2 2 0 0 0 .92 1.58zM14 8.7c.46.39.87.8 1.3 1.16s.88.76 1.31 1.15.85.77 1.26 1.2A16.39 16.39 0 0 1 19 13.52 16.89 16.89 0 0 1 20 15a2.84 2.84 0 0 0 .93 1 2.43 2.43 0 0 0 1.3.34 3.12 3.12 0 0 0 1.66-.55 4 4 0 0 0 1.23-1.25 3.21 3.21 0 0 0 .46-1.68 3.62 3.62 0 0 0-.58-1.77 13 13 0 0 0-1.09-1.51c-.37-.46-.8-.92-1.25-1.38s-.84-.92-1.3-1.33-1-.81-1.46-1.16a13 13 0 0 0-1.56-1 4.14 4.14 0 0 0-1.76-.58A3.78 3.78 0 0 0 15 4.5a3.7 3.7 0 0 0-1.28 1 2.54 2.54 0 0 0-.6 1.53A2.08 2.08 0 0 0 14 8.7zm17-.91c.4.46.8.92 1.18 1.38s.72 1 1.07 1.47a16.1 16.1 0 0 1 .93 1.56 14.05 14.05 0 0 1 .82 1.63 2.56 2.56 0 0 0 .92 1.17 2.5 2.5 0 0 0 1.42.4A3.61 3.61 0 0 0 39 15a3.87 3.87 0 0 0 1.29-1.18 2.83 2.83 0 0 0 .59-1.63 4.58 4.58 0 0 0-.47-1.59 14.39 14.39 0 0 0-.78-1.47c-.27-.46-.54-.95-.87-1.42s-.67-.88-1-1.32-.68-.89-1.05-1.29A15.77 15.77 0 0 0 35.49 4a9.45 9.45 0 0 0-1.3-1 3.17 3.17 0 0 0-1.57-.49 3.84 3.84 0 0 0-1.53.31 3.54 3.54 0 0 0-1.25.94 2.16 2.16 0 0 0-.57 1.42 2.08 2.08 0 0 0 .53 1.34c.4.39.82.83 1.2 1.27zm99.37 72.36c.76.28 1.53.48 2.27.8s1.26.24 1.89.46q1.87.66 3.77 1.22a29.77 29.77 0 0 0 3.36.45c.59.11 1.19.06 1.76.14s1.17.27 1.73.33 1.2 0 1.76 0 1.2.29 1.75.29a6.13 6.13 0 0 0 3.22-.81 3.1 3.1 0 0 0 1.22-1.65 3.45 3.45 0 0 0-1-3.58c-.75-.64-1.58-.4-2.48-.44-1.09 0-2.13-.08-3.21-.11a20.45 20.45 0 0 1-3.6-.3c-1.33-.27-2.71-.28-4.06-.56a35.87 35.87 0 0 1-3.49-1c-.66-.21-1.32-.42-2-.67s-1.15-.35-1.65-.58a17.23 17.23 0 0 1 1.64-.85c.58-.25 1.15-.42 1.66-.65s1.1-.55 1.6-.78 1.11-.52 1.61-.76 1.14-.51 1.61-.76 1.21-.44 1.64-.71a5.1 5.1 0 0 0 1.23-1.27 2.1 2.1 0 0 0 .77-1.48 2.6 2.6 0 0 0-.62-1.43c-.3-.43-.5-1.06-1-1.32a3.51 3.51 0 0 0-1.64-.21 3 3 0 0 0-1.76.62c-.46.31-1.07.46-1.61.79s-.88.81-1.4 1.12l-1.54.9c-.51.29-1.15.38-1.67.67l-1.56.85c-.53.29-.95.77-1.45 1s-1 .67-1.52.93-1.2.44-1.66.69c-.55-.35-1-.85-1.49-1.23s-1-.75-1.51-1.17-.83-1-1.26-1.43-1.12-.88-1.5-1.39c.59 0 1.28.15 1.83.14s1.16-.07 1.7-.09 1.17.11 1.71.08 1.14-.41 1.67-.47 1.18 0 1.69-.12a13.77 13.77 0 0 0 1.63-.43A8.42 8.42 0 0 0 132 65a5 5 0 0 0 1.45-.92 4.81 4.81 0 0 0 .82-1.52 8.27 8.27 0 0 0 .36-1.67 16.56 16.56 0 0 0 .19-1.7c.1-2.3 0-4.66-.14-7 0-.56 0-1.07-.07-1.53a15.68 15.68 0 0 0 1.47.66c.63.22 1.27.41 1.92.57s1.31.27 2 .37 1.32.29 2 .33h2.88c.53 0 1.05-.08 1.58-.15s1-.26 1.54-.37a3 3 0 0 0 1.43-.72 3.23 3.23 0 0 0 1-1.29 3.24 3.24 0 0 0-.07-1.65 3.22 3.22 0 0 0-.6-1.53 3.28 3.28 0 0 0-1.43-.86 3.22 3.22 0 0 0-1.66-.15 17.3 17.3 0 0 1-2.14.37 15.19 15.19 0 0 1-2.17 0c-.56 0-1.11-.16-1.66-.25s-1.12-.1-1.66-.24-1.06-.36-1.59-.55-1-.43-1.54-.67-1-.46-1.51-.73-1-.48-1.49-.78-.93-.64-1.38-1-.88-.7-1.31-1.06-.88-.7-1.29-1.08-.89-.94-1.39-1.42l-.19-.17h2.47c.86 0 .86-.1 1.71-.09s.86 0 1.71 0 .85.15 1.71.17.85 0 1.71 0h3.42c.85 0 .85 0 1.7.05.61 0 1.22.07 1.82.11a12.69 12.69 0 0 0 1.89 0 12.17 12.17 0 0 1 1.4 0h.08a2.35 2.35 0 0 0 1.93-.84 3.35 3.35 0 0 0 .41-2.07 3.53 3.53 0 0 0-.2-1.41 2.58 2.58 0 0 0-.79-1.22 2.48 2.48 0 0 0-1.43-.38c-.86 0-.86.05-1.72.06s-.86 0-1.72 0h-1.72c-.86 0-.86.06-1.72.07H128c-.52 0-1.08.06-1.59 0s-1.28 0-1.92 0h-1.59a18 18 0 0 0-2.38-.09 2.66 2.66 0 0 1-1.24 0 .13.13 0 0 1-.08-.06.14.14 0 0 1 0-.07 25.54 25.54 0 0 0 0-2.62c0-.55-.07-1.07-.06-1.62a.22.22 0 0 1 0-.16.21.21 0 0 1 .15 0 2.62 2.62 0 0 1 .43 0c.14 0 .27.07.41.08h.29c2-.07 4 0 6 .1h.69a13 13 0 0 0 1.38.09c.38 0 .76-.06 1.14-.06h1.69c.85 0 .84-.05 1.69 0a11.1 11.1 0 0 0 2.16-.12 2.48 2.48 0 0 0 1.37-1.17l.1-.18a2.15 2.15 0 0 0 .14-1.06c0-.92-.24-1.93-1.2-2.22a8.51 8.51 0 0 0-2.77-.22h-4.43c-.43 0-.82.07-1.25 0s-1-.09-1.54-.14a7.94 7.94 0 0 0-1.08.08c-.84 0-.84-.08-1.69-.08-.53 0-1-.19-1.57-.16s-1.32 0-2 0c0-.74.08-1.47.11-2.21s.13-1.37.1-2.06a5 5 0 0 1 1.78-.08h1.8c.9 0 .9-.1 1.8-.09s.9.12 1.8.12h1.8c.9 0 .9-.06 1.8-.05a27.07 27.07 0 0 1 3.94-.07 30.1 30.1 0 0 0 4.48 0c1 0 1.92 0 2.88-.05A7 7 0 0 0 144 18a2.06 2.06 0 0 0 1.06-.85 2.49 2.49 0 0 0 .44-1.32 3.73 3.73 0 0 0-.23-1.48 2.69 2.69 0 0 0-1.08-1 2.46 2.46 0 0 0-1.35-.57c-.83 0-.83.11-1.66.11h-11.56c-.47 0-.91-.1-1.38-.08.25-.55.52-1.08.82-1.6s.42-1.1.7-1.62.64-1.14.87-1.67a4.45 4.45 0 0 0 .37-1.83 3.09 3.09 0 0 0-.44-1.68 3.53 3.53 0 0 0-1.25-1.23 3.58 3.58 0 0 0-1.66-.81 2.73 2.73 0 0 0-1.72.86 3.64 3.64 0 0 0-.93 1.63c-.17.52-.41 1.06-.62 1.64s-.38 1.09-.6 1.65-.66 1-.9 1.53-.44 1.09-.69 1.61-.47 1.08-.73 1.58a4.54 4.54 0 0 1-1.67.15c-.84 0-.84-.06-1.68 0s-.84-.19-1.68-.19h-2.16a11.83 11.83 0 0 1-2.15 0 9.66 9.66 0 0 0-.37-1.32 10.7 10.7 0 0 0-.81-1.36c-.22-.36-.42-.72-.64-1.07s-.57-1-.9-1.47a24.14 24.14 0 0 0-2.36-2.69 4.39 4.39 0 0 0-2.88-1.61 3.35 3.35 0 0 0-1.48.59 3.43 3.43 0 0 0-1.28.92 2.57 2.57 0 0 0-.36 1.52 2.24 2.24 0 0 0 .62 1.57c.34.39.5.93.83 1.32s.65.79 1 1.2.51.89.81 1.32.73.75 1 1.19c-.81.25-.85.07-1.69.07h-1.69c-.84 0-.84-.07-1.69-.07h-2.08c-.43 0-.85.13-1.29.13-.84 0-.84-.07-1.69-.07s-.84.05-1.68.05-1.7 0-2.54-.05a1.67 1.67 0 0 0-.58.13 3.51 3.51 0 0 1-.78 0 2 2 0 0 0-1.31.36 2.58 2.58 0 0 0-.79 3.52 3 3 0 0 0 1.36 1.26 6.56 6.56 0 0 0 2.75.42h.29c1.21.11 2.42-.09 3.64-.1.89 0 .89-.08 1.78-.08h1.78a18.07 18.07 0 0 1 2.1.12 11.63 11.63 0 0 0 1.45 0 16.17 16.17 0 0 1 2.14.08 11.45 11.45 0 0 0 1.42-.07h1.78c.89 0 .89-.06 1.78-.06.64 0 1.27 0 1.9.07a13.35 13.35 0 0 1 1.61.06 12.89 12.89 0 0 1-.07 1.8v1.55a3.63 3.63 0 0 1-.07 1.13 8.2 8.2 0 0 1-1.63 0 5.12 5.12 0 0 0-.69 0c-.39 0-.79.09-1.18.09-1 0-2-.1-3-.11-.84 0-.84-.1-1.68-.11s-.84 0-1.68 0h-1.67c-.83 0-.84-.07-1.68-.07s-.84.16-1.67.15a1.68 1.68 0 0 0-1.48.85 3.16 3.16 0 0 0-.58 1.73 3.22 3.22 0 0 0 .42 1.8 1.92 1.92 0 0 0 1.64.76c.84 0 .84.06 1.68.06s.84-.13 1.68-.14.84.14 1.68.14.84-.16 1.67-.16h1.68c.84 0 .84.11 1.68.1s.84.09 1.67.08a11.54 11.54 0 0 0 1.28-.19 2.45 2.45 0 0 1 .66 0c.26 0 .53-.05.79 0a2.14 2.14 0 0 1 .32.1.44.44 0 0 0 .33 0 18.94 18.94 0 0 1 0 1.91 22.73 22.73 0 0 1 0 2.52s0 .12.06.12a8.36 8.36 0 0 1-2 .13 4.42 4.42 0 0 1-.83 0 1.5 1.5 0 0 0-.53-.06c-.59 0-1.17.08-1.76.07h-1.7c-.85 0-.85-.07-1.7-.08h-3.39c-.24 0-.46-.06-.7-.07s-.39 0-.58 0a12.06 12.06 0 0 0-1.47 0 5.66 5.66 0 0 1-.65 0H88.3a10.16 10.16 0 0 1-1.74-.15 1.33 1.33 0 0 0-.36 0 1.41 1.41 0 0 0-.33.09l-.75.27a2.31 2.31 0 0 0-1.23 1.25 3.42 3.42 0 0 0-.17 1.46 3.48 3.48 0 0 0 .06 1.27 2.81 2.81 0 0 0 .84 1.25c.37.25.93.08 1.48.08h.08c.85 0 .85.09 1.71.07s.85 0 1.7 0h1.09a7.34 7.34 0 0 0 1.25.09 4.8 4.8 0 0 1 1.06-.2c.85 0 .85.06 1.7 0a15 15 0 0 0 1.55.07c2.11-.25 4.3-.08 6.44-.16h2.43l-.21.19-1.45 1.36c-.41.38-.82.76-1.25 1.12s-.82.77-1.27 1.11-1 .53-1.47.83-.91.66-1.4.93-1 .52-1.5.75-1 .43-1.56.62-1.06.36-1.6.5-1.08.32-1.63.41-1.12 0-1.68.07a15.12 15.12 0 0 1-2.16 0 17.13 17.13 0 0 1-2.14-.32 3.1 3.1 0 0 0-1.62.21 3.16 3.16 0 0 0-1.42.8 3.19 3.19 0 0 0-.75 1.59 3.1 3.1 0 0 0 .12 1.63 3.19 3.19 0 0 0 .82 1.42 3.27 3.27 0 0 0 1.48.79c.52.11 1.06.09 1.58.16s1 .19 1.57.23 1.06 0 1.58 0 .87.15 1.3.12c.66 0 1.33-.15 2-.25s1.3-.29 2-.45 1.27-.4 1.9-.62c.31-.11.6-.25.9-.38a24.45 24.45 0 0 0 0 4.94c0 .81-.11 1.63-.11 2.45 0 1.13.11 2.22 0 3.36v5.69c0 2.71.06 5.43.24 8.14 0 0-1.81.3-2 .33-.54.11-1.07.28-1.61.38s-.87.09-1.3.17l-1.09.22c-.3.06-.55.21-.84.26l-1.62.3c-.54.1-1.11.05-1.65.14s-1.07.3-1.61.38a19.83 19.83 0 0 0-2.53.31 3.48 3.48 0 0 0-1.89 1.37 3.44 3.44 0 0 0-.17 1.64 3.16 3.16 0 0 0 .23 1.66 3.26 3.26 0 0 0 1.34 1 3.73 3.73 0 0 0 1.62.34 13.45 13.45 0 0 0 1.74-.18c.48-.07 1.06-.09 1.69-.2s1.05-.29 1.66-.41S90.4 83 91 82.89s1.1-.17 1.68-.31c.94-.21 1.82-.58 2.78-.74.3-.05.58-.21.88-.27s.86-.17 1.29-.28 1.09-.25 1.66-.4l1.65-.43 1.65-.45c.33-.09.69-.1 1-.19s.75-.14 1.12-.22.75-.38 1.15-.49a11.09 11.09 0 0 0 1.6-.41 13.29 13.29 0 0 1 1.9-.62 10.46 10.46 0 0 0 1.41-.53 14.51 14.51 0 0 1 1.62-.47c.26-.08.52-.07.78-.15s.33-.11.68-.23a8.87 8.87 0 0 0 1.82-.59 1.91 1.91 0 0 0 1.19-.77 2.71 2.71 0 0 0 .75-1.68 3.25 3.25 0 0 0-.61-2 2.62 2.62 0 0 0-1.9-1 3.58 3.58 0 0 0-.87.32 10.62 10.62 0 0 1-2.58.66 10.36 10.36 0 0 0-1.8.51c-.52.14-1 .42-1.55.56s-1.09.12-1.63.26-1.06.22-1.6.36-.93.35-1.46.48c.08 0-.16-2-.15-2.27v-5.08a6.75 6.75 0 0 0 .93 0 1.93 1.93 0 0 1 .3 0h3.95c.56 0 1.12-.1 1.68-.1s1.12-.12 1.68-.12.86.09 1.29.13.5.07.78.51a14.78 14.78 0 0 0 1.44 2.12c.22.24.32.53.52.78s.52.64.8.94a31.78 31.78 0 0 0 2.48 2.51 18 18 0 0 0 1.43 1.28c.93.65 1.91 1.22 2.86 1.82 1.51 1 3.1 1.93 4.7 2.79a18 18 0 0 0 2.07 1.03zm-26.68-27.63a2.85 2.85 0 0 1 .87-2.1l.17-.12a1.86 1.86 0 0 1 .43-.16 7.88 7.88 0 0 1 1.61-.42c.71-.06 1.43-.1 2.15-.13.53 0 1.11.05 1.76 0s1.13-.1 1.76-.1 1.13.09 1.75.09 1.14.15 1.75.15 1.14-.07 1.75-.07h1.86c.61 0 1.25.05 1.86.07h1.85c.64 0 1.27-.19 1.9-.18.35 0 .68.13 1 .14a2.94 2.94 0 0 1 .83.13 1 1 0 0 1 .23.1 1.07 1.07 0 0 1 .25.25l.25.31a3.82 3.82 0 0 1 .63 2 9.88 9.88 0 0 0 .12 1.19.86.86 0 0 1 0 .23s-.05.08-.16.11a4.57 4.57 0 0 1-1 .08h-23.16c-.3 0-.59.14-.65-.21a5 5 0 0 1 .19-1.36zm16.87-14.2a2 2 0 0 0 .33.6l1.06 1.27c.35.42.81.76 1.16 1.18s.63.93 1 1.33.79.8 1.18 1.16L126.5 45l.56.51a9.86 9.86 0 0 1-1.11.1c-.56 0-1.14-.07-1.73-.08s-1.34 0-2 0-1.32-.08-2 0c-.31 0-.69.22-.94 0-.46-.51-.11-1.79-.11-2.39a2.17 2.17 0 0 0-.74-1.36 2.82 2.82 0 0 0-1.26-.77 4.64 4.64 0 0 0-1.48-.44 4.86 4.86 0 0 0-1.57.18 3.22 3.22 0 0 0-1.19 1 1.89 1.89 0 0 0-.36 1.38c0 .77.07 1.52.08 2.28a.46.46 0 0 1 0 .21c-.08.15-.28.17-.45.15-.62-.07-1.28 0-1.93 0a26.87 26.87 0 0 0-2.93-.07c-.84 0-.84-.15-1.68-.15h-.34c.18-.19.36-.37.55-.55.41-.38.89-.68 1.29-1s.72-.8 1.11-1.22.73-.81 1.09-1.24.69-.86 1-1.28.84-.75 1.18-1.16a2 2 0 0 0 .34-.62zm-1.42 24.24c-.57 0-1.17-.09-1.82-.09s-1.18-.15-1.82-.15-1.18.07-1.82.07h-5.91c-.81 0-1.5-.11-2.24-.09-.18 0-2 .08-2 0a9.25 9.25 0 0 1-.11-2.38c0-.64 0-1.27.06-1.91a.09.09 0 0 1 0-.06h.29c.54 0 1.08.07 1.61.09s1.18 0 1.79 0h19.06c.46 0 .9.05 1.36.07.17 0 .69-.07.82.09a.88.88 0 0 1 .12.58 3.85 3.85 0 0 1-.7 2.41 2.42 2.42 0 0 1-1.79.85c-.9.08-1.82.33-2.74.43-.19 0-.38.09-.57.09-.55 0-1.15-.05-1.82 0s-1.12-.01-1.77 0z"/><path class="cls-2" d="M159.38 145.1a1.68 1.68 0 0 0-1.55-.79l-23 .48 3.92-2.39a47.68 47.68 0 0 0 15-13.73c3.41-5.07 5.15-10 5.15-14.56 0-4.76-1.27-8.51-3.77-11.13S149.22 99 144.7 99a18.86 18.86 0 0 0-9.61 2.28 14.8 14.8 0 0 0-5.81 6 17.68 17.68 0 0 0-2 8.25 5.69 5.69 0 0 0 1 3.63 3 3 0 0 0 2.55 1.08c1.74 0 3.52-.53 3.52-4.42a10.31 10.31 0 0 1 2.46-7.27 8.59 8.59 0 0 1 6.58-2.7 6.55 6.55 0 0 1 5.44 2.24c1.13 1.42 1.68 3.48 1.68 6.28a21.37 21.37 0 0 1-3.1 10.49 41 41 0 0 1-8.05 9.94 50.7 50.7 0 0 1-10.61 7.52 9.45 9.45 0 0 0-3.35 2.68 9.19 9.19 0 0 0-.31 7.55c.49.8.9.8 1.08.8a5.31 5.31 0 0 0 1.59-.32c.73-.24 1.24-.4 1.56-.48a9.46 9.46 0 0 1 3.46-.92c1.58 0 3.78.1 6.53.29l5.63.38c5.08.45 8.92.67 11.44.67a2.9 2.9 0 0 0 2.56-1.42 6.5 6.5 0 0 0 1.12-3.77 4.8 4.8 0 0 0-.68-2.68zm39.98-6.9a49.71 49.71 0 0 0 2.59-16.7c0-7.3-1.44-13-4.27-16.82S191 99 185.89 99a15.12 15.12 0 0 0-10.29 3.82 25.75 25.75 0 0 0-7.07 11 49.73 49.73 0 0 0-2.59 16.7c0 7.3 1.44 13 4.27 16.82 2.79 3.79 6.65 5.63 11.79 5.63a15.12 15.12 0 0 0 10.29-3.82 25.76 25.76 0 0 0 7.07-10.95zm-8.22.11c-2 4.3-4.75 6.48-8.3 6.48a7.4 7.4 0 0 1-6.78-4.09c-1.38-2.51-2.05-6-2.05-10.66 0-6.73.92-12.18 2.73-16.19 2-4.33 4.75-6.53 8.3-6.53a7.33 7.33 0 0 1 6.73 4.14c1.41 2.54 2.1 6.05 2.1 10.72 0 6.72-.87 12.15-2.73 16.13zm37.33-32.76a12.35 12.35 0 0 0 .23-2.27 4.9 4.9 0 0 0-.93-3.23A3.37 3.37 0 0 0 225 99a12.88 12.88 0 0 0-2.91.44l-3.52 1a46.16 46.16 0 0 0-7 2.42 7.36 7.36 0 0 0-2.79 1.92 4.67 4.67 0 0 0-.78 2.36l-.08.81a4.61 4.61 0 0 0 .73 2.53 1.66 1.66 0 0 0 1.39.87l.81-.15 8.43-2.7-.32 2c-.61 3.78-1.36 9.29-2.23 16.4s-1.62 14-2.23 20.54l-.08 1a4.61 4.61 0 0 0 1.19 3.54 4.16 4.16 0 0 0 2.89 1.12c2.91 0 4.38-1.5 4.76-4.85 2.57-23.35 4.31-37.71 5.21-42.7zm28.04 21.34c2.46-6.19 6.88-11.76 13.13-16.54.39-.31 1.08-.83 2-1.55a9.93 9.93 0 0 0 2.11-2.09 5.53 5.53 0 0 0 .71-3.15 6.74 6.74 0 0 0-.7-3.5c-.48-.74-.92-.83-1.25-.83a6.38 6.38 0 0 0-1.75.33c-.8.25-1.34.4-1.68.48a10.61 10.61 0 0 1-3.65.92c-1.69 0-4-.1-7-.29l-6-.38c-5.39-.45-9.51-.67-12.27-.67a3.26 3.26 0 0 0-2.84 1.46 6.15 6.15 0 0 0-1.19 3.73 4.43 4.43 0 0 0 .72 2.64 1.94 1.94 0 0 0 1.75.82l24.81-.45-2.8 2.26a46 46 0 0 0-10.13 11.3 49.32 49.32 0 0 0-5.81 12.77 43.52 43.52 0 0 0-1.81 11.7c0 2.77.46 4.76 1.33 5.75a4 4 0 0 0 3.13 1.45 3.89 3.89 0 0 0 3.08-1.4c.88-1 1.43-2.74 1.64-5.14a66.72 66.72 0 0 1 4.47-19.62zM400 60.8a4.92 4.92 0 0 0 .39-1.81 3.26 3.26 0 0 0-1-2.42 3.17 3.17 0 0 0-2.35-1h-1.13l.1-.49a30.78 30.78 0 0 0 .76-5 4.45 4.45 0 0 0-1-3.13A3.67 3.67 0 0 0 393 46a9.68 9.68 0 0 0-4.79 1.56 20.36 20.36 0 0 0-5.51 5.31 39.69 39.69 0 0 0-5.15 9.74l-1 2.73.26-2.91a50.83 50.83 0 0 1 .71-5.24c.28-1.42.66-3.08 1.13-4.94a26.88 26.88 0 0 0 1-5 1.09 1.09 0 0 0-.37-1 3.48 3.48 0 0 0-1.75-.29 7 7 0 0 0-3.82.88 4.92 4.92 0 0 0-1.91 2.77 57.09 57.09 0 0 0-2.58 17.13v.19l-.14.12a24.4 24.4 0 0 1-4 2.72 15.83 15.83 0 0 1-7.4 2.26c-3.43 0-5.79-1.16-7-3.45l-.25-.46.51-.13c5.43-1.33 9.33-3.16 11.59-5.41a11 11 0 0 0 3.36-8 8.46 8.46 0 0 0-2.34-6.29 8.56 8.56 0 0 0-6.29-2.29 13.9 13.9 0 0 0-8 2.39 16.37 16.37 0 0 0-5.52 6.49 20 20 0 0 0-2 8.86 19.11 19.11 0 0 0 .44 4.12v.22l-.16.16c-.55.55-1 1-1.46 1.37a6.42 6.42 0 0 1-4.13 1.78 3.16 3.16 0 0 1-2.78-2 15.53 15.53 0 0 1-1.28-6v-.12l.06-.11a137.12 137.12 0 0 0 10.3-21.59c2.55-7 3.84-13.11 3.84-18.28 0-3.6-.65-6.31-1.93-8.06a5.58 5.58 0 0 0-4.7-2.58c-3.87 0-7.07 3.17-9.5 9.41a88.4 88.4 0 0 0-5.07 23.2v.33h-.33a18.79 18.79 0 0 0-9.19 3.54 21 21 0 0 0-6.45 7.73 22.84 22.84 0 0 0-2.35 10.26v1.18l-.13.13q-.58.58-1.07 1a5.79 5.79 0 0 1-3.61 1.83c-1.12 0-2.44-.56-2.44-3.22a48.57 48.57 0 0 1 1.46-8.04 56.71 56.71 0 0 0 1.54-9.83c0-2.84-1.32-4.16-4.16-4.16a10 10 0 0 0-4.89 1.56 20.07 20.07 0 0 0-5.54 5.31 39.69 39.69 0 0 0-5.15 9.74l-1 2.72.3-3.2a6.34 6.34 0 0 0 .31-2.12v-.53c.12-.85.24-1.62.38-2.28.28-1.42.66-3.08 1.13-4.94a26.88 26.88 0 0 0 1-5 1.09 1.09 0 0 0-.37-1A3.48 3.48 0 0 0 283 46a7 7 0 0 0-3.82.88 4.92 4.92 0 0 0-1.91 2.77 54.73 54.73 0 0 0-1.91 8.35v.3h-.3c-1.09.17-2 .27-2.72.32h-.39v-.39a15.48 15.48 0 0 0-3.73-8.88 10.6 10.6 0 0 0-8.31-3.56 13.83 13.83 0 0 0-7.72 2.29c-.17.11-.33.24-.49.37l-.52.4-.24-.16a3.33 3.33 0 0 0-1.85-.44 49.76 49.76 0 0 1-8.51-.64l-.47-.08.16-.45a53.1 53.1 0 0 0 3.42-17.51c0-3.64-.86-6.53-2.55-8.6a8.37 8.37 0 0 0-6.9-2.97 11.79 11.79 0 0 0-6.43 1.83 12.39 12.39 0 0 0-4.56 5.55 22.55 22.55 0 0 0-1.69 9.22 20.9 20.9 0 0 0 2.13 9.62A17.12 17.12 0 0 0 230 51l.3.19-.15.32a58.73 58.73 0 0 1-7.65 12.78c-2.87 3.53-5.44 5.25-7.84 5.25A5.27 5.27 0 0 1 210 66.9a17.72 17.72 0 0 1-2.1-7.23 117 117 0 0 1-.53-12.49 136.25 136.25 0 0 1 2-23 8.22 8.22 0 0 0 .14-1.69 3.34 3.34 0 0 0-.89-2.55 4.22 4.22 0 0 0-2.92-.84 6 6 0 0 0-3.86 1.14c-.92.75-1.57 2.17-1.93 4.22A160.54 160.54 0 0 1 194 48.75c-2.3 6.78-4.64 12-7 15.42s-4.48 5.35-6.28 5.35c-2 0-3.61-1.82-4.74-5.42-1.09-3.44-1.64-8.38-1.64-14.67a174.88 174.88 0 0 1 2.11-24.6c.09-.9.14-1.53.14-1.84 0-1.5-.34-2.53-1-3.06a4.81 4.81 0 0 0-3-.83 5.08 5.08 0 0 0-3.82 1.24c-.8.85-1.37 2.42-1.69 4.66a156.73 156.73 0 0 0-1.82 22.65c0 9.37 1.15 16.93 3.41 22.45s5.52 8.15 9.82 8.15c3.84 0 7.54-2 11-5.84s6.66-10 9.45-18.07l.71-2 .08 2.16c.28 7.27 1.45 13.15 3.48 17.45s4.92 6.34 8.91 6.34c4.37 0 8.87-2.29 13.39-6.81a60.84 60.84 0 0 0 11.76-17.29l.14-.29.31.06a44.39 44.39 0 0 0 8.22.82h.61l-.24.56a21.55 21.55 0 0 0-1.65 8.57 17 17 0 0 0 1.51 7.14 12.6 12.6 0 0 0 4.39 5.25 12.14 12.14 0 0 0 7 2 12.64 12.64 0 0 0 8.66-3.45 17.25 17.25 0 0 0 5.15-9.25l.07-.3h.31c.85 0 1.7-.1 2.6-.2l.46-.05v1.86c0 4.06.36 7 1.06 8.85a3.44 3.44 0 0 0 3.38 2.55 3.68 3.68 0 0 0 2.89-1 10.73 10.73 0 0 0 1.7-4.29 49 49 0 0 1 2.8-8.23 38.33 38.33 0 0 1 3.36-6.35c1.21-1.72 2.13-2.53 2.9-2.53.35 0 1.18.15 1.18 1.53a36.45 36.45 0 0 1-.92 6.2 43.67 43.67 0 0 0-1 6.95 8.48 8.48 0 0 0 1.73 5.74 6.48 6.48 0 0 0 5.11 1.94 13.31 13.31 0 0 0 7.68-2.32c.61-.42 1.24-.9 2-1.53l.33-.28.25.35c.18.24.36.48.56.71a8.59 8.59 0 0 0 6.76 3.06 9.89 9.89 0 0 0 5-1.21 19.93 19.93 0 0 0 5-4.89l.41-.52.27.61c1.82 4 4.37 6 7.79 6a11.26 11.26 0 0 0 6.58-2.42 31.47 31.47 0 0 0 2.8-2.3l.31-.28.27.32c.23.27.47.54.73.8 2.63 2.58 6.39 3.89 11.18 3.89a20.07 20.07 0 0 0 10-2.62c.82-.46 1.62-1 2.38-1.46l.48-.33.14.57a10.35 10.35 0 0 0 .39 1.29 3.44 3.44 0 0 0 3.38 2.55 3.75 3.75 0 0 0 2.93-1 10.9 10.9 0 0 0 1.62-4.26 51.15 51.15 0 0 1 2.76-8.27 35.16 35.16 0 0 1 3.42-6.3c1.23-1.72 2.19-2.52 3-2.52a1.18 1.18 0 0 1 .9.42 1.65 1.65 0 0 1 .35 1.11 15.12 15.12 0 0 1-.14 1.6c-.09 1-.14 2-.14 2.83a4.84 4.84 0 0 0 1.26 3.51 4.06 4.06 0 0 0 3 1.28 6.37 6.37 0 0 0 4.28-1.66 11.53 11.53 0 0 0 3.07-4.2zM233.07 44.43l-.18.52-.44-.33c-3-2.27-4.59-5.81-4.59-10.52a13.88 13.88 0 0 1 1.24-6.49 3.91 3.91 0 0 1 3.45-2.43 2.74 2.74 0 0 1 2.45 1.59 9.44 9.44 0 0 1 .83 4.52c.01 3.45-.92 7.87-2.76 13.14zm31.51 19.76a10.59 10.59 0 0 1-2.31 5.48 5.51 5.51 0 0 1-4.2 2 4.76 4.76 0 0 1-3.88-2.2 10.23 10.23 0 0 1-1.59-6.15c0-3.35.65-6 1.93-7.86a5.93 5.93 0 0 1 5-2.88h.84l-.09.48a11.79 11.79 0 0 0-.2 2.17 11.09 11.09 0 0 0 1.12 4.88 9.35 9.35 0 0 0 3.2 3.71l.22.15zm60.81 2.48a20.78 20.78 0 0 1-3.45 4.13A4.65 4.65 0 0 1 319 72c-2.6 0-3.92-1.86-3.92-5.54a16.39 16.39 0 0 1 2.63-9 12.23 12.23 0 0 1 6.65-5.34l.55-.17v.57c-.09 2.48-.14 4.32-.14 5.47a46.72 46.72 0 0 0 .7 8.43v.17zm7.13-14.38c.28-5.57.74-11 1.37-16.06a87.51 87.51 0 0 1 2.3-12.47c1-3.49 1.93-5 3.06-5 .93 0 1.34 1.33 1.48 1.76a15.1 15.1 0 0 1 .48 4.27c0 7-2.66 16.29-7.91 27.73l-.88 1.92zm16.94 11.15v-.65a14.54 14.54 0 0 1 1.85-7.52c1.27-2.14 2.86-3.22 4.74-3.22a3 3 0 0 1 2.3.94 3.46 3.46 0 0 1 .84 2.42 6.21 6.21 0 0 1-2.54 4.88 16.43 16.43 0 0 1-6.7 3zM59.67 49.31a8.06 8.06 0 0 1-1.7 0c-.87 0-.87-.06-1.73-.07-1.48 0-3-.07-4.49 0h-7.68c-.87 0-1.6.07-2.51 0a6 6 0 0 0-1-.07c.37.45.64 1 1 1.44 1 1.22 2.19 2.34 3.26 3.54a51.51 51.51 0 0 0 4.08 4c.44.39.92.73 1.36 1.11s1.06.85 1.6 1.27.81.53 1.2.84a79.7 79.7 0 0 0 7.21 4.93c.5.31.93.71 1.44 1s1.07.48 1.58.76.93.72 1.45 1 1.06.48 1.58.75a3.68 3.68 0 0 1 1.83 3.85c-.36 1.72-2 2.52-3.61 2.82a3 3 0 0 1-1.8-.34 13.65 13.65 0 0 1-1.58-.61c-.46-.25-1.06-.35-1.58-.67-.78-.48-1.55-1-2.28-1.51l-2.92-2.18c-.83-.62-1.55-1.37-2.38-2a50 50 0 0 1-4.32-3.92c-.41-.39-.85-.74-1.26-1.14a41.8 41.8 0 0 1-3.83-3.85c-.32-.41-.62-.74-1-1.11s-.53-1-.9-1.38-.71-.88-1.08-1.32-.77-.84-1.13-1.28-.71-.86-1.06-1.31c0 .74.06.89.06 1.79s.08.9.08 1.8-.06.9-.06 1.8v7.2c0 .9.05.9.06 1.79s0 .9 0 1.8v3.6c0 1.54.07 3.07 0 4.61a3.81 3.81 0 0 1-.61 2.28c-.33.45-.6 1-1.14 1.25a4.64 4.64 0 0 1-1.71.31 4.47 4.47 0 0 1-1.65-.46 3 3 0 0 1-1.28-1 3.25 3.25 0 0 1-.76-2.23c0-1 .19-2.07.19-3.11v-3.25c0-1.08.06-1.93.08-2.89v-1.36c0-.35-.08-.68-.08-1 0-.83.06-1.67.1-2.5s.1-1.85.1-2.78v-7.12a10.8 10.8 0 0 1-.72.92c-.24.29-.47.58-.72.87-.67.76-1.32 1.56-2 2.33-.38.45-.73.93-1.12 1.37s-.84.82-1.24 1.26-.69 1-1.09 1.4-.76.9-1.17 1.33c-.63.64-1.18 1.34-1.82 2s-1.29 1.18-1.95 1.77A59.62 59.62 0 0 1 12.4 73L11 74c-.54.36-1.09.67-1.63 1s-1.12.43-1.63.74-1 .6-1.52.9a4.2 4.2 0 0 1-2.25.73 3.79 3.79 0 0 1-1.78-.27A3.64 3.64 0 0 1 .9 75.79a3 3 0 0 1-.53-1.68 3.07 3.07 0 0 1 .48-1.94A5.33 5.33 0 0 1 2.48 71c.53-.28 1-.64 1.51-.92.35-.2.74-.21 1.1-.38a22.55 22.55 0 0 0 2-1.27c.49-.3 1-.56 1.56-.87a6.51 6.51 0 0 0 .81-.61 9.68 9.68 0 0 0 .91-.71 20.11 20.11 0 0 1 2.5-1.86c.36-.28.69-.58 1-.87s.63-.34.86-.62a6.31 6.31 0 0 1 .77-.81c.45-.38.88-.77 1.32-1.17s.87-.79 1.29-1.2.92-.74 1.34-1.15.73-.93 1.13-1.36.87-.79 1.27-1.22.74-.91 1.13-1.35.71-.93 1.09-1.38a9.18 9.18 0 0 1 .95-.85 10.52 10.52 0 0 0 .7-.87c.6-.68 1.16-1.4 1.7-2.13-.87-.27-.84-.08-1.75-.08h-1.81c-.9 0-.91-.07-1.82-.07h-3.62c-.9 0-.9.08-1.81.08-1.08 0-2.19-.06-3.27 0h-2.17c-.72 0-1.21.07-1.83 0a2.4 2.4 0 0 1-2-1 1.6 1.6 0 0 1-.07-.33A3.8 3.8 0 0 1 7 46.31a3.74 3.74 0 0 1 .19-1.43 2.92 2.92 0 0 1 .77-1.27 2.32 2.32 0 0 1 1.44-.27c1.27 0 2.51-.08 3.78 0 .76 0 1.54-.11 2.3-.1 1 0 2 .14 3 .15h1.81c.62 0 1.23-.06 1.84-.07s1.16.1 1.78.1 1.45-.05 2.18-.06c.48 0 1 .05 1.45.05h1.84a6.23 6.23 0 0 0 1.6-.08c.15-.05.17-.25.17-.41v-1.66c0-.55-.1-1-.11-1.59s-.06-1.36 0-2c0-.83 0-1.67-.06-2.5v-1.06c0-1.19-.26-2.46.45-3.53a2.9 2.9 0 0 1 1.26-1.07 4.28 4.28 0 0 1 1.64-.38 4.62 4.62 0 0 1 1.71.31 3.36 3.36 0 0 1 1.38 1.06 3.83 3.83 0 0 1 .45 2.24 23.34 23.34 0 0 1-.19 2.84c-.07.76 0 1.53-.09 2.28s0 1.36 0 2.06c0 .54-.08 1.08-.09 1.62s0 1.15 0 1.75c0 .43 4.15 0 4.52 0 .82 0 1.62.1 2.43.1s.86-.07 1.71-.07h8.56c.86 0 .86.06 1.72.05s.86-.13 1.72-.13.68-.24 1.54-.24a2.35 2.35 0 0 1 1.39.67 2.91 2.91 0 0 1 1 1.17 4.31 4.31 0 0 1 .19 1.51 2.93 2.93 0 0 1-1.35 2.5 5.57 5.57 0 0 1-1.26.46z"/><path class="cls-2" d="M32.34 21.94c.61 0 1.2-.06 1.83-.07s1.2.11 1.8.13l1.81.07c.62 0 1.23 0 1.82.08s1.24-.06 1.83 0 1.22.17 1.8.28 1.17.4 1.74.54a17.66 17.66 0 0 1 3.27 1.09 14.09 14.09 0 0 1 1.49.72c.43.26.74.67 1.16.95A18.28 18.28 0 0 1 54 28.27a16 16 0 0 1 2.72 4.47A24.33 24.33 0 0 1 58.4 37a3.25 3.25 0 0 0 2.6 2.58 3.59 3.59 0 0 0 1.88-.15 3.67 3.67 0 0 0 1.72-.8 3.36 3.36 0 0 0 1-3.64 16.69 16.69 0 0 0-.55-1.84 7.07 7.07 0 0 0-.71-1.43 13.35 13.35 0 0 1-.82-1.87 12.89 12.89 0 0 0-.87-1.51c-.33-.52-.59-1.08-.95-1.56s-.73-.68-1-1.11a12.55 12.55 0 0 0-1.24-1.46 16.86 16.86 0 0 0-1.92-1.71c-.55-.41-1-.88-1.51-1.32a16 16 0 0 0-3.91-2.3c-.53-.24-1.16-.29-1.72-.5-.81-.3-1.64-.62-2.47-.85a22.7 22.7 0 0 0-3.55-.93c-.57-.07-1.14-.2-1.71-.3-1-.17-2-.22-3-.3-.6 0-1.22 0-1.84-.08-1.21-.06-2.48-.09-3.7-.09a63.93 63.93 0 0 0-7.38.32c-.6.07-1.25.12-1.84.21s-1.23.23-1.81.35-1.2.33-1.78.47-1.16.44-1.74.61-1.14.36-1.68.56-1.17.31-1.7.55-1.06.56-1.58.84a17.84 17.84 0 0 0-3.31 2.17c-.29.25-.45.62-.75.85s-.48.24-.69.39a6.05 6.05 0 0 0-1.5 1.6c-.59.89-1.42 1.61-2 2.54S5.14 29 4.66 29.88a25.23 25.23 0 0 0-1.28 3.41c-.2.56-.33 1.2-.49 1.75a3.7 3.7 0 0 0-.21 1.9 4 4 0 0 0 .88 1.77 3.9 3.9 0 0 0 1.79.81 3.72 3.72 0 0 0 1.92.12 3.79 3.79 0 0 0 1.67-1 4.14 4.14 0 0 0 .83-1.35 17 17 0 0 0 .51-1.8c.16-.48.43-.93.62-1.4s.47-.9.69-1.36c.37-.76.74-1.47 1.16-2.2a14.57 14.57 0 0 1 2.58-3.25c.53-.5 1.12-.91 1.67-1.38.2-.17.35-.4.55-.56a11 11 0 0 1 1-.55 14.25 14.25 0 0 1 1.51-.65A25.71 25.71 0 0 1 22.5 23a23.86 23.86 0 0 1 3.36-.63 27.16 27.16 0 0 1 3.81-.39 21.21 21.21 0 0 1 2.37 0zm14.95-6.77a4.34 4.34 0 0 1-.93 0 2.3 2.3 0 0 1-.78-.22 2 2 0 0 1-1-1.63 3 3 0 0 1 .44-1.78c.3-.52.72-1 1-1.54s.55-1.08.83-1.61.62-1 .88-1.59.49-1.11.73-1.66.54-1.14.78-1.73a3.65 3.65 0 0 1 1.17-1.55 3.08 3.08 0 0 1 1.84-.56 4.1 4.1 0 0 1 1.75.43 3.88 3.88 0 0 1 1.44 1.09 2.82 2.82 0 0 1 .61 1.7 4.14 4.14 0 0 1-.36 1.56 9.83 9.83 0 0 1-.77 1.41c-.29.46-.59.91-.9 1.33s-.67.91-.94 1.3-.61.84-.92 1.29-.65.84-1 1.25a10.46 10.46 0 0 1-1 1.19 6 6 0 0 1-1.32.88 4.23 4.23 0 0 1-1.55.44zM18 13a16.87 16.87 0 0 0-1-1.43 16.39 16.39 0 0 0-1.14-1.32c-.41-.43-.83-.82-1.26-1.2s-.86-.77-1.31-1.15-.83-.81-1.29-1.2a2.08 2.08 0 0 1-.93-1.62 2.54 2.54 0 0 1 .6-1.53A3.7 3.7 0 0 1 13 2.5a3.78 3.78 0 0 1 1.61-.38 4.14 4.14 0 0 1 1.76.58 13 13 0 0 1 1.56 1c.48.35 1 .74 1.46 1.16s.87.89 1.3 1.33.87.92 1.25 1.38A13 13 0 0 1 23 9.09a3.62 3.62 0 0 1 .59 1.72 3.21 3.21 0 0 1-.46 1.68 4 4 0 0 1-1.23 1.25 3.12 3.12 0 0 1-1.66.55 2.43 2.43 0 0 1-1.3-.34A2.84 2.84 0 0 1 18 13zm17.34.4a2.5 2.5 0 0 1-1.42-.4 2.56 2.56 0 0 1-.92-1.17 14.05 14.05 0 0 0-.81-1.63 16.12 16.12 0 0 0-.93-1.56c-.35-.5-.69-1-1.07-1.47s-.78-.92-1.19-1.38-.81-.88-1.22-1.35a2.08 2.08 0 0 1-.53-1.34 2.16 2.16 0 0 1 .57-1.42 3.54 3.54 0 0 1 1.27-.93 3.84 3.84 0 0 1 1.53-.3 3.17 3.17 0 0 1 1.57.49 9.45 9.45 0 0 1 1.3 1 15.76 15.76 0 0 1 1.23 1.12c.37.4.7.85 1.05 1.29s.71.87 1 1.32.6 1 .87 1.42a14.39 14.39 0 0 1 .78 1.47 4.58 4.58 0 0 1 .47 1.59 2.83 2.83 0 0 1-.59 1.63A3.87 3.87 0 0 1 37 13a3.61 3.61 0 0 1-1.66.4zm65.31 22.91c-2.14.08-4.33-.1-6.44.16a15 15 0 0 1-1.55-.07c-.85 0-.85-.06-1.7 0a4.8 4.8 0 0 0-1.06.2 7.34 7.34 0 0 1-1.25-.09h-2.79c-.85 0-.85-.09-1.71-.07h-.08c-.55 0-1.1.17-1.48-.08a2.81 2.81 0 0 1-.81-1.36 3.48 3.48 0 0 1-.14-1.43 3.42 3.42 0 0 1 .17-1.46 2.31 2.31 0 0 1 1.23-1.25l.75-.27a1.4 1.4 0 0 1 .33-.09 1.33 1.33 0 0 1 .36 0 10.15 10.15 0 0 0 1.74.15h9.82a5.66 5.66 0 0 0 .65 0 12.05 12.05 0 0 1 1.47 0h.58c.19 0 .46.07.7.07h3.39c.85 0 .85.07 1.7.08s.85 0 1.7 0c.59 0 1.18 0 1.76-.07a1.5 1.5 0 0 1 .53.06 4.43 4.43 0 0 0 .83 0 8.36 8.36 0 0 0 2-.13s-.06-.07-.06-.12a22.72 22.72 0 0 0 0-2.52 18.94 18.94 0 0 0 0-1.91.44.44 0 0 1-.33 0 2.14 2.14 0 0 0-.32-.1c-.26 0-.52.05-.79 0a2.45 2.45 0 0 0-.66 0 11.51 11.51 0 0 1-1.28.19c-.84 0-.84-.09-1.67-.08s-.84-.11-1.68-.1-.84 0-1.68 0-.84.16-1.67.16-.84-.14-1.68-.14-.84.13-1.68.14-.84-.06-1.68-.06a1.92 1.92 0 0 1-1.64-.76 3.22 3.22 0 0 1-.42-1.8 3.16 3.16 0 0 1 .57-1.73 1.68 1.68 0 0 1 1.55-.83c.84 0 .84-.16 1.67-.15s.84.07 1.68.07h3.35c.84 0 .84.1 1.68.11 1 0 2 .12 3 .11.4 0 .79-.07 1.18-.09a5.12 5.12 0 0 1 .69 0 8.2 8.2 0 0 0 1.63 0 3.63 3.63 0 0 0 .07-1.13v-1.55a12.88 12.88 0 0 0 .07-1.8 13.34 13.34 0 0 0-1.61-.06c-.64 0-1.27-.07-1.9-.07-.89 0-.89.06-1.78.06h-1.78a11.46 11.46 0 0 1-1.42.07 16.15 16.15 0 0 0-2.14-.08 11.66 11.66 0 0 1-1.45 0 18.05 18.05 0 0 0-2.1-.12h-1.78c-.89 0-.89.08-1.78.08-1.22 0-2.43.21-3.64.1h-.29a6.56 6.56 0 0 1-2.75-.42 3 3 0 0 1-1.36-1.26 2.58 2.58 0 0 1 .79-3.52 2 2 0 0 1 1.33-.35 3.51 3.51 0 0 0 .78 0 1.67 1.67 0 0 1 .63-.1c.84.05 1.7.05 2.54.05s.84-.05 1.68-.05.78.1 1.64.1c.44 0 .86-.1 1.29-.13.67-.06 1.41 0 2.08 0 .84 0 .84.07 1.69.07h1.69c.84 0 .89.18 1.69-.07-.27-.45-.71-.77-1-1.19s-.5-.91-.81-1.32-.64-.8-1-1.2-.49-.93-.83-1.32a2.24 2.24 0 0 1-.62-1.57 2.57 2.57 0 0 1 .36-1.52 3.43 3.43 0 0 1 1.28-.92 3.35 3.35 0 0 1 1.48-.59 4.39 4.39 0 0 1 2.88 1.61 24.14 24.14 0 0 1 2.36 2.69c.34.46.6 1 .9 1.47s.42.71.64 1.07a10.71 10.71 0 0 1 .81 1.36 9.66 9.66 0 0 1 .37 1.32 11.83 11.83 0 0 0 2.15 0h2.16c.84 0 .84.21 1.68.19s.84.06 1.68 0a4.54 4.54 0 0 0 1.67-.15c.26-.5.47-1 .73-1.58s.45-1.07.69-1.61.68-1 .9-1.53.41-1.12.6-1.65.45-1.12.62-1.64a3.64 3.64 0 0 1 .89-1.63 2.73 2.73 0 0 1 1.72-.86 3.58 3.58 0 0 1 1.66.81 3.53 3.53 0 0 1 1.25 1.23 3.09 3.09 0 0 1 .48 1.75 4.45 4.45 0 0 1-.38 1.78c-.23.53-.56 1.08-.87 1.67s-.41 1.11-.7 1.62-.57 1.06-.82 1.61c.47 0 .91.08 1.38.08h11.56c.83 0 .83-.11 1.66-.11a2.46 2.46 0 0 1 1.35.57 2.69 2.69 0 0 1 1.08 1 3.73 3.73 0 0 1 .23 1.48 2.49 2.49 0 0 1-.44 1.32A2.05 2.05 0 0 1 142 16a7 7 0 0 1-2.42.41c-1 .07-1.92.05-2.88.05a30.11 30.11 0 0 1-4.48 0 27 27 0 0 0-3.94.07c-.9 0-.9.06-1.8.05h-1.8c-.9 0-.9-.12-1.8-.12s-.9.1-1.8.09-.9 0-1.8 0a5 5 0 0 0-1.78.08c0 .69-.07 1.37-.1 2.06s-.1 1.47-.11 2.21h2c.66 0 1 .16 1.57.16.84 0 .84.08 1.69.08a7.94 7.94 0 0 1 1.05-.14q.77.09 1.54.14h1.25c1 0 2 .06 3 0h1.43a8.51 8.51 0 0 1 2.77.22c1 .29 1.2 1.3 1.2 2.22a2.15 2.15 0 0 1-.14 1.06l-.1.18a2.48 2.48 0 0 1-1.41 1.18 11.1 11.1 0 0 1-2.16.12c-.84 0-.84.05-1.69 0s-.84 0-1.69 0c-.38 0-.76 0-1.14.06a13 13 0 0 1-1.38-.09h-.69c-2-.09-4-.17-6-.1h-.29c-.14 0-.27-.06-.41-.08a2.63 2.63 0 0 0-.43 0 .21.21 0 0 0-.15 0 .22.22 0 0 0 0 .16c0 .55 0 1.07.06 1.62a25.53 25.53 0 0 1 0 2.62.14.14 0 0 0 0 .07.13.13 0 0 0 .08.06 2.66 2.66 0 0 0 1.24 0 18 18 0 0 1 2.38.09H138c.86 0 .86-.06 1.72-.07h3.44c.86 0 .86-.05 1.72-.06a2.48 2.48 0 0 1 1.43.38 2.58 2.58 0 0 1 .79 1.22 3.53 3.53 0 0 1 .2 1.41 3.35 3.35 0 0 1-.41 2.07 2.35 2.35 0 0 1-1.93.84h-.08a12.19 12.19 0 0 0-1.4 0 12.7 12.7 0 0 1-1.89 0c-.61 0-1.21-.1-1.82-.11-.85 0-.85 0-1.7-.05h-5.13c-.86 0-.85-.15-1.71-.17s-.86 0-1.71 0-.86.1-1.71.09"/><path class="cls-2" d="M87.15 50.54c-.52 0-1.05.08-1.58 0s-1-.15-1.57-.23-1.06 0-1.58-.16a3.27 3.27 0 0 1-1.48-.79 3.19 3.19 0 0 1-.82-1.36 3.1 3.1 0 0 1-.12-1.63 3.19 3.19 0 0 1 .72-1.48 3.16 3.16 0 0 1 1.42-.8 3.1 3.1 0 0 1 1.62-.21 17.15 17.15 0 0 0 2.14.32 15.12 15.12 0 0 0 2.16 0c.56 0 1.13 0 1.68-.07s1.09-.27 1.63-.41 1.08-.31 1.6-.5 1.05-.39 1.56-.62 1-.48 1.5-.75.93-.62 1.4-.93 1-.5 1.47-.83.84-.75 1.27-1.11.85-.74 1.25-1.12l1.45-1.36c.47-.45 1-.87 1.46-1.35s.89-1 1.31-1.49a2.52 2.52 0 0 1 1.71-.88 2.45 2.45 0 0 1 1.78.64 2.41 2.41 0 0 1 .9 1.65 2.55 2.55 0 0 1-.49 1.87c-.35.41-.83.73-1.18 1.16s-.69.86-1 1.28-.72.84-1.09 1.24-.72.86-1.11 1.22-.87.67-1.29 1-.76.8-1.18 1.16-.89.65-1.32 1-.76.82-1.21 1.15-.92.63-1.37.94-.94.6-1.41.87-1 .45-1.51.69a16.41 16.41 0 0 1-1.53.64c-.63.22-1.26.45-1.9.62s-1.3.35-2 .45-1.33.21-2 .25c-.44.08-.85-.07-1.29-.07zm54.13.07h1.58c.53 0 1.05-.08 1.58-.15s1-.26 1.54-.37a3 3 0 0 0 1.43-.72 3.23 3.23 0 0 0 1-1.29 3.24 3.24 0 0 0-.07-1.65 3.22 3.22 0 0 0-.6-1.53 3.28 3.28 0 0 0-1.43-.86 3.22 3.22 0 0 0-1.66-.15 17.31 17.31 0 0 1-2.14.37 15.19 15.19 0 0 1-2.17 0 16.75 16.75 0 0 1-1.66-.25c-.55-.09-1.12-.1-1.66-.24s-1.06-.36-1.59-.55-1-.43-1.54-.67-1-.46-1.51-.73-1-.48-1.49-.78-.93-.64-1.38-1-.88-.7-1.31-1.06-.88-.7-1.29-1.08-.89-.94-1.39-1.42-1-.84-1.49-1.32-.93-1-1.34-1.47a2.51 2.51 0 0 0-1.66-1 2.48 2.48 0 0 0-1.77.69 2.37 2.37 0 0 0-.9 1.63 2.51 2.51 0 0 0 .49 1.86l1.06 1.27c.35.42.81.76 1.16 1.18s.63.93 1 1.33.79.8 1.18 1.16L124.5 43c.4.37.8.76 1.22 1.12s.87.68 1.3 1 .84.73 1.28 1.06.95.58 1.41.89.89.67 1.37.95 1 .42 1.53.65a16.51 16.51 0 0 0 1.51.68c.63.22 1.27.41 1.92.57s1.31.27 2 .37 1.32.29 2 .33c.37.05.81-.01 1.24-.01z"/><path class="cls-2" d="M132.55 47.4a4.65 4.65 0 0 1 .09 1.08c0 .5 0 1.11.08 1.75.12 2.31.24 4.68.14 7a16.56 16.56 0 0 1-.19 1.7 8.27 8.27 0 0 1-.36 1.67 4.81 4.81 0 0 1-.82 1.52A5 5 0 0 1 130 63a8.42 8.42 0 0 1-1.6.51 13.78 13.78 0 0 1-1.63.43c-.52.08-1.08.06-1.69.12s-1.07.43-1.67.47-1.11-.1-1.71-.08-1.11.08-1.7.09-1.24-.14-1.83-.14c.38.51 1.06.91 1.5 1.39s.78 1 1.26 1.43 1 .78 1.51 1.17.94.88 1.49 1.23c.46-.24 1.09-.38 1.66-.69s1-.64 1.52-.93.92-.75 1.45-1l1.56-.85c.52-.29 1.15-.38 1.67-.67l1.54-.9c.53-.31.92-.82 1.4-1.12s1.15-.48 1.61-.79a3 3 0 0 1 1.76-.62 3.51 3.51 0 0 1 1.64.21c.48.26.68.89 1 1.32a2.6 2.6 0 0 1 .62 1.43 2.1 2.1 0 0 1-.77 1.48 5.1 5.1 0 0 1-1.23 1.27c-.43.26-1 .39-1.64.71s-1 .47-1.61.76-1 .49-1.61.76-1 .53-1.6.78-1.09.39-1.66.65a17.25 17.25 0 0 0-1.64.85c.5.23 1.12.38 1.65.58s1.31.46 2 .67a35.88 35.88 0 0 0 3.49 1c1.35.28 2.72.29 4.06.56a20.46 20.46 0 0 0 3.6.3c1.08 0 2.13.06 3.21.11.89 0 1.72-.2 2.48.44a3.45 3.45 0 0 1 1 3.58 3.1 3.1 0 0 1-1.22 1.65 6.13 6.13 0 0 1-3.22.81c-.55 0-1.13-.25-1.75-.29s-1.15 0-1.76 0-1.13-.24-1.73-.33-1.17 0-1.76-.14a29.75 29.75 0 0 1-3.36-.45q-1.9-.56-3.77-1.22c-.63-.22-1.28-.2-1.89-.46s-1.51-.52-2.27-.8a17.94 17.94 0 0 1-2.06-1.07c-1.6-.85-3.19-1.83-4.7-2.79-1-.6-1.93-1.18-2.86-1.82a18 18 0 0 1-1.43-1.28 31.82 31.82 0 0 1-2.48-2.51c-.28-.3-.54-.62-.8-.94s-.31-.54-.52-.78a14.78 14.78 0 0 1-1.51-2.18c-.27-.43-.25-.46-.78-.51s-.85-.13-1.29-.13-1.12.12-1.68.12-1.12.1-1.68.1h-3.95a1.92 1.92 0 0 0-.3 0 6.76 6.76 0 0 1-.93 0v5.08c0 .25.23 2.25.15 2.27.54-.13.94-.35 1.46-.48s1.08-.22 1.6-.36 1.11-.12 1.63-.26 1-.42 1.55-.56a10.35 10.35 0 0 1 1.8-.51 10.63 10.63 0 0 0 2.58-.66 3.58 3.58 0 0 1 .87-.32 2.62 2.62 0 0 1 1.9 1 3.25 3.25 0 0 1 .61 2 2.71 2.71 0 0 1-.75 1.68 1.91 1.91 0 0 1-1.19.77 8.87 8.87 0 0 1-1.82.59c-.35.11-.33.12-.68.23s-.52.07-.78.15a14.47 14.47 0 0 0-1.62.47 10.45 10.45 0 0 1-1.41.53 13.29 13.29 0 0 0-1.9.62 11.09 11.09 0 0 1-1.6.41c-.4.11-.76.4-1.15.49s-.74.11-1.12.22-.68.1-1 .19l-1.65.45-1.65.43c-.56.15-1.12.26-1.66.4s-.86.18-1.29.28-.58.22-.88.27c-1 .16-1.85.53-2.78.74-.58.13-1.15.19-1.68.31s-1.13.31-1.65.42-1.15.32-1.66.41-1.21.13-1.69.2a13.44 13.44 0 0 1-1.69.18 3.73 3.73 0 0 1-1.62-.34 3.26 3.26 0 0 1-1.34-1 3.16 3.16 0 0 1-.23-1.66 3.44 3.44 0 0 1 .17-1.64 3.48 3.48 0 0 1 1.89-1.37 19.83 19.83 0 0 1 2.53-.31c.54-.08 1.06-.29 1.61-.38s1.1 0 1.65-.14l1.62-.3c.3-.06.54-.21.84-.26l1.09-.22c.43-.09.87-.09 1.3-.17s1.07-.27 1.61-.38c.16 0 2-.35 2-.33-.19-2.71-.21-5.43-.24-8.14V59.8c.07-1.13 0-2.23 0-3.36 0-.82.14-1.64.11-2.45-.08-2.06-.41-4.26.33-6.23.5-.58.79-.3 1.38-.79s.66-.4 1.25-.89l1.18-1c.59-.49.33-.84 1-1.26a12.92 12.92 0 0 1 1.67-.37 14 14 0 0 1 1.66.07c.84 0 .84.15 1.68.15a26.86 26.86 0 0 1 2.93.07c.65.07 1.31 0 1.93 0 .17 0 .38 0 .45-.15a.46.46 0 0 0 0-.21c0-.76-.08-1.52-.08-2.28a1.89 1.89 0 0 1 .36-1.38 3.22 3.22 0 0 1 1.19-1 4.86 4.86 0 0 1 1.57-.18 4.64 4.64 0 0 1 1.48.44 2.82 2.82 0 0 1 1.26.77 2.17 2.17 0 0 1 .74 1.36c0 .6-.35 1.88.12 2.39.24.27.63.08.94.05.66-.06 1.32 0 2 0h2c.66 0 1.17.06 1.73.08s1.27-.18 1.82-.12a16 16 0 0 1 1.87.23c.65.39.53.59 1.14 1.05s.64.41 1.25.87a7.91 7.91 0 0 0 1.2.92 4.32 4.32 0 0 1 1.27.82zm-6 4.56a.86.86 0 0 0 0-.23 9.89 9.89 0 0 1-.12-1.19 3.81 3.81 0 0 0-.63-2l-.25-.31a1.07 1.07 0 0 0-.25-.25 1 1 0 0 0-.23-.1 2.94 2.94 0 0 0-.83-.13c-.35 0-.68-.13-1-.14-.63 0-1.26.19-1.9.18h-1.85c-.61 0-1.23-.06-1.86-.07s-1.23 0-1.86 0-1.19.07-1.75.07-1.2-.15-1.75-.15-1.2-.09-1.75-.09-1.21.09-1.76.1-1.23-.06-1.76 0c-.71 0-1.43.07-2.15.13a7.87 7.87 0 0 0-1.61.42 1.86 1.86 0 0 0-.43.16l-.17.12a2.85 2.85 0 0 0-.87 2.1 5 5 0 0 0-.12 1.44c.06.35.35.21.65.21h23.03a4.56 4.56 0 0 0 1-.08c.13-.15.17-.15.18-.15zm-24.68 4h-.29a.09.09 0 0 0 0 .06c-.06.64 0 1.27-.06 1.91a9.26 9.26 0 0 0 .11 2.38c0 .06 1.8 0 2 0 .74 0 1.5.06 2.24.09s1.64 0 2.45 0h3.46c.58 0 1.24-.07 1.82-.07s1.24.15 1.82.15 1.25.09 1.82.09 1.26-.09 1.82-.1 1.27.06 1.82 0c.19 0 .38-.07.57-.09.91-.1 1.83-.35 2.74-.43a2.42 2.42 0 0 0 1.79-.85 3.85 3.85 0 0 0 .7-2.41.88.88 0 0 0-.12-.58c-.13-.16-.65-.08-.82-.09-.45 0-.89-.06-1.36-.07h-2.87c-.37 0-.63.05-1 0s-.65 0-1 0h-1.77c-.88 0-1.66.05-2.51 0s-1.87 0-2.81 0h-10.59zm-42.2-6.65a8.06 8.06 0 0 1-1.7 0c-.87 0-.87-.06-1.73-.07-1.48 0-3-.07-4.49 0h-7.68c-.87 0-1.6.07-2.51 0a6 6 0 0 0-1-.07c.37.45.64 1 1 1.44 1 1.22 2.19 2.34 3.26 3.54a51.51 51.51 0 0 0 4.08 4c.44.39.92.73 1.36 1.11s1.06.85 1.6 1.27.81.53 1.2.84a79.7 79.7 0 0 0 7.21 4.93c.5.31.93.71 1.44 1s1.07.48 1.58.76.93.72 1.45 1 1.06.48 1.58.75a3.68 3.68 0 0 1 1.83 3.85c-.36 1.72-2 2.52-3.61 2.82a3 3 0 0 1-1.8-.34 13.65 13.65 0 0 1-1.58-.61c-.46-.25-1.06-.35-1.58-.67-.78-.48-1.55-1-2.28-1.51l-2.92-2.18c-.83-.62-1.55-1.37-2.38-2a50 50 0 0 1-4.32-3.92c-.41-.39-.85-.74-1.26-1.14a41.8 41.8 0 0 1-3.83-3.85c-.32-.41-.62-.74-1-1.11s-.53-1-.9-1.38-.71-.88-1.08-1.32-.77-.84-1.13-1.28-.71-.86-1.06-1.31c0 .74.06.89.06 1.79s.08.9.08 1.8-.06.9-.06 1.8v7.2c0 .9.05.9.06 1.79s0 .9 0 1.8v3.6c0 1.54.07 3.07 0 4.61a3.81 3.81 0 0 1-.61 2.28c-.33.45-.6 1-1.14 1.25a4.64 4.64 0 0 1-1.71.31 4.47 4.47 0 0 1-1.65-.46 3 3 0 0 1-1.28-1 3.25 3.25 0 0 1-.76-2.23c0-1 .19-2.07.19-3.11v-3.25c0-1.08.06-1.93.08-2.89v-1.36c0-.35-.08-.68-.08-1 0-.83.06-1.67.1-2.5s.1-1.85.1-2.78v-7.12a10.8 10.8 0 0 1-.72.92c-.24.29-.47.58-.72.87-.67.76-1.32 1.56-2 2.33-.38.45-.73.93-1.12 1.37s-.84.82-1.24 1.26-.69 1-1.09 1.4-.76.9-1.17 1.33c-.63.64-1.18 1.34-1.82 2s-1.29 1.18-1.95 1.77A59.62 59.62 0 0 1 12.4 73L11 74c-.54.36-1.09.67-1.63 1s-1.12.43-1.63.74-1 .6-1.52.9a4.2 4.2 0 0 1-2.25.73 3.79 3.79 0 0 1-1.78-.27A3.64 3.64 0 0 1 .9 75.79a3 3 0 0 1-.53-1.68 3.07 3.07 0 0 1 .48-1.94A5.33 5.33 0 0 1 2.48 71c.53-.28 1-.64 1.51-.92.35-.2.74-.21 1.1-.38a22.55 22.55 0 0 0 2-1.27c.49-.3 1-.56 1.56-.87a6.51 6.51 0 0 0 .81-.61 9.68 9.68 0 0 0 .91-.71 20.11 20.11 0 0 1 2.5-1.86c.36-.28.69-.58 1-.87s.63-.34.86-.62a6.31 6.31 0 0 1 .77-.81c.45-.38.88-.77 1.32-1.17s.87-.79 1.29-1.2.92-.74 1.34-1.15.73-.93 1.13-1.36.87-.79 1.27-1.22.74-.91 1.13-1.35.71-.93 1.09-1.38a9.18 9.18 0 0 1 .95-.85 10.52 10.52 0 0 0 .7-.87c.6-.68 1.16-1.4 1.7-2.13-.87-.27-.84-.08-1.75-.08h-1.81c-.9 0-.91-.07-1.82-.07h-3.62c-.9 0-.9.08-1.81.08-1.08 0-2.19-.06-3.27 0h-2.17c-.72 0-1.21.07-1.83 0a2.4 2.4 0 0 1-2-1 1.6 1.6 0 0 1-.07-.33A3.8 3.8 0 0 1 7 46.31a3.74 3.74 0 0 1 .19-1.43 2.92 2.92 0 0 1 .77-1.27 2.32 2.32 0 0 1 1.44-.27c1.27 0 2.51-.08 3.78 0 .76 0 1.54-.11 2.3-.1 1 0 2 .14 3 .15h1.81c.62 0 1.23-.06 1.84-.07s1.16.1 1.78.1 1.45-.05 2.18-.06c.48 0 1 .05 1.45.05h1.84a6.23 6.23 0 0 0 1.6-.08c.15-.05.17-.25.17-.41v-1.66c0-.55-.1-1-.11-1.59s-.06-1.36 0-2c0-.83 0-1.67-.06-2.5v-1.06c0-1.19-.26-2.46.45-3.53a2.9 2.9 0 0 1 1.26-1.07 4.28 4.28 0 0 1 1.64-.38 4.62 4.62 0 0 1 1.71.31 3.36 3.36 0 0 1 1.38 1.06 3.83 3.83 0 0 1 .45 2.24 23.34 23.34 0 0 1-.19 2.84c-.07.76 0 1.53-.09 2.28s0 1.36 0 2.06c0 .54-.08 1.08-.09 1.62s0 1.15 0 1.75c0 .43 4.15 0 4.52 0 .82 0 1.62.1 2.43.1s.86-.07 1.71-.07h8.56c.86 0 .86.06 1.72.05s.86-.13 1.72-.13.68-.24 1.54-.24a2.35 2.35 0 0 1 1.39.67 2.91 2.91 0 0 1 1 1.17 4.31 4.31 0 0 1 .19 1.51 2.93 2.93 0 0 1-1.35 2.5 5.57 5.57 0 0 1-1.26.46z"/><path class="cls-2" d="M32.34 21.94c.61 0 1.2-.06 1.83-.07s1.2.11 1.8.13l1.81.07c.62 0 1.23 0 1.82.08s1.24-.06 1.83 0 1.22.17 1.8.28 1.17.4 1.74.54a17.66 17.66 0 0 1 3.27 1.09 14.09 14.09 0 0 1 1.49.72c.43.26.74.67 1.16.95A18.28 18.28 0 0 1 54 28.27a16 16 0 0 1 2.72 4.47A24.33 24.33 0 0 1 58.4 37a3.25 3.25 0 0 0 2.6 2.58 3.59 3.59 0 0 0 1.88-.15 3.67 3.67 0 0 0 1.72-.8 3.36 3.36 0 0 0 1-3.64 16.69 16.69 0 0 0-.55-1.84 7.07 7.07 0 0 0-.71-1.43 13.35 13.35 0 0 1-.82-1.87 12.89 12.89 0 0 0-.87-1.51c-.33-.52-.59-1.08-.95-1.56s-.73-.68-1-1.11a12.55 12.55 0 0 0-1.24-1.46 16.86 16.86 0 0 0-1.92-1.71c-.55-.41-1-.88-1.51-1.32a16 16 0 0 0-3.91-2.3c-.53-.24-1.16-.29-1.72-.5-.81-.3-1.64-.62-2.47-.85a22.7 22.7 0 0 0-3.55-.93c-.57-.07-1.14-.2-1.71-.3-1-.17-2-.22-3-.3-.6 0-1.22 0-1.84-.08-1.21-.06-2.48-.09-3.7-.09a63.93 63.93 0 0 0-7.38.32c-.6.07-1.25.12-1.84.21s-1.23.23-1.81.35-1.2.33-1.78.47-1.16.44-1.74.61-1.14.36-1.68.56-1.17.31-1.7.55-1.06.56-1.58.84a17.84 17.84 0 0 0-3.31 2.17c-.29.25-.45.62-.75.85s-.48.24-.69.39a6.05 6.05 0 0 0-1.5 1.6c-.59.89-1.42 1.61-2 2.54S5.14 29 4.66 29.88a25.23 25.23 0 0 0-1.28 3.41c-.2.56-.33 1.2-.49 1.75a3.7 3.7 0 0 0-.21 1.9 4 4 0 0 0 .88 1.77 3.9 3.9 0 0 0 1.79.81 3.72 3.72 0 0 0 1.92.12 3.79 3.79 0 0 0 1.67-1 4.14 4.14 0 0 0 .83-1.35 17 17 0 0 0 .51-1.8c.16-.48.43-.93.62-1.4s.47-.9.69-1.36c.37-.76.74-1.47 1.16-2.2a14.57 14.57 0 0 1 2.58-3.25c.53-.5 1.12-.91 1.67-1.38.2-.17.35-.4.55-.56a11 11 0 0 1 1-.55 14.25 14.25 0 0 1 1.51-.65A25.71 25.71 0 0 1 22.5 23a23.86 23.86 0 0 1 3.36-.63 27.16 27.16 0 0 1 3.81-.39 21.21 21.21 0 0 1 2.37 0zm14.95-6.77a4.34 4.34 0 0 1-.93 0 2.3 2.3 0 0 1-.78-.22 2 2 0 0 1-1-1.63 3 3 0 0 1 .44-1.78c.3-.52.72-1 1-1.54s.55-1.08.83-1.61.62-1 .88-1.59.49-1.11.73-1.66.54-1.14.78-1.73a3.65 3.65 0 0 1 1.17-1.55 3.08 3.08 0 0 1 1.84-.56 4.1 4.1 0 0 1 1.75.43 3.88 3.88 0 0 1 1.44 1.09 2.82 2.82 0 0 1 .61 1.7 4.14 4.14 0 0 1-.36 1.56 9.83 9.83 0 0 1-.77 1.41c-.29.46-.59.91-.9 1.33s-.67.91-.94 1.3-.61.84-.92 1.29-.65.84-1 1.25a10.46 10.46 0 0 1-1 1.19 6 6 0 0 1-1.32.88 4.23 4.23 0 0 1-1.55.44zM18 13a16.87 16.87 0 0 0-1-1.43 16.39 16.39 0 0 0-1.14-1.32c-.41-.43-.83-.82-1.26-1.2s-.86-.77-1.31-1.15-.83-.81-1.29-1.2a2.08 2.08 0 0 1-.93-1.62 2.54 2.54 0 0 1 .6-1.53A3.7 3.7 0 0 1 13 2.5a3.78 3.78 0 0 1 1.61-.38 4.14 4.14 0 0 1 1.76.58 13 13 0 0 1 1.56 1c.48.35 1 .74 1.46 1.16s.87.89 1.3 1.33.87.92 1.25 1.38A13 13 0 0 1 23 9.09a3.62 3.62 0 0 1 .59 1.72 3.21 3.21 0 0 1-.46 1.68 4 4 0 0 1-1.23 1.25 3.12 3.12 0 0 1-1.66.55 2.43 2.43 0 0 1-1.3-.34A2.84 2.84 0 0 1 18 13zm17.34.4a2.5 2.5 0 0 1-1.42-.4 2.56 2.56 0 0 1-.92-1.17 14.05 14.05 0 0 0-.81-1.63 16.12 16.12 0 0 0-.93-1.56c-.35-.5-.69-1-1.07-1.47s-.78-.92-1.19-1.38-.81-.88-1.22-1.35a2.08 2.08 0 0 1-.53-1.34 2.16 2.16 0 0 1 .57-1.42 3.54 3.54 0 0 1 1.27-.93 3.84 3.84 0 0 1 1.53-.3 3.17 3.17 0 0 1 1.57.49 9.45 9.45 0 0 1 1.3 1 15.76 15.76 0 0 1 1.23 1.12c.37.4.7.85 1.05 1.29s.71.87 1 1.32.6 1 .87 1.42a14.39 14.39 0 0 1 .78 1.47 4.58 4.58 0 0 1 .47 1.59 2.83 2.83 0 0 1-.59 1.63A3.87 3.87 0 0 1 37 13a3.61 3.61 0 0 1-1.66.4zm65.31 22.91c-2.14.08-4.33-.1-6.44.16a15 15 0 0 1-1.55-.07c-.85 0-.85-.06-1.7 0a4.8 4.8 0 0 0-1.06.2 7.34 7.34 0 0 1-1.25-.09h-2.79c-.85 0-.85-.09-1.71-.07h-.08c-.55 0-1.1.17-1.48-.08a2.81 2.81 0 0 1-.81-1.36 3.48 3.48 0 0 1-.14-1.43 3.42 3.42 0 0 1 .17-1.46 2.31 2.31 0 0 1 1.23-1.25l.75-.27a1.4 1.4 0 0 1 .33-.09 1.33 1.33 0 0 1 .36 0 10.15 10.15 0 0 0 1.74.15h9.82a5.66 5.66 0 0 0 .65 0 12.05 12.05 0 0 1 1.47 0h.58c.19 0 .46.07.7.07h3.39c.85 0 .85.07 1.7.08s.85 0 1.7 0c.59 0 1.18 0 1.76-.07a1.5 1.5 0 0 1 .53.06 4.43 4.43 0 0 0 .83 0 8.36 8.36 0 0 0 2-.13s-.06-.07-.06-.12a22.72 22.72 0 0 0 0-2.52 18.94 18.94 0 0 0 0-1.91.44.44 0 0 1-.33 0 2.14 2.14 0 0 0-.32-.1c-.26 0-.52.05-.79 0a2.45 2.45 0 0 0-.66 0 11.51 11.51 0 0 1-1.28.19c-.84 0-.84-.09-1.67-.08s-.84-.11-1.68-.1-.84 0-1.68 0-.84.16-1.67.16-.84-.14-1.68-.14-.84.13-1.68.14-.84-.06-1.68-.06a1.92 1.92 0 0 1-1.64-.76 3.22 3.22 0 0 1-.42-1.8 3.16 3.16 0 0 1 .57-1.73 1.68 1.68 0 0 1 1.55-.83c.84 0 .84-.16 1.67-.15s.84.07 1.68.07h3.35c.84 0 .84.1 1.68.11 1 0 2 .12 3 .11.4 0 .79-.07 1.18-.09a5.12 5.12 0 0 1 .69 0 8.2 8.2 0 0 0 1.63 0 3.63 3.63 0 0 0 .07-1.13v-1.55a12.88 12.88 0 0 0 .07-1.8 13.34 13.34 0 0 0-1.61-.06c-.64 0-1.27-.07-1.9-.07-.89 0-.89.06-1.78.06h-1.78a11.46 11.46 0 0 1-1.42.07 16.15 16.15 0 0 0-2.14-.08 11.66 11.66 0 0 1-1.45 0 18.05 18.05 0 0 0-2.1-.12h-1.78c-.89 0-.89.08-1.78.08-1.22 0-2.43.21-3.64.1h-.29a6.56 6.56 0 0 1-2.75-.42 3 3 0 0 1-1.36-1.26 2.58 2.58 0 0 1 .79-3.52 2 2 0 0 1 1.33-.35 3.51 3.51 0 0 0 .78 0 1.67 1.67 0 0 1 .63-.1c.84.05 1.7.05 2.54.05s.84-.05 1.68-.05.78.1 1.64.1c.44 0 .86-.1 1.29-.13.67-.06 1.41 0 2.08 0 .84 0 .84.07 1.69.07h1.69c.84 0 .89.18 1.69-.07-.27-.45-.71-.77-1-1.19s-.5-.91-.81-1.32-.64-.8-1-1.2-.49-.93-.83-1.32a2.24 2.24 0 0 1-.62-1.57 2.57 2.57 0 0 1 .36-1.52 3.43 3.43 0 0 1 1.28-.92 3.35 3.35 0 0 1 1.48-.59 4.39 4.39 0 0 1 2.88 1.61 24.14 24.14 0 0 1 2.36 2.69c.34.46.6 1 .9 1.47s.42.71.64 1.07a10.71 10.71 0 0 1 .81 1.36 9.66 9.66 0 0 1 .37 1.32 11.83 11.83 0 0 0 2.15 0h2.16c.84 0 .84.21 1.68.19s.84.06 1.68 0a4.54 4.54 0 0 0 1.67-.15c.26-.5.47-1 .73-1.58s.45-1.07.69-1.61.68-1 .9-1.53.41-1.12.6-1.65.45-1.12.62-1.64a3.64 3.64 0 0 1 .89-1.63 2.73 2.73 0 0 1 1.72-.86 3.58 3.58 0 0 1 1.66.81 3.53 3.53 0 0 1 1.25 1.23 3.09 3.09 0 0 1 .48 1.75 4.45 4.45 0 0 1-.38 1.78c-.23.53-.56 1.08-.87 1.67s-.41 1.11-.7 1.62-.57 1.06-.82 1.61c.47 0 .91.08 1.38.08h11.56c.83 0 .83-.11 1.66-.11a2.46 2.46 0 0 1 1.35.57 2.69 2.69 0 0 1 1.08 1 3.73 3.73 0 0 1 .23 1.48 2.49 2.49 0 0 1-.44 1.32A2.05 2.05 0 0 1 142 16a7 7 0 0 1-2.42.41c-1 .07-1.92.05-2.88.05a30.11 30.11 0 0 1-4.48 0 27 27 0 0 0-3.94.07c-.9 0-.9.06-1.8.05h-1.8c-.9 0-.9-.12-1.8-.12s-.9.1-1.8.09-.9 0-1.8 0a5 5 0 0 0-1.78.08c0 .69-.07 1.37-.1 2.06s-.1 1.47-.11 2.21h2c.66 0 1 .16 1.57.16.84 0 .84.08 1.69.08a7.94 7.94 0 0 1 1.05-.14q.77.09 1.54.14h1.25c1 0 2 .06 3 0h1.43a8.51 8.51 0 0 1 2.77.22c1 .29 1.2 1.3 1.2 2.22a2.15 2.15 0 0 1-.14 1.06l-.1.18a2.48 2.48 0 0 1-1.41 1.18 11.1 11.1 0 0 1-2.16.12c-.84 0-.84.05-1.69 0s-.84 0-1.69 0c-.38 0-.76 0-1.14.06a13 13 0 0 1-1.38-.09h-.69c-2-.09-4-.17-6-.1h-.29c-.14 0-.27-.06-.41-.08a2.63 2.63 0 0 0-.43 0 .21.21 0 0 0-.15 0 .22.22 0 0 0 0 .16c0 .55 0 1.07.06 1.62a25.53 25.53 0 0 1 0 2.62.14.14 0 0 0 0 .07.13.13 0 0 0 .08.06 2.66 2.66 0 0 0 1.24 0 18 18 0 0 1 2.38.09H138c.86 0 .86-.06 1.72-.07h3.44c.86 0 .86-.05 1.72-.06a2.48 2.48 0 0 1 1.43.38 2.58 2.58 0 0 1 .79 1.22 3.53 3.53 0 0 1 .2 1.41 3.35 3.35 0 0 1-.41 2.07 2.35 2.35 0 0 1-1.93.84h-.08a12.19 12.19 0 0 0-1.4 0 12.7 12.7 0 0 1-1.89 0c-.61 0-1.21-.1-1.82-.11-.85 0-.85 0-1.7-.05h-5.13c-.86 0-.85-.15-1.71-.17s-.86 0-1.71 0-.86.1-1.71.09"/><path class="cls-2" d="M87.15 50.54c-.52 0-1.05.08-1.58 0s-1-.15-1.57-.23-1.06 0-1.58-.16a3.27 3.27 0 0 1-1.48-.79 3.19 3.19 0 0 1-.82-1.36 3.1 3.1 0 0 1-.12-1.63 3.19 3.19 0 0 1 .72-1.48 3.16 3.16 0 0 1 1.42-.8 3.1 3.1 0 0 1 1.62-.21 17.15 17.15 0 0 0 2.14.32 15.12 15.12 0 0 0 2.16 0c.56 0 1.13 0 1.68-.07s1.09-.27 1.63-.41 1.08-.31 1.6-.5 1.05-.39 1.56-.62 1-.48 1.5-.75.93-.62 1.4-.93 1-.5 1.47-.83.84-.75 1.27-1.11.85-.74 1.25-1.12l1.45-1.36c.47-.45 1-.87 1.46-1.35s.89-1 1.31-1.49a2.52 2.52 0 0 1 1.71-.88 2.45 2.45 0 0 1 1.78.64 2.41 2.41 0 0 1 .9 1.65 2.55 2.55 0 0 1-.49 1.87c-.35.41-.83.73-1.18 1.16s-.69.86-1 1.28-.72.84-1.09 1.24-.72.86-1.11 1.22-.87.67-1.29 1-.76.8-1.18 1.16-.89.65-1.32 1-.76.82-1.21 1.15-.92.63-1.37.94-.94.6-1.41.87-1 .45-1.51.69a16.41 16.41 0 0 1-1.53.64c-.63.22-1.26.45-1.9.62s-1.3.35-2 .45-1.33.21-2 .25c-.44.08-.85-.07-1.29-.07zm54.13.07h1.58c.53 0 1.05-.08 1.58-.15s1-.26 1.54-.37a3 3 0 0 0 1.43-.72 3.23 3.23 0 0 0 1-1.29 3.24 3.24 0 0 0-.07-1.65 3.22 3.22 0 0 0-.6-1.53 3.28 3.28 0 0 0-1.43-.86 3.22 3.22 0 0 0-1.66-.15 17.31 17.31 0 0 1-2.14.37 15.19 15.19 0 0 1-2.17 0 16.75 16.75 0 0 1-1.66-.25c-.55-.09-1.12-.1-1.66-.24s-1.06-.36-1.59-.55-1-.43-1.54-.67-1-.46-1.51-.73-1-.48-1.49-.78-.93-.64-1.38-1-.88-.7-1.31-1.06-.88-.7-1.29-1.08-.89-.94-1.39-1.42-1-.84-1.49-1.32-.93-1-1.34-1.47a2.51 2.51 0 0 0-1.66-1 2.48 2.48 0 0 0-1.77.69 2.37 2.37 0 0 0-.9 1.63 2.51 2.51 0 0 0 .49 1.86l1.06 1.27c.35.42.81.76 1.16 1.18s.63.93 1 1.33.79.8 1.18 1.16L124.5 43c.4.37.8.76 1.22 1.12s.87.68 1.3 1 .84.73 1.28 1.06.95.58 1.41.89.89.67 1.37.95 1 .42 1.53.65a16.51 16.51 0 0 0 1.51.68c.63.22 1.27.41 1.92.57s1.31.27 2 .37 1.32.29 2 .33c.37.05.81-.01 1.24-.01z"/><path class="cls-2" d="M132.55 47.4a4.65 4.65 0 0 1 .09 1.08c0 .5 0 1.11.08 1.75.12 2.31.24 4.68.14 7a16.56 16.56 0 0 1-.19 1.7 8.27 8.27 0 0 1-.36 1.67 4.81 4.81 0 0 1-.82 1.52A5 5 0 0 1 130 63a8.42 8.42 0 0 1-1.6.51 13.78 13.78 0 0 1-1.63.43c-.52.08-1.08.06-1.69.12s-1.07.43-1.67.47-1.11-.1-1.71-.08-1.11.08-1.7.09-1.24-.14-1.83-.14c.38.51 1.06.91 1.5 1.39s.78 1 1.26 1.43 1 .78 1.51 1.17.94.88 1.49 1.23c.46-.24 1.09-.38 1.66-.69s1-.64 1.52-.93.92-.75 1.45-1l1.56-.85c.52-.29 1.15-.38 1.67-.67l1.54-.9c.53-.31.92-.82 1.4-1.12s1.15-.48 1.61-.79a3 3 0 0 1 1.76-.62 3.51 3.51 0 0 1 1.64.21c.48.26.68.89 1 1.32a2.6 2.6 0 0 1 .62 1.43 2.1 2.1 0 0 1-.77 1.48 5.1 5.1 0 0 1-1.23 1.27c-.43.26-1 .39-1.64.71s-1 .47-1.61.76-1 .49-1.61.76-1 .53-1.6.78-1.09.39-1.66.65a17.25 17.25 0 0 0-1.64.85c.5.23 1.12.38 1.65.58s1.31.46 2 .67a35.88 35.88 0 0 0 3.49 1c1.35.28 2.72.29 4.06.56a20.46 20.46 0 0 0 3.6.3c1.08 0 2.13.06 3.21.11.89 0 1.72-.2 2.48.44a3.45 3.45 0 0 1 1 3.58 3.1 3.1 0 0 1-1.22 1.65 6.13 6.13 0 0 1-3.22.81c-.55 0-1.13-.25-1.75-.29s-1.15 0-1.76 0-1.13-.24-1.73-.33-1.17 0-1.76-.14a29.75 29.75 0 0 1-3.36-.45q-1.9-.56-3.77-1.22c-.63-.22-1.28-.2-1.89-.46s-1.51-.52-2.27-.8a17.94 17.94 0 0 1-2.06-1.07c-1.6-.85-3.19-1.83-4.7-2.79-1-.6-1.93-1.18-2.86-1.82a18 18 0 0 1-1.43-1.28 31.82 31.82 0 0 1-2.48-2.51c-.28-.3-.54-.62-.8-.94s-.31-.54-.52-.78a14.78 14.78 0 0 1-1.51-2.18c-.27-.43-.25-.46-.78-.51s-.85-.13-1.29-.13-1.12.12-1.68.12-1.12.1-1.68.1h-3.95a1.92 1.92 0 0 0-.3 0 6.76 6.76 0 0 1-.93 0v5.08c0 .25.23 2.25.15 2.27.54-.13.94-.35 1.46-.48s1.08-.22 1.6-.36 1.11-.12 1.63-.26 1-.42 1.55-.56a10.35 10.35 0 0 1 1.8-.51 10.63 10.63 0 0 0 2.58-.66 3.58 3.58 0 0 1 .87-.32 2.62 2.62 0 0 1 1.9 1 3.25 3.25 0 0 1 .61 2 2.71 2.71 0 0 1-.75 1.68 1.91 1.91 0 0 1-1.19.77 8.87 8.87 0 0 1-1.82.59c-.35.11-.33.12-.68.23s-.52.07-.78.15a14.47 14.47 0 0 0-1.62.47 10.45 10.45 0 0 1-1.41.53 13.29 13.29 0 0 0-1.9.62 11.09 11.09 0 0 1-1.6.41c-.4.11-.76.4-1.15.49s-.74.11-1.12.22-.68.1-1 .19l-1.65.45-1.65.43c-.56.15-1.12.26-1.66.4s-.86.18-1.29.28-.58.22-.88.27c-1 .16-1.85.53-2.78.74-.58.13-1.15.19-1.68.31s-1.13.31-1.65.42-1.15.32-1.66.41-1.21.13-1.69.2a13.44 13.44 0 0 1-1.69.18 3.73 3.73 0 0 1-1.62-.34 3.26 3.26 0 0 1-1.34-1 3.16 3.16 0 0 1-.23-1.66 3.44 3.44 0 0 1 .17-1.64 3.48 3.48 0 0 1 1.89-1.37 19.83 19.83 0 0 1 2.53-.31c.54-.08 1.06-.29 1.61-.38s1.1 0 1.65-.14l1.62-.3c.3-.06.54-.21.84-.26l1.09-.22c.43-.09.87-.09 1.3-.17s1.07-.27 1.61-.38c.16 0 2-.35 2-.33-.19-2.71-.21-5.43-.24-8.14V59.8c.07-1.13 0-2.23 0-3.36 0-.82.14-1.64.11-2.45-.08-2.06-.41-4.26.33-6.23.5-.58.79-.3 1.38-.79s.66-.4 1.25-.89l1.18-1c.59-.49.33-.84 1-1.26a12.92 12.92 0 0 1 1.67-.37 14 14 0 0 1 1.66.07c.84 0 .84.15 1.68.15a26.86 26.86 0 0 1 2.93.07c.65.07 1.31 0 1.93 0 .17 0 .38 0 .45-.15a.46.46 0 0 0 0-.21c0-.76-.08-1.52-.08-2.28a1.89 1.89 0 0 1 .36-1.38 3.22 3.22 0 0 1 1.19-1 4.86 4.86 0 0 1 1.57-.18 4.64 4.64 0 0 1 1.48.44 2.82 2.82 0 0 1 1.26.77 2.17 2.17 0 0 1 .74 1.36c0 .6-.35 1.88.12 2.39.24.27.63.08.94.05.66-.06 1.32 0 2 0h2c.66 0 1.17.06 1.73.08s1.27-.18 1.82-.12a16 16 0 0 1 1.87.23c.65.39.53.59 1.14 1.05s.64.41 1.25.87a7.91 7.91 0 0 0 1.2.92 4.32 4.32 0 0 1 1.27.82zm-6 4.56a.86.86 0 0 0 0-.23 9.89 9.89 0 0 1-.12-1.19 3.81 3.81 0 0 0-.63-2l-.25-.31a1.07 1.07 0 0 0-.25-.25 1 1 0 0 0-.23-.1 2.94 2.94 0 0 0-.83-.13c-.35 0-.68-.13-1-.14-.63 0-1.26.19-1.9.18h-1.85c-.61 0-1.23-.06-1.86-.07s-1.23 0-1.86 0-1.19.07-1.75.07-1.2-.15-1.75-.15-1.2-.09-1.75-.09-1.21.09-1.76.1-1.23-.06-1.76 0c-.71 0-1.43.07-2.15.13a7.87 7.87 0 0 0-1.61.42 1.86 1.86 0 0 0-.43.16l-.17.12a2.85 2.85 0 0 0-.87 2.1 5 5 0 0 0-.12 1.44c.06.35.35.21.65.21h23.03a4.56 4.56 0 0 0 1-.08c.13-.15.17-.15.18-.15zm-24.68 4h-.29a.09.09 0 0 0 0 .06c-.06.64 0 1.27-.06 1.91a9.26 9.26 0 0 0 .11 2.38c0 .06 1.8 0 2 0 .74 0 1.5.06 2.24.09s1.64 0 2.45 0h3.46c.58 0 1.24-.07 1.82-.07s1.24.15 1.82.15 1.25.09 1.82.09 1.26-.09 1.82-.1 1.27.06 1.82 0c.19 0 .38-.07.57-.09.91-.1 1.83-.35 2.74-.43a2.42 2.42 0 0 0 1.79-.85 3.85 3.85 0 0 0 .7-2.41.88.88 0 0 0-.12-.58c-.13-.16-.65-.08-.82-.09-.45 0-.89-.06-1.36-.07h-2.87c-.37 0-.63.05-1 0s-.65 0-1 0h-1.77c-.88 0-1.66.05-2.51 0s-1.87 0-2.81 0h-10.59z"/></svg>